<svg width="78" height="65" viewBox="0 0 78 65" fill="none" xmlns="http://www.w3.org/2000/svg">
<path d="M4.67002 23.8422L33.6699 2.84204L59.8565 34.564L33.272 58.5395L4.67002 23.8422Z" fill="url(#paint0_linear_332_363)"/>
<path d="M4.67002 23.8422L33.6699 2.84204L59.8565 34.564L33.272 58.5395L4.67002 23.8422Z" fill="url(#paint1_linear_332_363)"/>
<path d="M28.7617 3.30055L28.7617 3.30055C31.0082 1.59106 34.2405 1.80321 35.9685 3.82342L35.9685 3.82342L36.6466 4.61625C36.6467 4.61626 36.6467 4.61627 36.6467 4.61628C37.0875 5.13157 36.9548 5.88486 36.4137 6.2966C35.879 6.70348 35.0965 6.66497 34.6646 6.16035L34.6646 6.16033L33.9863 5.36753L33.9863 5.36751C33.1204 4.35512 31.4564 4.21999 30.2778 5.1169L30.2778 5.11691L7.51109 22.4413C6.33888 23.3334 6.13383 24.8724 6.99064 25.8739L6.80472 26.033L6.99065 25.8739L30.9112 53.8386C31.3521 54.3539 31.2193 55.107 30.6783 55.5189L30.6781 55.519C30.5691 55.6019 30.4506 55.6661 30.3273 55.7117C29.8456 55.8899 29.2743 55.7862 28.9292 55.3827L5.00856 27.4183C3.27148 25.3874 3.74224 22.3391 5.99511 20.625L28.7617 3.30055Z" fill="#042F6C" stroke="#042F6C" stroke-width="0.5"/>
<rect x="21.8359" y="17.3458" width="35.7989" height="45.2751" transform="rotate(-19.0506 21.8359 17.3458)" fill="url(#paint2_linear_332_363)"/>
<rect x="21.8359" y="17.3458" width="35.7989" height="45.2751" transform="rotate(-19.0506 21.8359 17.3458)" fill="url(#paint3_linear_332_363)"/>
<path d="M51.8425 5.79696L51.8425 5.79696C54.5608 4.89275 57.5155 6.34941 58.4284 9.04873L58.4284 9.04874L58.7893 10.116C59.0126 10.776 58.6532 11.4883 57.9914 11.7084C57.3306 11.9282 56.6132 11.5758 56.3901 10.9166L56.3901 10.9166L56.0291 9.84936L56.029 9.84934C55.5614 8.46638 54.0444 7.71565 52.6461 8.18085L52.6461 8.18085L25.2826 17.2829C23.8851 17.7479 23.1323 19.2518 23.5997 20.6337L23.3629 20.7138L23.5997 20.6337L36.331 58.278C36.5543 58.9379 36.1949 59.65 35.5332 59.8703L35.533 59.8703C35.4004 59.9144 35.2649 59.9356 35.1312 59.9356C34.604 59.9356 34.1099 59.6053 33.9318 59.0787L21.2004 21.4347L21.4372 21.3546L21.2004 21.4347C20.2873 18.7345 21.76 15.8034 24.4791 14.8992L51.8425 5.79696Z" fill="#042F6C" stroke="#042F6C" stroke-width="0.5"/>
<rect x="39.4092" y="16.5286" width="35.7989" height="46.328" fill="url(#paint4_linear_332_363)"/>
<path d="M43.145 14.4677H72.0065C74.8734 14.4677 77.209 16.7808 77.209 19.629V59.3342C77.209 62.1824 74.8734 64.4958 72.0065 64.4958H43.1449C40.2779 64.4958 37.9424 62.1824 37.9424 59.3342V19.629C37.9426 16.7808 40.2779 14.4677 43.145 14.4677ZM40.4734 59.3342C40.4734 60.7918 41.6703 61.9815 43.145 61.9815H72.0065C73.4813 61.9815 74.678 60.7917 74.678 59.3342V19.629C74.678 18.1714 73.4812 16.9817 72.0065 16.9817H43.1449C41.67 16.9817 40.4734 18.1715 40.4734 19.629V59.3342Z" fill="#042F6C"/>
<path d="M43.145 14.4677H72.0065C74.8734 14.4677 77.209 16.7808 77.209 19.629V59.3342C77.209 62.1824 74.8734 64.4958 72.0065 64.4958H43.1449C40.2779 64.4958 37.9424 62.1824 37.9424 59.3342V19.629C37.9426 16.7808 40.2779 14.4677 43.145 14.4677ZM40.4734 59.3342C40.4734 60.7918 41.6703 61.9815 43.145 61.9815H72.0065C73.4813 61.9815 74.678 60.7917 74.678 59.3342V19.629C74.678 18.1714 73.4812 16.9817 72.0065 16.9817H43.1449C41.67 16.9817 40.4734 18.1715 40.4734 19.629V59.3342Z" stroke="#042F6C" stroke-width="0.5"/>
<path d="M43.145 14.4677H72.0065C74.8734 14.4677 77.209 16.7808 77.209 19.629V59.3342C77.209 62.1824 74.8734 64.4958 72.0065 64.4958H43.1449C40.2779 64.4958 37.9424 62.1824 37.9424 59.3342V19.629C37.9426 16.7808 40.2779 14.4677 43.145 14.4677ZM40.4734 59.3342C40.4734 60.7918 41.6703 61.9815 43.145 61.9815H72.0065C73.4813 61.9815 74.678 60.7917 74.678 59.3342V19.629C74.678 18.1714 73.4812 16.9817 72.0065 16.9817H43.1449C41.67 16.9817 40.4734 18.1715 40.4734 19.629V59.3342Z" stroke="#042F6C" stroke-width="0.5"/>
<path d="M46.1436 43.9541H69.3076" stroke="#042F6C" stroke-linecap="round"/>
<path d="M47.1963 52.3781L68.2545 52.3781" stroke="#042F6C" stroke-linecap="round"/>
<path d="M47.1963 55.537L68.2545 55.537" stroke="#042F6C" stroke-linecap="round"/>
<path d="M47.1963 48.1666H60.8841" stroke="#042F6C" stroke-linecap="round"/>
<path d="M64.043 48.1666H68.2546" stroke="#042F6C" stroke-linecap="round"/>
<path d="M47.8183 24.9089C47.8682 23.5686 48.9299 22.5548 50.2511 22.3235C51.129 22.1698 52.1152 21.9675 52.9143 21.7255C54.0096 21.3938 55.456 20.7751 56.4938 20.3061C57.3353 19.9258 58.3025 19.9258 59.144 20.3061C60.1818 20.7751 61.6282 21.3938 62.7235 21.7255C63.5226 21.9675 64.5088 22.1698 65.3867 22.3235C66.7079 22.5548 67.7696 23.5686 67.8195 24.9089C67.9802 29.2279 67.2687 38.5172 58.6452 41.536C58.114 41.722 57.5238 41.722 56.9926 41.536C48.3691 38.5172 47.6577 29.2279 47.8183 24.9089Z" fill="#C8D1EA"/>
<path fill-rule="evenodd" clip-rule="evenodd" d="M56.5023 38.5464C56.0651 38.3484 55.6594 38.1256 55.2829 37.8816L58.9222 22.9976C59.0114 23.0292 59.0996 23.0647 59.1864 23.1042C59.4968 23.2454 59.835 23.3944 60.1729 23.5344L56.5023 38.5464ZM57.5846 22.8165L54.1206 36.9831C53.2258 36.1634 52.5492 35.2038 52.04 34.1886L54.5599 23.8832C55.1608 23.6734 55.857 23.3746 56.4514 23.1042C56.8125 22.9399 57.1966 22.844 57.5846 22.8165Z" fill="white"/>
<path d="M50.5642 26.9404C50.5755 25.5977 51.6396 24.5815 52.9543 24.3091C53.4096 24.2148 53.8702 24.1043 54.2671 23.9798C54.9248 23.7735 55.7575 23.4192 56.4512 23.1036C57.3186 22.709 58.3188 22.709 59.1862 23.1036C59.8799 23.4192 60.7125 23.7735 61.3703 23.9798C61.7672 24.1043 62.2277 24.2148 62.6831 24.3091C63.9978 24.5815 65.0619 25.5977 65.0732 26.9404C65.1015 30.318 64.3367 36.5216 58.6632 38.7449C58.1212 38.9573 57.5161 38.9573 56.9742 38.7449C51.3007 36.5216 50.5359 30.318 50.5642 26.9404Z" stroke="#2571BC" stroke-width="2"/>
<defs>
<linearGradient id="paint0_linear_332_363" x1="5.03496" y1="27.4981" x2="45.9583" y2="32.84" gradientUnits="userSpaceOnUse">
<stop offset="0.119792" stop-color="#9ECFFF"/>
<stop offset="1" stop-color="white" stop-opacity="0"/>
</linearGradient>
<linearGradient id="paint1_linear_332_363" x1="5.03496" y1="27.4981" x2="45.9583" y2="32.84" gradientUnits="userSpaceOnUse">
<stop offset="0.119792" stop-color="#9ECFFF"/>
<stop offset="1" stop-color="white" stop-opacity="0"/>
</linearGradient>
<linearGradient id="paint2_linear_332_363" x1="21.6564" y1="18.1454" x2="50.2859" y2="49.753" gradientUnits="userSpaceOnUse">
<stop offset="0.119792" stop-color="#9ECFFF"/>
<stop offset="1" stop-color="white" stop-opacity="0"/>
</linearGradient>
<linearGradient id="paint3_linear_332_363" x1="21.6564" y1="18.1454" x2="50.2859" y2="49.753" gradientUnits="userSpaceOnUse">
<stop offset="0.119792" stop-color="#9ECFFF"/>
<stop offset="1" stop-color="white" stop-opacity="0"/>
</linearGradient>
<linearGradient id="paint4_linear_332_363" x1="57.3087" y1="16.5286" x2="57.3087" y2="62.8566" gradientUnits="userSpaceOnUse">
<stop offset="0.119792" stop-color="#9ECFFF"/>
<stop offset="1" stop-color="white" stop-opacity="0"/>
</linearGradient>
</defs>
</svg>
