<svg width="21" height="21" viewBox="0 0 21 21" fill="none" xmlns="http://www.w3.org/2000/svg">
<path d="M0.5 3C0.5 1.61929 1.61929 0.5 3 0.5H16C17.3807 0.5 18.5 1.61929 18.5 3V13C18.5 14.933 16.933 16.5 15 16.5H4C2.067 16.5 0.5 14.933 0.5 13V3Z" fill="url(#paint0_linear_8_2607)" stroke="#042F6C"/>
<path d="M2.9414 6.24027C3.05886 5.80354 3.45482 5.5 3.90708 5.5H15.0929C15.5452 5.5 15.9411 5.80354 16.0586 6.24027L17.5 11.5994V18.5H1.5V11.5994L2.9414 6.24027Z" fill="#CFE5F6" stroke="#042F6C"/>
<path fill-rule="evenodd" clip-rule="evenodd" d="M6.09084 7.30883L4.5 11.9413C4.53626 11.9876 4.9702 11.446 5 11.5C5.04234 11.5767 5.18076 11.4773 5.24427 11.5367C5.28441 11.5743 5.32742 11.6182 5.37201 11.6636C5.47217 11.7658 5.58031 11.8761 5.68175 11.9413L7.18175 7C6.22565 7.06392 6.09247 7.30321 6.09084 7.30883ZM7.53601 7.04599L6 11.9413C6.13233 12.0008 6.33402 11.9015 6.47266 11.9413L7.99993 7.15426C7.86334 7.09035 7.68085 7.05925 7.53601 7.04599Z" fill="white"/>
<path d="M4.23402 7.82892C4.31347 7.48979 4.61594 7.25 4.96424 7.25H13.825C14.1604 7.25 14.455 7.4726 14.5465 7.7952L15.5788 11.4317C15.6241 11.5913 15.5042 11.75 15.3383 11.75H3.63069C3.46957 11.75 3.35052 11.5998 3.38728 11.443L4.23402 7.82892Z" stroke="#042F6C" stroke-width="0.5"/>
<circle cx="14.5" cy="15.5" r="1.25" stroke="#042F6C" stroke-width="0.5"/>
<circle cx="4.5" cy="15.5" r="1.25" fill="white" stroke="#042F6C" stroke-width="0.5"/>
<rect x="7.25" y="14.25" width="4.5" height="2.5" rx="0.75" stroke="#042F6C" stroke-width="0.5"/>
<path d="M14.5 19H17.5V19.5C17.5 19.7761 17.2761 20 17 20H15C14.7239 20 14.5 19.7761 14.5 19.5V19Z" fill="white" stroke="#042F6C"/>
<path d="M1.5 19H4.5V19.5C4.5 19.7761 4.27614 20 4 20H2C1.72386 20 1.5 19.7761 1.5 19.5V19Z" fill="white" stroke="#042F6C"/>
<path d="M11.583 10.9717C11.6102 10.5555 11.9396 10.2388 12.3516 10.1737C12.8179 10.1 13.4297 9.98752 13.9001 9.84509C14.4751 9.671 15.2613 9.32417 15.7349 9.10582C15.9957 8.98556 16.2972 8.98556 16.558 9.10582C17.0315 9.32417 17.8178 9.671 18.3928 9.84509C18.8631 9.98752 19.4749 10.1 19.9412 10.1737C20.3533 10.2388 20.6827 10.5555 20.7099 10.9717C20.8276 12.7754 20.7101 17.5411 16.4057 18.9589C16.2395 19.0137 16.0534 19.0137 15.8871 18.9589C11.5827 17.5411 11.4653 12.7754 11.583 10.9717Z" fill="#C8D1EA"/>
<path fill-rule="evenodd" clip-rule="evenodd" d="M15.5431 17.5485C15.3429 17.4578 15.1571 17.3557 14.9847 17.2439L16.653 10.421C16.8253 10.5008 17.0249 10.5903 17.2243 10.6729L15.5431 17.5485ZM16.0514 10.2926L14.4524 16.8323C14.0425 16.4568 13.7327 16.0172 13.4995 15.5522L14.6534 10.8329C15.0007 10.7117 15.4177 10.5255 15.7226 10.3825C15.8274 10.3333 15.9387 10.3034 16.0514 10.2926Z" fill="white"/>
<path fill-rule="evenodd" clip-rule="evenodd" d="M15.5906 10.1013C15.9426 9.93613 16.3507 9.93613 16.7027 10.1013C17.0475 10.263 17.5196 10.4722 17.8664 10.5809C18.1262 10.6624 18.4583 10.7321 18.7567 10.7851C19.2851 10.879 19.7457 11.2984 19.7713 11.8861C19.8037 12.6303 19.7711 13.8599 19.3461 15.0478C18.9182 16.2439 18.0849 17.4136 16.5176 17.9784C16.2791 18.0644 16.0142 18.0644 15.7757 17.9784C14.2085 17.4136 13.3751 16.2439 12.9472 15.0478C12.5222 13.8599 12.4896 12.6303 12.522 11.8861C12.5476 11.2984 13.0082 10.879 13.5367 10.7851C13.835 10.7321 14.1672 10.6624 14.4269 10.5809C14.7737 10.4722 15.2458 10.263 15.5906 10.1013ZM16.4385 10.6644C16.2539 10.5778 16.0394 10.5778 15.8548 10.6644C15.5093 10.8265 15.0038 11.0519 14.6131 11.1744C14.3149 11.268 13.9516 11.3431 13.6455 11.3975C13.3516 11.4497 13.1542 11.6665 13.1434 11.9132C13.1126 12.6204 13.1466 13.7586 13.5329 14.8383C13.9162 15.9097 14.6388 16.9075 15.9866 17.3932C16.0888 17.43 16.2045 17.43 16.3067 17.3932C17.6546 16.9075 18.3771 15.9097 18.7604 14.8383C19.1467 13.7586 19.1807 12.6204 19.1499 11.9132C19.1391 11.6665 18.9417 11.4497 18.6478 11.3975C18.3417 11.3431 17.9785 11.268 17.6802 11.1744C17.2895 11.0519 16.784 10.8265 16.4385 10.6644Z" fill="#2571BC"/>
<defs>
<linearGradient id="paint0_linear_8_2607" x1="9.5" y1="0" x2="9.5" y2="17" gradientUnits="userSpaceOnUse">
<stop stop-color="#9FC8F2"/>
<stop offset="1" stop-color="#2571BC" stop-opacity="0"/>
</linearGradient>
</defs>
</svg>
