<svg width="77" height="58" viewBox="0 0 77 58" fill="none" xmlns="http://www.w3.org/2000/svg">
<rect x="1.5" y="1.5" width="64.9024" height="53.5854" rx="3.5" fill="url(#paint0_linear_195_18203)" stroke="#042F6C" stroke-width="3"/>
<g clip-path="url(#clip0_195_18203)">
<path fill-rule="evenodd" clip-rule="evenodd" d="M24.6956 32.5505C23.8006 32.2864 22.9699 31.989 22.1992 31.6634L29.6566 11.7883C30.4267 12.0209 31.319 12.2814 32.2105 12.5221L24.6956 32.5505ZM27.0267 11.2568L19.8198 30.4643C17.9878 29.3703 16.6028 28.0898 15.5605 26.735L20.7183 12.9887C22.6785 12.543 25.1353 11.7952 26.4536 11.3798C26.6414 11.3207 26.8332 11.2797 27.0267 11.2568Z" fill="white"/>
<path d="M59.1493 23.7837V37.2228C59.1493 38.1138 58.7953 38.9684 58.1652 39.5985C57.5351 40.2286 56.6806 40.5825 55.7895 40.5825H52.2198C51.8497 42.0279 51.0091 43.309 49.8305 44.2239C48.6518 45.1388 47.2023 45.6353 45.7102 45.6353C44.2182 45.6353 42.7686 45.1388 41.59 44.2239C40.4114 43.309 39.5708 42.0279 39.2007 40.5825H28.7015C28.3314 42.0279 27.4908 43.309 26.3122 44.2239C25.1336 45.1388 23.684 45.6353 22.192 45.6353C20.6999 45.6353 19.2504 45.1388 18.0717 44.2239C16.8931 43.309 16.0525 42.0279 15.6824 40.5825H12.1127C11.2216 40.5825 10.3671 40.2286 9.73698 39.5985C9.1069 38.9684 8.75293 38.1138 8.75293 37.2228V13.7045C8.75293 12.8134 9.1069 11.9589 9.73698 11.3288C10.3671 10.6987 11.2216 10.3447 12.1127 10.3447H44.0304C44.4759 10.3447 44.9032 10.5217 45.2182 10.8368C45.5333 11.1518 45.7102 11.5791 45.7102 12.0246L59.1493 23.7837ZM59.1493 23.7837C59.1495 23.5681 59.1089 23.3543 59.0296 23.1538L59.1493 23.7837ZM54.8535 14.2749L54.6301 14.6067C54.1406 14.277 53.5633 14.1021 52.9731 14.1045L52.9715 14.1045L45.7102 14.1045H45.3102V13.7045V12.0246C45.3102 11.6852 45.1754 11.3596 44.9354 11.1196C44.6954 10.8796 44.3698 10.7447 44.0304 10.7447H12.1127C11.3277 10.7447 10.5749 11.0566 10.0198 11.6116C9.46476 12.1667 9.15293 12.9195 9.15293 13.7045V37.2228C9.15293 38.0077 9.46476 38.7606 10.0198 39.3156C10.5749 39.8707 11.3277 40.1825 12.1127 40.1825H15.6824H15.9929L16.0699 40.4833C16.418 41.8427 17.2085 43.0475 18.317 43.9079C19.4255 44.7683 20.7888 45.2353 22.192 45.2353C23.5952 45.2353 24.9584 44.7683 26.0669 43.9079C27.1754 43.0475 27.9659 41.8427 28.314 40.4833L28.391 40.1825H28.7015H39.2007H39.5112L39.5882 40.4833C39.9363 41.8427 40.7268 43.0475 41.8353 43.9079C42.9438 44.7683 44.307 45.2353 45.7102 45.2353C47.1134 45.2353 48.4767 44.7683 49.5852 43.9079C50.6937 43.0475 51.4842 41.8427 51.8323 40.4833L51.9093 40.1825H52.2198H55.7895C56.5745 40.1825 57.3273 39.8707 57.8824 39.3156C58.4374 38.7606 58.7493 38.0077 58.7493 37.2228V23.7837V23.7833C58.7495 23.6183 58.7184 23.4548 58.6578 23.3013C58.6577 23.3012 58.6577 23.3011 58.6576 23.3009L55.7185 15.9532L54.8535 14.2749ZM54.8535 14.2749L54.6301 14.6067C55.1195 14.9363 55.4987 15.4053 55.7184 15.9529L54.8535 14.2749ZM11.7127 27.1435V27.5435H12.1127H42.3505H42.7505V27.1435V13.7045V13.3045H42.3505H12.1127H11.7127V13.7045V27.1435ZM45.3102 22.1039V22.5039H45.7102H54.9874H55.5782L55.3588 21.9553L53.3429 16.9157L53.2423 16.6642H52.9715H45.7102H45.3102V17.0642V22.1039ZM20.1031 42.0288C20.7214 42.4419 21.4483 42.6624 22.192 42.6624C23.1891 42.6624 24.1454 42.2663 24.8505 41.5612C25.5556 40.8561 25.9517 39.8998 25.9517 38.9027C25.9517 38.159 25.7312 37.4321 25.3181 36.8138C24.9049 36.1956 24.3178 35.7137 23.6308 35.4291C22.9437 35.1445 22.1878 35.0701 21.4585 35.2151C20.7291 35.3602 20.0592 35.7183 19.5334 36.2441C19.0076 36.7699 18.6495 37.4398 18.5044 38.1692C18.3594 38.8985 18.4338 39.6544 18.7184 40.3414C19.003 41.0285 19.4849 41.6156 20.1031 42.0288ZM43.6214 42.0288C44.2397 42.4419 44.9666 42.6624 45.7102 42.6624C46.7074 42.6624 47.6637 42.2663 48.3688 41.5612C49.0739 40.8561 49.47 39.8998 49.47 38.9027C49.47 38.159 49.2495 37.4321 48.8364 36.8138C48.4232 36.1956 47.8361 35.7137 47.149 35.4291C46.462 35.1445 45.7061 35.0701 44.9768 35.2151C44.2474 35.3602 43.5775 35.7183 43.0517 36.2441C42.5259 36.7699 42.1678 37.4398 42.0227 38.1692C41.8777 38.8985 41.9521 39.6544 42.2367 40.3414C42.5213 41.0285 43.0032 41.6156 43.6214 42.0288Z" fill="white" stroke="#042F6C" stroke-width="0.8"/>
</g>
<path d="M46.8883 32.0619C46.9757 30.7235 48.0348 29.7052 49.3596 29.4959C50.8589 29.259 52.826 28.8974 54.3384 28.4395C56.1871 27.8797 58.7151 26.7645 60.2378 26.0625C61.0764 25.6758 62.0456 25.6758 62.8842 26.0625C64.4069 26.7645 66.9349 27.8797 68.7836 28.4395C70.296 28.8974 72.2631 29.259 73.7624 29.4959C75.0873 29.7052 76.1464 30.7235 76.2337 32.0619C76.6122 37.8613 76.2346 53.1843 62.3948 57.7431C61.8602 57.9192 61.2618 57.9192 60.7273 57.7431C46.8874 53.1843 46.5099 37.8613 46.8883 32.0619Z" fill="#C8D1EA"/>
<path fill-rule="evenodd" clip-rule="evenodd" d="M59.6207 53.2077C58.9769 52.9161 58.3795 52.588 57.825 52.2285L63.1892 30.2906C63.7431 30.5474 64.385 30.835 65.0262 31.1007L59.6207 53.2077ZM61.255 29.8779L56.1136 50.9051C54.7958 49.6977 53.7995 48.2844 53.0498 46.7891L56.76 31.6153C57.8767 31.2256 59.2172 30.6268 60.1976 30.1669C60.5345 30.0089 60.8924 29.9125 61.255 29.8779Z" fill="white"/>
<path d="M50.9058 35.0454C50.9643 33.704 52.0222 32.6813 53.3442 32.4464C54.316 32.2737 55.4339 32.0409 56.331 31.7595C57.5167 31.3877 59.0882 30.6891 60.1981 30.1685C61.0608 29.7637 62.0615 29.7637 62.9243 30.1685C64.0341 30.6891 65.6057 31.3877 66.7913 31.7595C67.6884 32.0409 68.8064 32.2737 69.7781 32.4464C71.1001 32.6813 72.1581 33.704 72.2165 35.0454C72.4198 39.7121 71.7878 50.2716 62.4147 53.6497C61.8671 53.847 61.2552 53.847 60.7076 53.6497C51.3345 50.2716 50.7026 39.7121 50.9058 35.0454Z" stroke="#2571BC" stroke-width="2"/>
<defs>
<linearGradient id="paint0_linear_195_18203" x1="33.9512" y1="0" x2="33.9512" y2="56.5854" gradientUnits="userSpaceOnUse">
<stop stop-color="#9FC8F2"/>
<stop offset="1" stop-color="#2571BC" stop-opacity="0"/>
</linearGradient>
<clipPath id="clip0_195_18203">
<rect width="53.7561" height="53.7561" fill="white" transform="translate(5.6582 4.24414)"/>
</clipPath>
</defs>
</svg>
