<svg width="26" height="19" viewBox="0 0 26 19" fill="none" xmlns="http://www.w3.org/2000/svg">
<path d="M3.64812 8.27147H3.91207L4.06097 8.05353L8.8848 0.992976C8.88491 0.99282 8.88501 0.992663 8.88512 0.992507C8.989 0.841066 9.12221 0.719649 9.27276 0.63535L9.02933 0.200616L9.27276 0.635349C9.4233 0.551055 9.58811 0.50551 9.75478 0.50047C9.92142 0.495431 10.088 0.530943 10.2422 0.605694C10.3965 0.680524 10.5355 0.793347 10.6469 0.93786L10.6468 0.937955L10.6546 0.947654L11.9597 2.55614L11.961 2.55772L11.9753 2.5752C12.0942 2.73109 12.246 2.85963 12.4213 2.94948L12.6493 2.5045L12.4213 2.94948C12.6004 3.04123 12.7983 3.08966 13 3.08966C13.2017 3.08966 13.3996 3.04123 13.5787 2.94948C13.754 2.85963 13.9058 2.73109 14.0247 2.57519L14.039 2.5577L14.0403 2.55613L15.3454 0.947654L15.3455 0.947753L15.3531 0.937859C15.4645 0.793345 15.6035 0.680523 15.7578 0.605693C15.912 0.530943 16.0786 0.495431 16.2452 0.50047C16.4119 0.50551 16.5767 0.551055 16.7272 0.635349C16.8779 0.719737 17.0113 0.841318 17.1152 0.992974L21.939 8.05353L22.0879 8.27147H22.3519H25.1875C25.2602 8.27147 25.3366 8.30188 25.3979 8.36702C25.4601 8.4332 25.5 8.52913 25.5 8.63508C25.5 8.74103 25.4601 8.83696 25.3979 8.90313L25.762 9.24575L25.3979 8.90314C25.3366 8.96828 25.2602 8.99869 25.1875 8.99869H0.8125C0.739804 8.99869 0.66343 8.96828 0.602142 8.90313C0.53988 8.83696 0.5 8.74102 0.5 8.63508C0.5 8.52913 0.53988 8.4332 0.602141 8.36702C0.66343 8.30188 0.739804 8.27147 0.8125 8.27147H3.64812Z" fill="url(#paint0_linear_195_19450)" stroke="#042F6C"/>
<path d="M15.1944 15.9073L15.3083 16.2495C15.5043 16.8387 15.8476 17.3554 16.2971 17.7452C16.7463 18.1348 17.2843 18.383 17.8516 18.4666C18.4187 18.5502 18.9973 18.4668 19.5251 18.2238C20.0533 17.9806 20.5126 17.5858 20.85 17.0786C21.1876 16.5712 21.389 15.9722 21.4296 15.347C21.4702 14.7217 21.3481 14.0979 21.0784 13.5442C20.8088 12.9907 20.4033 12.5307 19.9098 12.2116L20.18 11.7936L19.9098 12.2116C19.4165 11.8926 18.8532 11.7256 18.281 11.7256L15.1944 15.9073ZM15.1944 15.9073H14.8338M15.1944 15.9073H14.8338M14.8338 15.9073H11.1654H10.8046M14.8338 15.9073H10.8046M10.8046 15.9073L10.6909 16.2496M10.8046 15.9073L10.6909 16.2496M10.6909 16.2496C10.4284 17.0398 9.90394 17.6918 9.22605 18.0876C8.54919 18.4828 7.76296 18.5978 7.01515 18.4145C6.26661 18.231 5.60012 17.759 5.14811 17.079C4.69565 16.3984 4.49249 15.5601 4.58235 14.7251C4.67219 13.8902 5.04761 13.1257 5.62908 12.5749C6.20973 12.0249 6.95484 11.7261 7.72119 11.727C8.48754 11.7279 9.23208 12.0284 9.81164 12.5798C10.392 13.1319 10.7659 13.8974 10.854 14.7325L10.9012 15.18M10.6909 16.2496L10.9012 15.18M10.9012 15.18H11.3512M10.9012 15.18H11.3512M11.3512 15.18H14.648H15.0981M11.3512 15.18H15.0981M15.0981 15.18L15.1452 14.7323M15.0981 15.18L15.1452 14.7323M15.1452 14.7323C15.2331 13.8964 15.6073 13.1303 16.1884 12.5778C16.7685 12.0261 17.5139 11.7258 18.2809 11.7256L15.1452 14.7323Z" fill="url(#paint1_linear_195_19450)" stroke="#042F6C"/>
<path fill-rule="evenodd" clip-rule="evenodd" d="M6.60475 12.5707L5.37598 16.6521C5.41682 16.7011 5.45009 16.7576 5.48366 16.8146C5.53135 16.8957 5.57966 16.9778 5.6512 17.0406C5.6964 17.0804 5.74485 17.1267 5.79507 17.1748C5.90789 17.2829 6.0297 17.3995 6.14396 17.4684L7.83351 12.2441C6.75659 12.3117 6.60658 12.5647 6.60475 12.5707ZM8.23224 12.2925L6.45085 17.6312C6.5999 17.6941 6.75548 17.7524 6.91163 17.7945L8.75479 12.407C8.60094 12.3394 8.39538 12.3065 8.23224 12.2925Z" fill="white"/>
<defs>
<linearGradient id="paint0_linear_195_19450" x1="12.9021" y1="0.816293" x2="12.9021" y2="9.469" gradientUnits="userSpaceOnUse">
<stop stop-color="#A1CCF7"/>
<stop offset="1" stop-color="#BDD7F1" stop-opacity="0"/>
</linearGradient>
<linearGradient id="paint1_linear_195_19450" x1="12.9017" y1="12.244" x2="12.9017" y2="21.3865" gradientUnits="userSpaceOnUse">
<stop offset="0.0903385" stop-color="#A1CCF7"/>
<stop offset="1" stop-color="#BDD7F1" stop-opacity="0"/>
</linearGradient>
</defs>
</svg>
