<svg width="24" height="24" viewBox="0 0 24 24" fill="none" xmlns="http://www.w3.org/2000/svg">
<rect x="0.5" y="0.5" width="20.8182" height="17.1818" rx="1.5" fill="url(#paint0_linear_195_19522)" stroke="#042F6C"/>
<path d="M2.95428 3.6361C3.33084 3.6361 3.6361 3.33084 3.6361 2.95428C3.6361 2.57772 3.33084 2.27246 2.95428 2.27246C2.57772 2.27246 2.27246 2.57772 2.27246 2.95428C2.27246 3.33084 2.57772 3.6361 2.95428 3.6361Z" fill="#4FA7FF"/>
<path d="M5.22674 3.6361C5.6033 3.6361 5.90856 3.33084 5.90856 2.95428C5.90856 2.57772 5.6033 2.27246 5.22674 2.27246C4.85018 2.27246 4.54492 2.57772 4.54492 2.95428C4.54492 3.33084 4.85018 3.6361 5.22674 3.6361Z" fill="white"/>
<path d="M7.4992 3.6361C7.87576 3.6361 8.18102 3.33084 8.18102 2.95428C8.18102 2.57772 7.87576 2.27246 7.4992 2.27246C7.12264 2.27246 6.81738 2.57772 6.81738 2.95428C6.81738 3.33084 7.12264 3.6361 7.4992 3.6361Z" fill="#4FA7FF"/>
<path fill-rule="evenodd" clip-rule="evenodd" d="M11.6548 5.05721L9.39844 13.1221C9.55773 13.3394 9.73556 13.5473 9.93193 13.7436C10.1684 13.9801 10.4215 14.1896 10.6875 14.3723L13.405 4.65918C12.808 4.69189 12.2155 4.82456 11.6548 5.05721ZM14.2195 4.67629L11.3928 14.7802C11.6329 14.8954 11.8799 14.9917 12.1314 15.0688L15.001 4.81183C14.7436 4.74717 14.4824 4.70199 14.2195 4.67629Z" fill="white"/>
<path d="M17.9355 13.6809L17.7846 13.8566L17.9484 14.0205L18.6583 14.7304L18.7833 14.8554L18.9429 14.7792C19.3571 14.5813 19.8679 14.6543 20.2105 14.9969L23.4247 18.211C23.8596 18.6459 23.8596 19.351 23.4247 19.7859C22.9898 20.2208 22.2846 20.2208 21.8497 19.7859L18.6356 16.5718C18.293 16.2292 18.22 15.7184 18.4179 15.3042L18.4941 15.1447L18.3691 15.0196L17.6592 14.3098L17.4953 14.1459L17.3195 14.2969C15.0964 16.2057 11.7424 16.1069 9.63603 14.0005C7.42601 11.7905 7.42601 8.20737 9.63603 5.99735C11.846 3.78734 15.4292 3.78734 17.6392 5.99735C19.7456 8.10372 19.8444 11.4577 17.9355 13.6809ZM17.0285 13.3898C18.9013 11.5171 18.9013 8.48078 17.0285 6.60804C15.1558 4.7353 12.1195 4.7353 10.2467 6.60804C8.37397 8.48078 8.37397 11.5171 10.2467 13.3898C12.1195 15.2626 15.1558 15.2626 17.0285 13.3898Z" fill="#C8D1EA" stroke="#042F6C" stroke-width="0.5"/>
<defs>
<linearGradient id="paint0_linear_195_19522" x1="10.9091" y1="0" x2="10.9091" y2="18.1818" gradientUnits="userSpaceOnUse">
<stop stop-color="#A3D1FF"/>
<stop offset="1" stop-color="#2571BC" stop-opacity="0"/>
</linearGradient>
</defs>
</svg>
