<svg width="24" height="24" viewBox="0 0 24 24" fill="none" xmlns="http://www.w3.org/2000/svg">
<rect x="0.5" y="3.5" width="19.16" height="15.8" rx="1.5" fill="url(#paint0_linear_195_19506)" stroke="#042F6C"/>
<path d="M12.5986 12.0835C12.7665 12.2514 12.884 12.4631 12.9376 12.6945C12.9913 12.9259 12.979 13.1676 12.9021 13.3924C12.8253 13.6171 12.6869 13.8158 12.5028 13.9658C12.3187 14.1159 12.0962 14.2113 11.8606 14.2413C11.625 14.2712 11.3857 14.2345 11.1699 14.1352C10.9541 14.036 10.7705 13.8783 10.6398 13.6799C10.5092 13.4815 10.4368 13.2505 10.4309 13.0131C10.4249 12.7756 10.4857 12.5413 10.6063 12.3367L10.7046 12.1699L10.5677 12.033L9.60912 11.0744L9.4724 10.9377L9.3057 11.0357C9.11032 11.1505 8.88778 11.2109 8.66117 11.2107L8.66075 11.2107C8.55822 11.2108 8.45605 11.1986 8.3564 11.1745L8.16894 11.1291L8.07747 11.2989L6.81254 13.6473L6.72111 13.8171L6.86207 13.9486C6.8676 13.9538 6.87224 13.9581 6.87629 13.9618C6.88564 13.9705 6.89184 13.9762 6.89862 13.983C7.07619 14.1606 7.19711 14.3869 7.24609 14.6333C7.29507 14.8796 7.2699 15.1349 7.17377 15.367C7.07764 15.599 6.91486 15.7974 6.70601 15.9369C6.49717 16.0764 6.25164 16.1509 6.00047 16.1509C5.7493 16.1509 5.50377 16.0764 5.29493 15.9369C5.08608 15.7974 4.9233 15.599 4.82717 15.367C4.73104 15.1349 4.70587 14.8796 4.75485 14.6333C4.80383 14.3869 4.92473 14.1607 5.10228 13.983C5.2568 13.8286 5.44855 13.7166 5.659 13.6579C5.86945 13.5993 6.09148 13.5959 6.30362 13.6481L6.49168 13.6944L6.58349 13.5238L7.84842 11.1745L7.93981 11.0048L7.79887 10.8732C7.7841 10.8594 7.77302 10.849 7.76279 10.8388L7.76278 10.8388C7.64481 10.7209 7.55124 10.5809 7.4874 10.4268C7.42356 10.2727 7.3907 10.1075 7.3907 9.94068C7.3907 9.77388 7.42356 9.60871 7.4874 9.45461C7.55124 9.3005 7.64481 9.16049 7.76278 9.04255L7.76305 9.04228C7.98154 8.82317 8.27251 8.69137 8.58131 8.67163C8.89011 8.65188 9.1955 8.74556 9.44012 8.93507C9.68473 9.12457 9.85175 9.39686 9.90979 9.7008C9.96784 10.0047 9.91292 10.3194 9.75536 10.5857L9.65659 10.7527L9.79374 10.8898L10.7523 11.8484L10.8888 11.9849L11.0555 11.8873C11.3419 11.7194 11.6825 11.6695 12.0051 11.7482L12.1928 11.794L12.2844 11.6238L13.5494 9.2745L13.6408 9.10475L13.4998 8.97321C13.4943 8.96804 13.4896 8.96374 13.4856 8.95999C13.4762 8.95134 13.47 8.9456 13.4633 8.93883L13.4633 8.93881C13.3453 8.82088 13.2517 8.68086 13.1879 8.52676C13.124 8.37265 13.0912 8.20748 13.0912 8.04068C13.0912 7.87388 13.124 7.70871 13.1879 7.55461C13.2517 7.4005 13.3453 7.26049 13.4633 7.14255L13.4633 7.14253C13.7015 6.90433 14.0245 6.77051 14.3614 6.77051C14.6983 6.77051 15.0214 6.90433 15.2596 7.14253C15.4978 7.38074 15.6316 7.70381 15.6316 8.04068C15.6316 8.36709 15.506 8.68054 15.2815 8.91639L15.2593 8.93864C15.1415 9.05679 15.0016 9.15048 14.8474 9.21433C14.6933 9.27818 14.5281 9.31093 14.3613 9.31068L14.3611 9.31068C14.2587 9.31063 14.1567 9.29834 14.0573 9.2741L13.8695 9.22833L13.7779 9.39846L12.513 11.7478L12.4216 11.9176L12.5625 12.0491L12.5986 12.0835Z" fill="white" stroke="#042F6C" stroke-width="0.5"/>
<path d="M14.7428 13.1243C14.7703 12.678 15.1232 12.3399 15.5647 12.2693C16.0305 12.1948 16.6267 12.0835 17.0883 11.9438C17.6599 11.7707 18.4378 11.4289 18.919 11.2076C19.1986 11.079 19.5208 11.079 19.8005 11.2076C20.2816 11.4289 21.0596 11.7707 21.6311 11.9438C22.0927 12.0835 22.689 12.1948 23.1548 12.2693C23.5962 12.3399 23.9491 12.678 23.9767 13.1243C24.0909 14.9762 23.9422 19.725 19.6373 21.1542C19.4593 21.2133 19.2602 21.2133 19.0821 21.1542C14.7772 19.725 14.6285 14.9762 14.7428 13.1243Z" fill="#C8D1EA"/>
<path fill-rule="evenodd" clip-rule="evenodd" d="M18.7514 19.723C18.6763 19.696 18.6026 19.6639 18.531 19.6266C18.4099 19.5635 18.2944 19.4961 18.1844 19.4247L19.8348 12.675C20.0401 12.6999 20.2441 12.7411 20.4446 12.7984L18.7514 19.723ZM19.201 12.6494L17.6461 19.0086C17.2317 18.6289 16.9184 18.1844 16.6826 17.7142L17.8494 12.9422C17.8907 12.9278 17.9328 12.9125 17.9757 12.8965C18.3718 12.7484 18.7854 12.6661 19.201 12.6494Z" fill="white"/>
<path d="M16.0155 14.9853C15.9588 13.9942 16.768 13.2852 17.7152 12.9881V12.9881C17.7974 12.9623 17.8855 12.9316 17.9766 12.8975C18.8692 12.5639 19.8508 12.5639 20.7434 12.8975C20.8345 12.9316 20.9226 12.9623 21.0048 12.9881V12.9881C21.952 13.2852 22.7612 13.9942 22.7045 14.9853C22.6184 16.4907 22.1293 18.6164 20.1881 19.6276C19.6719 19.8966 19.0481 19.8966 18.5319 19.6276C16.5907 18.6164 16.1016 16.4907 16.0155 14.9853Z" stroke="#2571BC" stroke-width="0.5"/>
<defs>
<linearGradient id="paint0_linear_195_19506" x1="10.08" y1="3" x2="10.08" y2="19.8" gradientUnits="userSpaceOnUse">
<stop stop-color="#9FC8F2"/>
<stop offset="1" stop-color="#2571BC" stop-opacity="0"/>
</linearGradient>
</defs>
</svg>
