<svg width="67" height="58" viewBox="0 0 67 58" fill="none" xmlns="http://www.w3.org/2000/svg">
<path d="M49.9747 38.4223L50.2265 38.5772L50.3374 38.3032C51.4705 35.5035 52.0519 32.5113 52.0496 29.491C52.0464 25.0331 50.7789 20.6675 48.3944 16.9008C46.0099 13.1342 42.6061 10.121 38.578 8.21105L37.8755 7.87795L38.2522 8.55806L38.3475 8.7301L38.3482 8.73133C38.7897 9.51792 38.9498 10.4315 38.8023 11.3213C38.6547 12.2112 38.2083 13.0242 37.5365 13.6262L37.5357 13.6269L30.4143 20.0682C30.4142 20.0683 30.4141 20.0683 30.414 20.0684C30.1852 20.2735 29.9342 20.4525 29.6658 20.6021C29.6657 20.6022 29.6656 20.6023 29.6655 20.6024L26.4242 22.391L26.4242 22.391C25.8345 22.7165 25.1722 22.8879 24.4986 22.8892H20.0765H19.9312L19.8592 23.0156L17.7895 26.6521L17.6211 26.9481L17.954 27.0201L20.0713 27.478L20.0716 27.478C20.6625 27.605 21.2165 27.8656 21.6912 28.2397C22.1658 28.6138 22.5486 29.0916 22.8101 29.6365L22.8104 29.6371L23.8162 31.7174L23.8844 31.8586H24.0412H26.3491H26.4928L26.5651 31.7345C26.9631 31.052 27.5536 30.5021 28.2628 30.1537C28.9718 29.8054 29.7678 29.6741 30.5511 29.7761C30.5512 29.7762 30.5514 29.7762 30.5515 29.7762L36.5901 30.5912L36.5902 30.5912C37.1413 30.6653 37.6706 30.8544 38.1438 31.1464L38.1441 31.1466L49.9747 38.4223ZM4.96809 29.4915L4.96809 29.4917C4.97829 35.641 7.39138 41.5429 11.6924 45.9379C15.9935 50.3329 21.8418 52.873 27.9896 53.016L28.2006 53.0209L28.2408 52.8137L28.7543 50.167L28.7791 50.0389L28.6882 49.9453L23.4981 44.599L23.4955 44.5964L23.462 44.5629C22.9351 43.991 22.5871 43.2775 22.4608 42.5103C22.3342 41.7414 22.4358 40.9523 22.753 40.2406L22.7531 40.2405L24.6666 35.945L24.8233 35.5933H24.4382H24.0472C23.2996 35.5912 22.5675 35.3802 21.9336 34.984C21.3 34.588 20.7897 34.0227 20.4602 33.3521C20.4601 33.3518 20.4599 33.3514 20.4597 33.3511L19.4522 31.2567L19.3992 31.1464L19.2795 31.1207L13.6077 29.9006L13.6075 29.9005C12.9552 29.7608 12.3485 29.4596 11.8428 29.0245C11.3372 28.5893 10.949 28.0343 10.7136 27.4101L7.71246 19.3991L7.50613 18.8483L7.25274 19.3791C5.7452 22.5369 4.96452 25.9923 4.96809 29.4915ZM13.3554 6.81256C17.8408 3.81552 23.1142 2.21585 28.5087 2.21582C35.7403 2.22349 42.6735 5.09962 47.7869 10.2131C52.9005 15.3266 55.7766 22.2599 55.7842 29.4915C55.7842 34.886 54.1845 40.1593 51.1875 44.6446C48.1904 49.1301 43.9306 52.626 38.9467 54.6904C33.9627 56.7548 28.4786 57.295 23.1877 56.2426C17.8967 55.1901 13.0367 52.5924 9.2222 48.7779C5.40766 44.9633 2.80993 40.1033 1.7575 34.8124C0.705072 29.5215 1.24522 24.0373 3.30963 19.0534C5.37404 14.0695 8.87 9.80962 13.3554 6.81256Z" fill="url(#paint0_linear_195_17886)" stroke="#042F6C" stroke-width="0.5"/>
<circle cx="29" cy="29" r="27.5" stroke="#042F6C" stroke-width="3"/>
<path d="M38.413 33.0158C38.4976 31.6772 39.5567 30.6617 40.8813 30.4508C42.3198 30.2218 44.1796 29.877 45.6154 29.4422C47.3836 28.9068 49.7953 27.8454 51.2707 27.1661C52.1095 26.7799 53.0767 26.7799 53.9155 27.1661C55.3909 27.8454 57.8026 28.9068 59.5709 29.4422C61.0066 29.877 62.8664 30.2218 64.3049 30.4508C65.6295 30.6617 66.6886 31.6772 66.7732 33.0158C67.1304 38.6697 66.7115 53.3471 53.4263 57.7434C52.892 57.9202 52.2942 57.9202 51.7599 57.7434C38.4747 53.3471 38.0558 38.6697 38.413 33.0158Z" fill="#C8D1EA"/>
<path fill-rule="evenodd" clip-rule="evenodd" d="M50.7183 53.3717C50.0963 53.09 49.5191 52.773 48.9835 52.4257L54.1657 31.2315C54.7009 31.4796 55.321 31.7574 55.9405 32.0141L50.7183 53.3717ZM52.2942 30.8447L47.33 51.1471C46.0569 49.9806 45.0944 48.6152 44.3701 47.1705L47.9545 32.5114C49.0157 32.141 50.2863 31.5752 51.2291 31.1339C51.5684 30.9751 51.929 30.8787 52.2942 30.8447Z" fill="white"/>
<path d="M42.2962 35.8995C42.3512 34.5579 43.409 33.5375 44.7305 33.3001C45.6514 33.1347 46.6971 32.9146 47.5407 32.65C48.6696 32.296 50.1607 31.6353 51.23 31.1348C52.093 30.7307 53.094 30.7307 53.9571 31.1348C55.0264 31.6353 56.5174 32.296 57.6464 32.65C58.4899 32.9146 59.5356 33.1347 60.4565 33.3001C61.7781 33.5375 62.8358 34.5579 62.8908 35.8995C63.0769 40.4404 62.425 50.5315 53.4463 53.788C52.8991 53.9864 52.288 53.9864 51.7408 53.788C42.762 50.5315 42.1102 40.4404 42.2962 35.8995Z" stroke="#2571BC" stroke-width="2"/>
<defs>
<linearGradient id="paint0_linear_195_17886" x1="13.398" y1="1.95059" x2="44.8382" y2="67.7557" gradientUnits="userSpaceOnUse">
<stop stop-color="#9FC7F0"/>
<stop offset="1" stop-color="#BDD7F1" stop-opacity="0"/>
</linearGradient>
</defs>
</svg>
