<svg width="22" height="25" viewBox="0 0 22 25" fill="none" xmlns="http://www.w3.org/2000/svg">
<path d="M1.20471 4.45524C1.20471 4.45524 4.11886 4.10466 5.98612 3.52762C7.85337 2.95057 10.7675 1.5 10.7675 1.5C10.7675 1.5 13.6817 2.95057 15.5489 3.52762C17.4162 4.10466 20.3303 4.45524 20.3303 4.45524C20.3303 4.45524 22.7751 19.9819 10.7675 23.5C-1.24002 19.9819 1.20471 4.45524 1.20471 4.45524Z" stroke="#042F6C"/>
<path d="M3.84452 6.46545C3.84452 6.46545 5.95477 6.20252 7.30693 5.76974C8.65908 5.33695 10.7693 4.24902 10.7693 4.24902C10.7693 4.24902 12.8796 5.33695 14.2317 5.76974C15.5839 6.20252 17.6941 6.46545 17.6941 6.46545C17.6941 6.46545 19.4644 18.1104 10.7693 20.749C2.07421 18.1104 3.84452 6.46545 3.84452 6.46545Z" stroke="#042F6C"/>
</svg>
