<svg width="76" height="76" viewBox="0 0 76 76" fill="none" xmlns="http://www.w3.org/2000/svg">
<g clip-path="url(#clip0_369_2782)">
<path d="M38 76C58.9868 76 76 58.9868 76 38C76 17.0132 58.9868 0 38 0C17.0132 0 0 17.0132 0 38C0 58.9868 17.0132 76 38 76Z" fill="url(#paint0_radial_369_2782)" fill-opacity="0.44"/>
<path d="M38.0014 52.5169C46.018 52.5169 52.5167 46.0182 52.5167 38.0016C52.5167 29.985 46.018 23.4863 38.0014 23.4863C29.9848 23.4863 23.4861 29.985 23.4861 38.0016C23.4861 46.0182 29.9848 52.5169 38.0014 52.5169Z" fill="url(#paint1_radial_369_2782)" fill-opacity="0.44"/>
<path fill-rule="evenodd" clip-rule="evenodd" d="M50.2675 17.2912H22.7325C19.7431 17.2912 17.3197 19.6847 17.3197 22.6373V45.3627C17.3197 48.3153 19.7431 50.7088 22.7325 50.7088H50.2675C53.2569 50.7088 55.6803 48.3153 55.6803 45.3627V22.6373C55.6803 19.6847 53.2569 17.2912 50.2675 17.2912ZM22.7325 15C18.4619 15 15 18.4193 15 22.6373V45.3627C15 49.5807 18.4619 53 22.7325 53H50.2675C54.5381 53 58 49.5807 58 45.3627V22.6373C58 18.4193 54.5381 15 50.2675 15H22.7325Z" fill="#042F6C"/>
<path d="M18 54.001L25.839 55.899C26.5179 56.0634 27 56.7096 27 57.4553C27 59.4135 25.5182 61.001 23.6903 61.001H20.7931C19.2505 61.001 18 59.6613 18 58.0087V54.001Z" fill="#042F6C"/>
<path fill-rule="evenodd" clip-rule="evenodd" d="M18 54V58.0077C18 59.6603 19.2505 61 20.7931 61H23.6903C25.5182 61 27 59.4125 27 57.4543C27 56.7086 26.5179 56.0624 25.839 55.898L18 54ZM19.1531 55.5457V58.0077C19.1531 58.9781 19.8874 59.7647 20.7931 59.7647H23.6903C24.8813 59.7647 25.8469 58.7303 25.8469 57.4543C25.8469 57.286 25.738 57.1401 25.5848 57.103L19.1531 55.5457Z" fill="#042F6C"/>
<path d="M55 54L47.161 55.898C46.4821 56.0624 46 56.7086 46 57.4543L-nan -nanL46 57.4543C46 59.4125 47.4818 61 49.3097 61H52.2069C53.7495 61 55 59.6603 55 58.0077V54Z" fill="#042F6C"/>
<path fill-rule="evenodd" clip-rule="evenodd" d="M55 54.001V58.0087C55 59.6613 53.7495 61.001 52.2069 61.001H49.3097C47.4818 61.001 46 59.4135 46 57.4553C46 56.7096 46.4821 56.0634 47.161 55.899L55 54.001ZM53.8469 55.5467V58.0087C53.8469 58.979 53.1126 59.7656 52.2069 59.7656H49.3097C48.1187 59.7656 47.1531 58.7313 47.1531 57.4553C47.1531 57.287 47.262 57.1411 47.4152 57.104L53.8469 55.5467Z" fill="#042F6C"/>
<path d="M20.4073 31.7812C21.3044 28.3705 24.3284 26 27.7824 26H46.2176C49.6716 26 52.6956 28.3705 53.5927 31.7812L55.8821 40.4849C55.9603 40.7826 56 41.0895 56 41.3977V54.4857C56 56.4266 54.4613 58 52.5632 58H21.4368C19.5387 58 18 56.4266 18 54.4857V41.3977C18 41.0895 18.0397 40.7826 18.1179 40.4849L20.4073 31.7812Z" fill="#BEDFFF"/>
<path fill-rule="evenodd" clip-rule="evenodd" d="M46.2176 28.3429H27.7824C25.3646 28.3429 23.2478 30.0022 22.6198 32.3897L20.3305 41.0934C20.3044 41.1926 20.2912 41.2949 20.2912 41.3977V54.4857C20.2912 55.1327 20.8041 55.6571 21.4368 55.6571H52.5632C53.1959 55.6571 53.7088 55.1327 53.7088 54.4857V41.3977C53.7088 41.2949 53.6956 41.1926 53.6695 41.0934L51.3802 32.3897C50.7522 30.0022 48.6354 28.3429 46.2176 28.3429ZM27.7824 26C24.3284 26 21.3044 28.3705 20.4073 31.7812L18.1179 40.4849C18.0397 40.7826 18 41.0895 18 41.3977V54.4857C18 56.4266 19.5387 58 21.4368 58H52.5632C54.4613 58 56 56.4266 56 54.4857V41.3977C56 41.0895 55.9603 40.7826 55.8821 40.4849L53.5927 31.7812C52.6956 28.3705 49.6716 26 46.2176 26H27.7824Z" fill="#042F6C"/>
<path fill-rule="evenodd" clip-rule="evenodd" d="M29.0356 31.5299L26.0947 40.5233C25.7985 41.4289 26.2526 40.1422 26.6934 40.9803V40.9803C26.7843 41.1532 27.0815 40.9291 27.2179 41.0631C27.3041 41.1478 27.3964 41.2467 27.4922 41.3493V41.3493C27.8063 41.6859 28.2868 41.5271 28.4172 41.0761L30.6563 33.3302C31.005 32.1236 29.3693 30.3187 29.0356 31.5299V31.5299ZM32.6212 31.0115C32.3402 30.9499 32.0773 31.1425 31.9914 31.4301L28.9873 41.4843C28.9036 41.7645 29.042 42.0376 29.3187 41.9957V41.9957C29.6141 41.9511 29.9276 41.7379 30.0183 41.4393L32.9719 31.7172C33.065 31.4107 32.921 31.0773 32.6212 31.0115V31.0115Z" fill="white"/>
<path d="M24.0981 33.6109C24.4615 32.0815 25.8448 31 27.4377 31H45.3488C46.8825 31 48.2297 32.0039 48.6485 33.4588L49.8676 37.6938C50.4892 39.8534 48.8443 42 46.5679 42H26.4316C24.221 42 22.5877 39.9683 23.092 37.8459L24.0981 33.6109Z" fill="#FFFEFE" fill-opacity="0.5"/>
<path fill-rule="evenodd" clip-rule="evenodd" d="M45.3488 32.1275H27.4377C26.3758 32.1275 25.4536 32.8485 25.2113 33.8681L24.2052 38.1031C23.869 39.518 24.9579 40.8725 26.4316 40.8725H46.5679C48.0855 40.8725 49.1821 39.4414 48.7677 38.0017L47.5486 33.7667C47.2694 32.7968 46.3712 32.1275 45.3488 32.1275ZM27.4377 31C25.8448 31 24.4615 32.0815 24.0981 33.6109L23.092 37.8459C22.5877 39.9683 24.221 42 26.4316 42H46.5679C48.8443 42 50.4892 39.8534 49.8676 37.6938L48.6485 33.4588C48.2297 32.0039 46.8825 31 45.3488 31H27.4377Z" fill="#042F6C"/>
<path fill-rule="evenodd" clip-rule="evenodd" d="M48 51.8042C49.0908 51.8042 49.975 50.7726 49.975 49.5C49.975 48.2274 49.0908 47.1958 48 47.1958C46.9092 47.1958 46.025 48.2274 46.025 49.5C46.025 50.7726 46.9092 51.8042 48 51.8042ZM48 53C49.6569 53 51 51.433 51 49.5C51 47.567 49.6569 46 48 46C46.3431 46 45 47.567 45 49.5C45 51.433 46.3431 53 48 53Z" fill="#042F6C"/>
<path d="M29 49.5C29 51.433 27.433 53 25.5 53C23.567 53 22 51.433 22 49.5C22 47.567 23.567 46 25.5 46C27.433 46 29 47.567 29 49.5Z" fill="white"/>
<path fill-rule="evenodd" clip-rule="evenodd" d="M25.5 51.8042C26.7726 51.8042 27.8042 50.7726 27.8042 49.5C27.8042 48.2274 26.7726 47.1958 25.5 47.1958C24.2274 47.1958 23.1958 48.2274 23.1958 49.5C23.1958 50.7726 24.2274 51.8042 25.5 51.8042ZM25.5 53C27.433 53 29 51.433 29 49.5C29 47.567 27.433 46 25.5 46C23.567 46 22 47.567 22 49.5C22 51.433 23.567 53 25.5 53Z" fill="#042F6C"/>
<path d="M31 48.3917C31 47.0708 32.0096 46 33.255 46H39.745C40.9904 46 42 47.0708 42 48.3917V50.6083C42 51.9292 40.9904 53 39.745 53H33.255C32.0096 53 31 51.9292 31 50.6083V48.3917Z" fill="white"/>
<path fill-rule="evenodd" clip-rule="evenodd" d="M39.745 47.1958H33.255C32.6323 47.1958 32.1275 47.7312 32.1275 48.3917V50.6083C32.1275 51.2688 32.6323 51.8042 33.255 51.8042H39.745C40.3677 51.8042 40.8725 51.2688 40.8725 50.6083V48.3917C40.8725 47.7312 40.3677 47.1958 39.745 47.1958ZM33.255 46C32.0096 46 31 47.0708 31 48.3917V50.6083C31 51.9292 32.0096 53 33.255 53H39.745C40.9904 53 42 51.9292 42 50.6083V48.3917C42 47.0708 40.9904 46 39.745 46H33.255Z" fill="#042F6C"/>
<path d="M38.1349 40.1229C38.1865 39.602 38.6019 39.2097 39.1243 39.1362C40.2895 38.9723 42.3679 38.642 43.8705 38.1906C45.547 37.687 47.9403 36.602 48.9822 36.1152C49.3108 35.9616 49.6892 35.9616 50.0178 36.1152C51.0597 36.602 53.453 37.687 55.1295 38.1906C56.6321 38.642 58.7105 38.9723 59.8757 39.1362C60.3981 39.2097 60.8135 39.602 60.8651 40.1229C61.2205 43.7077 61.7454 57.3084 49.831 60.9515C49.6195 61.0162 49.3805 61.0162 49.169 60.9515C37.2546 57.3084 37.7795 43.7077 38.1349 40.1229Z" fill="#C8D1EA"/>
<path fill-rule="evenodd" clip-rule="evenodd" d="M47.9379 57C47.4541 56.7891 47.0051 56.5516 46.5885 56.2916L50.6195 40.4203C51.0358 40.606 51.5182 40.8141 52 41.0063L47.9379 57ZM49.1969 40L45.3023 55.3341C44.3121 54.4606 43.5634 53.4381 43 52.3563L45.7881 41.3787C46.844 41.0239 48.1665 40.4296 48.8807 40.0973C48.982 40.0502 49.0885 40.0178 49.1969 40Z" fill="white"/>
<path fill-rule="evenodd" clip-rule="evenodd" d="M48.8124 39.1563C49.2468 38.9479 49.7532 38.9479 50.1876 39.1563C50.9874 39.5402 52.5121 40.2447 53.588 40.5798C54.5227 40.8709 55.7987 41.0946 56.6432 41.2232C57.3094 41.3246 57.8645 41.8445 57.9233 42.5469C58.0467 44.0207 58.1452 47.1638 57.1776 50.2851C56.2067 53.417 54.1491 56.5589 49.9514 57.9291C49.6616 58.0236 49.3384 58.0236 49.0486 57.9291C44.8509 56.5589 42.7933 53.417 41.8224 50.2851C40.8548 47.1638 40.9533 44.0207 41.0767 42.5469C41.1355 41.8445 41.6906 41.3246 42.3568 41.2232C43.2013 41.0946 44.4773 40.8709 45.412 40.5798C46.4879 40.2447 48.0126 39.5402 48.8124 39.1563ZM49.8539 39.842C49.6304 39.7347 49.3696 39.7347 49.1461 39.842C48.3502 40.224 46.7781 40.9524 45.6415 41.3064C44.6468 41.6162 43.3208 41.8468 42.473 41.9759C42.1215 42.0295 41.8674 42.2934 41.8409 42.61C41.7208 44.0437 41.6295 47.0748 42.5552 50.061C43.4776 53.0365 45.3965 55.9353 49.2881 57.2056C49.4223 57.2494 49.5777 57.2494 49.7119 57.2056C53.6035 55.9353 55.5224 53.0365 56.4448 50.061C57.3705 47.0748 57.2792 44.0437 57.1591 42.61C57.1326 42.2934 56.8785 42.0295 56.527 41.9759C55.6792 41.8468 54.3532 41.6162 53.3585 41.3064C52.2219 40.9524 50.6498 40.224 49.8539 39.842Z" fill="#2571BC"/>
</g>
<defs>
<radialGradient id="paint0_radial_369_2782" cx="0" cy="0" r="1" gradientUnits="userSpaceOnUse" gradientTransform="translate(38 38) rotate(90) scale(38)">
<stop offset="0.458333" stop-color="#A0D0FF"/>
<stop offset="1" stop-color="white"/>
</radialGradient>
<radialGradient id="paint1_radial_369_2782" cx="0" cy="0" r="1" gradientUnits="userSpaceOnUse" gradientTransform="translate(38.0014 38.0016) rotate(90) scale(14.5153)">
<stop offset="0.458333" stop-color="#A0D0FF"/>
<stop offset="1" stop-color="white"/>
</radialGradient>
<clipPath id="clip0_369_2782">
<rect width="76" height="76" fill="white"/>
</clipPath>
</defs>
</svg>
