<svg width="28" height="33" viewBox="0 0 28 33" fill="none" xmlns="http://www.w3.org/2000/svg">
<path d="M19.1212 5.48293L5.01144 5.34249C3.6763 5.32921 2.57476 6.3981 2.55566 7.72515L2.54774 8.27677C2.54379 8.54928 2.76289 8.77248 3.03713 8.7752C3.31129 8.77794 3.53665 8.55928 3.54063 8.28661L3.54861 7.73497C3.55986 6.95207 4.2096 6.32154 4.99722 6.32941L19.107 6.46978C19.8947 6.47765 20.5261 7.12081 20.5148 7.9037L20.5148 27.3704C20.5108 27.6429 20.7257 27.8561 21 27.8589C20.9501 27.875 21.0552 27.8594 21 27.8589C21.2891 27.8589 21.5047 27.588 21.5078 27.3704L21.5078 7.91368C21.5269 6.5867 20.4562 5.49611 19.1212 5.48293Z" fill="#042F6C"/>
<path d="M16.544 8.13184H2.42308C1.087 8.13184 0 9.21078 0 10.537V29.9812C0 31.3074 1.087 32.3865 2.42308 32.3865H16.544C17.8802 32.3865 18.9671 31.3074 18.9671 29.9812V10.537C18.967 9.21078 17.8802 8.13184 16.544 8.13184ZM17.9734 29.9812C17.9734 30.7636 17.3321 31.4001 16.544 31.4001H2.42308C1.63489 31.4001 0.993695 30.7635 0.993695 29.9812V10.537C0.993695 9.7546 1.63495 9.11816 2.42308 9.11816H16.544C17.3322 9.11816 17.9734 9.75468 17.9734 10.537V29.9812Z" fill="#042F6C"/>
<path d="M17.1804 21.7441H2.54232C2.26792 21.7441 2.04547 21.9649 2.04547 22.2373C2.04547 22.5097 2.26792 22.7305 2.54232 22.7305H17.1805C17.4549 22.7305 17.6773 22.5097 17.6773 22.2373C17.6772 21.9649 17.4548 21.7441 17.1804 21.7441Z" fill="#042F6C"/>
<path d="M14.8642 24.5645H8.7117C8.43736 24.5645 8.21484 24.7853 8.21484 25.0577C8.21484 25.33 8.43736 25.5509 8.7117 25.5509H14.8642C15.1385 25.5509 15.361 25.33 15.361 25.0577C15.361 24.7853 15.1385 24.5645 14.8642 24.5645Z" fill="#042F6C"/>
<path d="M7.05554 24.5645H4.85836C4.58396 24.5645 4.36151 24.7853 4.36151 25.0577C4.36151 25.33 4.58396 25.5509 4.85836 25.5509H7.05554C7.32995 25.5509 7.5524 25.33 7.5524 25.0577C7.5524 24.7853 7.32995 24.5645 7.05554 24.5645Z" fill="#042F6C"/>
<path d="M20.694 27H18.4968C18.2225 27 18 27.2208 18 27.4932C18 27.7655 18.2225 27.9864 18.4968 27.9864H20.694C20.9684 27.9864 21.1909 27.7655 21.1909 27.4932C21.1909 27.2208 20.9684 27 20.694 27Z" fill="#042F6C"/>
<path d="M14.8642 26.4492H4.85836C4.58396 26.4492 4.36151 26.67 4.36151 26.9423C4.36151 27.2147 4.58396 27.4355 4.85836 27.4355H14.8642C15.1385 27.4355 15.361 27.2147 15.361 26.9423C15.361 26.6699 15.1385 26.4492 14.8642 26.4492Z" fill="#042F6C"/>
<path d="M14.8642 28.334H4.85836C4.58396 28.334 4.36151 28.5548 4.36151 28.8272C4.36151 29.0996 4.58396 29.3204 4.85836 29.3204H14.8642C15.1385 29.3204 15.361 29.0996 15.361 28.8272C15.361 28.5548 15.1385 28.334 14.8642 28.334Z" fill="#042F6C"/>
<path d="M13.7453 14.9755C13.7453 17.4983 11.9414 19.8572 9.51708 20.43C7.09273 19.8572 5.28888 17.4983 5.28888 14.9755V12.9938C5.2889 12.7732 5.35139 12.5576 5.46838 12.3745C5.58538 12.1914 5.75159 12.049 5.94584 11.9655L8.58846 10.8288C9.18356 10.5727 9.85059 10.5727 10.4457 10.8288L13.0883 11.9655C13.2826 12.049 13.4488 12.1914 13.5658 12.3745C13.6828 12.5576 13.7453 12.7732 13.7453 12.9938V14.9755Z" stroke="#042F6C" stroke-linecap="round" stroke-linejoin="round"/>
<path d="M11.3333 14.8804C11.3333 16.0396 10.5275 17.1235 9.44443 17.3867C8.36139 17.1235 7.55554 16.0396 7.55554 14.8804V13.9698C7.55555 13.8684 7.58347 13.7694 7.63573 13.6852C7.688 13.6011 7.76225 13.5357 7.84903 13.4973L9.02958 12.975C9.29544 12.8573 9.59342 12.8573 9.85928 12.975L11.0398 13.4973C11.1266 13.5357 11.2009 13.6011 11.2531 13.6852C11.3054 13.7694 11.3333 13.8684 11.3333 13.9698V14.8804Z" stroke="#042F6C" stroke-linecap="round" stroke-linejoin="round"/>
</svg>
