<svg width="29" height="35" viewBox="0 0 29 35" fill="none" xmlns="http://www.w3.org/2000/svg">
<rect x="0.5" y="3.5" width="24.3618" height="31" rx="2.5" stroke="#042F6C"/>
<path d="M7.62006 9.57524C7.62006 9.57524 9.16233 9.38971 10.1505 9.08432C11.1388 8.77892 12.681 8.01123 12.681 8.01123C12.681 8.01123 14.2233 8.77892 15.2115 9.08432C16.1997 9.38971 17.742 9.57524 17.742 9.57524C17.742 9.57524 19.0358 17.7925 12.681 19.6544C6.32622 17.7925 7.62006 9.57524 7.62006 9.57524Z" stroke="#042F6C" stroke-width="0.5"/>
<path d="M9.01693 10.6393C9.01693 10.6393 10.1337 10.5002 10.8494 10.2711C11.565 10.0421 12.6818 9.46631 12.6818 9.46631C12.6818 9.46631 13.7986 10.0421 14.5142 10.2711C15.2298 10.5002 16.3466 10.6393 16.3466 10.6393C16.3466 10.6393 17.2835 16.8022 12.6818 18.1987C8.08002 16.8022 9.01693 10.6393 9.01693 10.6393Z" stroke="#042F6C" stroke-width="0.5"/>
<path d="M5.01172 22.1602H20.3508" stroke="#042F6C" stroke-linecap="round"/>
<path d="M5.70898 27.853L19.6536 27.853" stroke="#042F6C" stroke-linecap="round"/>
<path d="M5.70898 29.9883L19.6536 29.9883" stroke="#042F6C" stroke-linecap="round"/>
<path d="M5.70898 25.0073L14.773 25.0073" stroke="#042F6C" stroke-linecap="round"/>
<path d="M16.8652 25.0073H19.6542" stroke="#042F6C" stroke-linecap="round"/>
<path fill-rule="evenodd" clip-rule="evenodd" d="M8 1H26C27.1046 1 28 1.89543 28 3V28C28 29.1046 27.1046 30 26 30H25V31H26C27.6569 31 29 29.6569 29 28V3C29 1.34315 27.6569 0 26 0H8C6.34315 0 5 1.34315 5 3H6C6 1.89543 6.89543 1 8 1Z" fill="#042F6C"/>
</svg>
