<svg width="18" height="23" viewBox="0 0 18 23" fill="none" xmlns="http://www.w3.org/2000/svg">
<rect x="0.500977" y="1" width="16.4362" height="21" rx="2.5" stroke="#042F6C"/>
<path d="M5.23952 5.02057C5.23952 5.02057 6.29983 4.89302 6.97923 4.68306C7.65863 4.4731 8.71894 3.94531 8.71894 3.94531C8.71894 3.94531 9.77925 4.4731 10.4587 4.68306C11.1381 4.89302 12.1984 5.02057 12.1984 5.02057C12.1984 5.02057 13.0879 10.6699 8.71894 11.95C4.35001 10.6699 5.23952 5.02057 5.23952 5.02057Z" stroke="#042F6C" stroke-width="0.5"/>
<path d="M6.20042 5.75224C6.20042 5.75224 6.96823 5.65658 7.46021 5.49911C7.95219 5.34164 8.72 4.9458 8.72 4.9458C8.72 4.9458 9.48781 5.34164 9.97979 5.49911C10.4718 5.65658 11.2396 5.75224 11.2396 5.75224C11.2396 5.75224 11.8837 9.98926 8.72 10.9493C5.55629 9.98926 6.20042 5.75224 6.20042 5.75224Z" stroke="#042F6C" stroke-width="0.5"/>
<path d="M3.44629 13.6729H13.9919" stroke="#042F6C" stroke-linecap="round"/>
<path d="M3.92578 17.5869L13.5127 17.5869" stroke="#042F6C" stroke-linecap="round"/>
<path d="M3.92578 19.0547L13.5127 19.0547" stroke="#042F6C" stroke-linecap="round"/>
<path d="M3.92578 15.6304L10.1573 15.6304" stroke="#042F6C" stroke-linecap="round"/>
<path d="M11.5957 15.6304H13.5131" stroke="#042F6C" stroke-linecap="round"/>
</svg>
