<svg width="21" height="25" viewBox="0 0 21 25" fill="none" xmlns="http://www.w3.org/2000/svg">
<path d="M10.5 24.3846C10.5 24.3846 20 19.7077 20 12.6923V4.50769C20 4.50769 16.6735 4.1428 14.7019 3.375C12.9455 2.69097 10.5 1 10.5 1C10.5 1 8.17129 2.69232 6.48077 3.375C4.45417 4.1934 1 4.50769 1 4.50769V12.6923C1 19.7077 10.5 24.3846 10.5 24.3846Z" stroke="#042F6C" stroke-linecap="round" stroke-linejoin="round"/>
<path d="M10.5 18.5386C10.5 18.5386 15.6154 15.9078 15.6154 11.9617V7.35784C15.6154 7.35784 13.8242 7.15259 12.7626 6.7207C11.8168 6.33594 10.5 5.38477 10.5 5.38477C10.5 5.38477 9.24611 6.3367 8.33583 6.7207C7.24458 7.18105 5.38464 7.35784 5.38464 7.35784V11.9617C5.38464 15.9078 10.5 18.5386 10.5 18.5386Z" stroke="#042F6C" stroke-linecap="round" stroke-linejoin="round"/>
</svg>
