<svg width="34" height="34" viewBox="0 0 34 34" fill="none" xmlns="http://www.w3.org/2000/svg">
<path d="M29.1839 4.05628C29.3884 4.26054 29.5507 4.50317 29.6614 4.77027C29.7721 5.03738 29.8291 5.32372 29.8291 5.61291C29.8291 5.90209 29.7721 6.18843 29.6614 6.45554C29.5507 6.72264 29.3884 6.96527 29.1839 7.16953C28.771 7.58248 28.2112 7.81445 27.6275 7.81445C27.0438 7.81445 26.4839 7.58248 26.071 7.16953C25.211 6.31003 25.211 4.91578 26.071 4.05628C26.4839 3.64333 27.0438 3.41136 27.6275 3.41136C28.2112 3.41136 28.771 3.64333 29.1839 4.05628" stroke="#B1C7DF" stroke-width="0.5" stroke-linecap="round" stroke-linejoin="round"/>
<path d="M25.9365 3.86243C19.7516 -0.339631 11.2628 0.291914 5.77828 5.77117C4.3005 7.2439 3.12843 8.99424 2.32948 10.9215C1.53053 12.8488 1.12046 14.915 1.12285 17.0014C1.12285 17.9399 1.1793 18.8766 1.34512 19.8027" stroke="#B1C7DF" stroke-width="0.5" stroke-linecap="round" stroke-linejoin="round"/>
<path d="M32.654 14.199C32.8108 15.1244 32.8852 16.0619 32.8762 17.0004C32.8762 21.0648 31.3238 25.1293 28.2208 28.2306C22.738 33.7098 14.2475 34.3414 8.06256 30.1393" stroke="#B1C7DF" stroke-width="0.5" stroke-linecap="round" stroke-linejoin="round" stroke-dasharray="2 2"/>
<g clip-path="url(#clip0_195_8174)">
<mask id="mask0_195_8174" style="mask-type:luminance" maskUnits="userSpaceOnUse" x="4" y="7" width="22" height="21">
<path d="M4.24475 7H25.7559V28H4.24475V7Z" fill="white"/>
</mask>
<g mask="url(#mask0_195_8174)">
<path d="M4.78712 14.6381L5.86962 13.7248C6.00387 13.6115 6.20695 13.6259 6.32301 13.7571C6.43912 13.8882 6.42436 14.0865 6.28996 14.1998L5.20756 15.113C4.82168 15.4386 4.7791 16.0099 5.11252 16.3866L12.1434 24.3286C12.2595 24.4598 12.2448 24.658 12.1104 24.7714C12.0496 24.8227 11.9748 24.8478 11.9003 24.8478C11.8101 24.8478 11.7205 24.8109 11.6569 24.7391L4.62608 16.7969C4.06078 16.1584 4.13303 15.1899 4.78712 14.6381Z" fill="#B1C7DF"/>
<path d="M5.66716 13.8912L11.7 8.80524C12.0169 8.5379 12.4214 8.40719 12.8391 8.43672C13.2568 8.46637 13.6376 8.65312 13.9114 8.96241L14.3885 9.50136C14.5046 9.63253 14.4899 9.83072 14.3555 9.94404C14.2211 10.0574 14.0181 10.0429 13.9021 9.9118L13.425 9.37286C13.2634 9.19042 13.0387 9.08025 12.7923 9.06274C12.5459 9.04506 12.3073 9.12242 12.1204 9.28012L5.66716 14.7115C5.60639 14.7628 6.07495 14.2193 6.00049 14.2193C5.91029 14.2193 5.73071 14.4552 5.66716 14.3834C5.55109 14.2523 5.53286 14.0046 5.66716 13.8912Z" fill="#B1C7DF"/>
<path d="M9.7446 11.9201L18.4074 9.08349C19.2271 8.81509 20.1175 9.24776 20.3924 10.0479L20.5067 10.3805C20.5631 10.5448 20.4724 10.7227 20.3041 10.7778C20.1357 10.833 19.9536 10.7445 19.8971 10.5801L19.7828 10.2475C19.6206 9.77543 19.0954 9.52019 18.6118 9.67854L9.94901 12.5151C9.46544 12.6734 9.20403 13.1862 9.36625 13.6582L13.3967 25.3895C13.4532 25.5538 13.3625 25.7317 13.1942 25.7868C13.1603 25.7979 13.1258 25.8032 13.0919 25.8032C12.9575 25.8032 12.8322 25.7203 12.7872 25.5891L8.75661 13.8579C8.48175 13.0578 8.92493 12.1884 9.7446 11.9201Z" fill="#B1C7DF"/>
</g>
<mask id="mask1_195_8174" style="mask-type:luminance" maskUnits="userSpaceOnUse" x="4" y="7" width="22" height="21">
<path d="M4.24475 7H25.7559V28H4.24475V7Z" fill="white"/>
</mask>
<g mask="url(#mask1_195_8174)">
<path d="M4.78712 14.6381L5.86962 13.7248C6.00387 13.6115 6.20695 13.6259 6.32301 13.7571C6.43912 13.8882 6.42436 14.0865 6.28996 14.1998L5.20756 15.113C4.82168 15.4386 4.7791 16.0099 5.11252 16.3866L12.1434 24.3286C12.2595 24.4598 12.2448 24.658 12.1104 24.7714C12.0496 24.8227 11.9748 24.8478 11.9003 24.8478C11.8101 24.8478 11.7205 24.8109 11.6569 24.7391L4.62608 16.7969C4.06078 16.1584 4.13303 15.1899 4.78712 14.6381Z" fill="#B1C7DF"/>
<path d="M5.66716 13.8912L11.7 8.80524C12.0169 8.5379 12.4214 8.40719 12.8391 8.43672C13.2568 8.46637 13.6376 8.65312 13.9114 8.96241L14.3885 9.50136C14.5046 9.63253 14.4899 9.83072 14.3555 9.94404C14.2211 10.0574 14.0181 10.0429 13.9021 9.9118L13.425 9.37286C13.2634 9.19042 13.0387 9.08025 12.7923 9.06274C12.5459 9.04506 12.3073 9.12242 12.1204 9.28012L5.66716 14.7115C5.60639 14.7628 6.07495 14.2193 6.00049 14.2193C5.91029 14.2193 5.73071 14.4552 5.66716 14.3834C5.55109 14.2523 5.53286 14.0046 5.66716 13.8912Z" fill="#B1C7DF"/>
<path d="M9.7446 11.9201L18.4074 9.08349C19.2271 8.81509 20.1175 9.24776 20.3924 10.0479L20.5067 10.3805C20.5631 10.5448 20.4724 10.7227 20.3041 10.7778C20.1357 10.833 19.9536 10.7445 19.8971 10.5801L19.7828 10.2475C19.6206 9.77543 19.0954 9.52019 18.6118 9.67854L9.94901 12.5151C9.46544 12.6734 9.20403 13.1862 9.36625 13.6582L13.3967 25.3895C13.4532 25.5538 13.3625 25.7317 13.1942 25.7868C13.1603 25.7979 13.1258 25.8032 13.0919 25.8032C12.9575 25.8032 12.8322 25.7203 12.7872 25.5891L8.75661 13.8579C8.48175 13.0578 8.92493 12.1884 9.7446 11.9201Z" fill="#B1C7DF"/>
</g>
<path d="M15.2951 11.1328H24.4321C25.2966 11.1328 26 11.8194 26 12.6634V25.037C26 25.8809 25.2966 26.5676 24.4321 26.5676H15.295C14.4305 26.5676 13.7272 25.8809 13.7272 25.037V12.6634C13.7272 11.8194 14.4305 11.1328 15.2951 11.1328ZM14.3702 25.037C14.3702 25.5348 14.7851 25.9399 15.2951 25.9399H24.4321C24.9421 25.9399 25.357 25.5348 25.357 25.037V12.6634C25.357 12.1655 24.9421 11.7605 24.4321 11.7605H15.295C14.785 11.7605 14.3702 12.1655 14.3702 12.6634V25.037Z" fill="#B1C7DF"/>
<path d="M14.8836 19.7949H24.3553C24.5328 19.7949 24.6768 19.9354 24.6768 20.1088C24.6768 20.2821 24.5328 20.4226 24.3553 20.4226H14.8835C14.706 20.4226 14.562 20.2821 14.562 20.1088C14.5621 19.9354 14.706 19.7949 14.8836 19.7949Z" fill="#B1C7DF"/>
<path d="M16.3821 21.5898H20.3631C20.5406 21.5898 20.6846 21.7304 20.6846 21.9037C20.6846 22.077 20.5406 22.2176 20.3631 22.2176H16.3821C16.2045 22.2176 16.0606 22.077 16.0606 21.9037C16.0606 21.7304 16.2045 21.5898 16.3821 21.5898Z" fill="#B1C7DF"/>
<path d="M21.4345 21.5898H22.8562C23.0338 21.5898 23.1777 21.7304 23.1777 21.9037C23.1777 22.077 23.0338 22.2176 22.8562 22.2176H21.4345C21.257 22.2176 21.113 22.077 21.113 21.9037C21.113 21.7304 21.257 21.5898 21.4345 21.5898Z" fill="#B1C7DF"/>
<path d="M16.3819 22.79H22.8562C23.0338 22.79 23.1777 22.9305 23.1777 23.1038C23.1777 23.2772 23.0338 23.4177 22.8562 23.4177H16.3819C16.2044 23.4177 16.0604 23.2772 16.0604 23.1038C16.0604 22.9305 16.2044 22.79 16.3819 22.79Z" fill="#B1C7DF"/>
<path d="M16.3819 23.9893H22.8562C23.0338 23.9893 23.1777 24.1298 23.1777 24.3031C23.1777 24.4765 23.0338 24.617 22.8562 24.617H16.3819C16.2044 24.617 16.0604 24.4765 16.0604 24.3031C16.0604 24.1298 16.2044 23.9893 16.3819 23.9893Z" fill="#B1C7DF"/>
<path d="M17.1063 15.4876C17.1063 17.093 18.2735 18.5941 19.8422 18.9586C21.4109 18.5941 22.5781 17.093 22.5781 15.4876V14.2265C22.5781 14.0862 22.5377 13.949 22.462 13.8324C22.3863 13.7159 22.2787 13.6253 22.153 13.5721L20.4431 12.8488C20.058 12.6858 19.6264 12.6858 19.2414 12.8488L17.5314 13.5721C17.4057 13.6253 17.2982 13.7159 17.2225 13.8324C17.1468 13.949 17.1064 14.0862 17.1063 14.2265V15.4876Z" stroke="#B1C7DF" stroke-width="0.5" stroke-linecap="round" stroke-linejoin="round"/>
<path d="M18.6669 15.4269C18.6669 16.1646 19.1883 16.8544 19.8891 17.0218C20.5899 16.8544 21.1113 16.1646 21.1113 15.4269V14.8474C21.1113 14.7829 21.0933 14.7199 21.0594 14.6663C21.0256 14.6128 20.9776 14.5712 20.9214 14.5467L20.1575 14.2144C19.9855 14.1395 19.7927 14.1395 19.6207 14.2144L18.8568 14.5467C18.8006 14.5712 18.7526 14.6128 18.7188 14.6663C18.685 14.7199 18.6669 14.7829 18.6669 14.8474V15.4269Z" stroke="#B1C7DF" stroke-width="0.5" stroke-linecap="round" stroke-linejoin="round"/>
</g>
<defs>
<clipPath id="clip0_195_8174">
<rect width="22" height="21" fill="white" transform="matrix(-1 0 0 1 26 7)"/>
</clipPath>
</defs>
</svg>
