<svg width="18" height="22" viewBox="0 0 18 22" fill="none" xmlns="http://www.w3.org/2000/svg">
<path d="M15.3432 0H2.62917C1.4262 0 0.447495 0.978648 0.447495 2.18159V19.8183C0.447495 21.0213 1.4262 22 2.62917 22H15.3433C16.5463 22 17.525 21.0213 17.525 19.8183V2.18159C17.5249 0.978648 16.5463 0 15.3432 0ZM16.6303 19.8183C16.6303 20.528 16.0529 21.1053 15.3432 21.1053H2.62917C1.91951 21.1053 1.34219 20.5279 1.34219 19.8183V2.18159C1.34219 1.47192 1.91956 0.89464 2.62917 0.89464H15.3433C16.053 0.89464 16.6303 1.47199 16.6303 2.18159V19.8183Z" fill="#042F6C"/>
<path d="M15.9163 12.3467H2.73659C2.48953 12.3467 2.28925 12.547 2.28925 12.794C2.28925 13.041 2.48953 13.2414 2.73659 13.2414H15.9164C16.1635 13.2414 16.3637 13.041 16.3637 12.794C16.3637 12.547 16.1634 12.3467 15.9163 12.3467Z" fill="#042F6C"/>
<path d="M13.8309 14.9043H8.29138C8.04437 14.9043 7.84402 15.1046 7.84402 15.3517C7.84402 15.5987 8.04437 15.799 8.29138 15.799H13.8309C14.0779 15.799 14.2783 15.5987 14.2783 15.3517C14.2783 15.1046 14.0779 14.9043 13.8309 14.9043Z" fill="#042F6C"/>
<path d="M6.80007 14.9043H4.82178C4.57472 14.9043 4.37444 15.1046 4.37444 15.3517C4.37444 15.5987 4.57472 15.799 4.82178 15.799H6.80007C7.04714 15.799 7.24743 15.5987 7.24743 15.3517C7.24743 15.1046 7.04714 14.9043 6.80007 14.9043Z" fill="#042F6C"/>
<path d="M13.8308 16.6162H4.82178C4.57472 16.6162 4.37444 16.8165 4.37444 17.0635C4.37444 17.3106 4.57472 17.5108 4.82178 17.5108H13.8308C14.0778 17.5108 14.2781 17.3106 14.2781 17.0635C14.2781 16.8164 14.0778 16.6162 13.8308 16.6162Z" fill="#042F6C"/>
<path d="M13.8308 18.3242H4.82178C4.57472 18.3242 4.37444 18.5245 4.37444 18.7716C4.37444 19.0187 4.57472 19.2189 4.82178 19.2189H13.8308C14.0778 19.2189 14.2781 19.0187 14.2781 18.7716C14.2781 18.5245 14.0778 18.3242 13.8308 18.3242Z" fill="#042F6C"/>
<path d="M12.8233 6.20695C12.8233 8.49523 11.1992 10.6349 9.01636 11.1544C6.83354 10.6349 5.2094 8.49523 5.2094 6.20695V4.40948C5.20942 4.20939 5.26568 4.01383 5.37102 3.84772C5.47636 3.68161 5.62601 3.55246 5.8009 3.47673L8.18025 2.44572C8.71607 2.21341 9.31664 2.21341 9.85246 2.44572L12.2318 3.47673C12.4067 3.55246 12.5564 3.68161 12.6617 3.84772C12.767 4.01383 12.8233 4.20939 12.8233 4.40948V6.20695Z" stroke="#042F6C" stroke-linecap="round" stroke-linejoin="round"/>
<path d="M10.6517 6.12085C10.6517 7.17231 9.92612 8.15547 8.95098 8.3942C7.97584 8.15547 7.25027 7.17231 7.25027 6.12085V5.29491C7.25028 5.20297 7.27542 5.11311 7.32248 5.03678C7.36954 4.96045 7.43639 4.90111 7.51452 4.86631L8.57746 4.39256C8.81683 4.28581 9.08513 4.28581 9.3245 4.39256L10.3874 4.86631C10.4656 4.90111 10.5324 4.96045 10.5795 5.03678C10.6265 5.11311 10.6517 5.20297 10.6517 5.29491V6.12085Z" stroke="#042F6C" stroke-linecap="round" stroke-linejoin="round"/>
</svg>
