<svg width="23" height="31" viewBox="0 0 23 31" fill="none" xmlns="http://www.w3.org/2000/svg">
<path d="M20.0302 0H2.93369C1.31606 0 0 1.34286 0 2.99349V27.1939C0 28.8445 1.31606 30.1875 2.93369 30.1875H20.0303C21.648 30.1875 22.964 28.8445 22.964 27.1939V2.99349C22.9639 1.34286 21.648 0 20.0302 0ZM21.7609 27.1939C21.7609 28.1677 20.9844 28.9598 20.0302 28.9598H2.93369C1.97941 28.9598 1.2031 28.1676 1.2031 27.1939V2.99349C1.2031 2.01971 1.97948 1.22759 2.93369 1.22759H20.0303C20.9846 1.22759 21.7609 2.0198 21.7609 2.99349V27.1939Z" fill="#00B37E"/>
<path d="M20.8007 16.9424H3.07799C2.74577 16.9424 2.47644 17.2172 2.47644 17.5562C2.47644 17.8952 2.74577 18.1701 3.07799 18.1701H20.8008C21.133 18.1701 21.4023 17.8952 21.4023 17.5562C21.4023 17.2172 21.1329 16.9424 20.8007 16.9424Z" fill="#00B37E"/>
<path d="M17.9966 20.4521H10.5476C10.2154 20.4521 9.94604 20.727 9.94604 21.066C9.94604 21.4049 10.2154 21.6798 10.5476 21.6798H17.9966C18.3287 21.6798 18.5981 21.4049 18.5981 21.066C18.5981 20.727 18.3287 20.4521 17.9966 20.4521Z" fill="#00B37E"/>
<path d="M8.54238 20.4521H5.88218C5.54997 20.4521 5.28064 20.727 5.28064 21.066C5.28064 21.4049 5.54997 21.6798 5.88218 21.6798H8.54238C8.87461 21.6798 9.14394 21.4049 9.14394 21.066C9.14394 20.727 8.87461 20.4521 8.54238 20.4521Z" fill="#00B37E"/>
<path d="M17.9965 22.7979H5.88218C5.54997 22.7979 5.28064 23.0727 5.28064 23.4116C5.28064 23.7506 5.54997 24.0254 5.88218 24.0254H17.9965C18.3287 24.0254 18.598 23.7506 18.598 23.4116C18.598 23.0726 18.3287 22.7979 17.9965 22.7979Z" fill="#00B37E"/>
<path d="M17.9965 25.1445H5.88218C5.54997 25.1445 5.28064 25.4193 5.28064 25.7584C5.28064 26.0974 5.54997 26.3722 5.88218 26.3722H17.9965C18.3287 26.3722 18.598 26.0974 18.598 25.7584C18.598 25.4193 18.3287 25.1445 17.9965 25.1445Z" fill="#00B37E"/>
<path d="M16.642 8.51727C16.642 11.6572 14.458 14.5931 11.5228 15.3059C8.58754 14.5931 6.40356 11.6572 6.40356 8.51727V6.05086C6.40359 5.7763 6.47925 5.50797 6.6209 5.28004C6.76255 5.05211 6.96378 4.8749 7.19896 4.77098L10.3985 3.35627C11.119 3.03749 11.9266 3.03749 12.6471 3.35627L15.8466 4.77098C16.0817 4.8749 16.283 5.05211 16.4246 5.28004C16.5663 5.50797 16.6419 5.7763 16.642 6.05086V8.51727Z" stroke="#00B37E" stroke-linecap="round" stroke-linejoin="round"/>
<path d="M13.7217 8.39931C13.7217 9.84208 12.746 11.1911 11.4348 11.5187C10.1235 11.1911 9.14783 9.84208 9.14783 8.39931V7.26599C9.14784 7.13983 9.18164 7.01653 9.24492 6.9118C9.3082 6.80707 9.3981 6.72564 9.50316 6.67789L10.9325 6.02783C11.2544 5.88135 11.6151 5.88135 11.937 6.02783L13.3664 6.67789C13.4714 6.72564 13.5613 6.80707 13.6246 6.9118C13.6879 7.01653 13.7217 7.13983 13.7217 7.26599V8.39931Z" stroke="#00B37E" stroke-linecap="round" stroke-linejoin="round"/>
</svg>
