<svg width="226" height="226" viewBox="0 0 226 226" fill="none" xmlns="http://www.w3.org/2000/svg">
<path d="M113 226C175.408 226 226 175.408 226 113C226 50.5918 175.408 0 113 0C50.5918 0 0 50.5918 0 113C0 175.408 50.5918 226 113 226Z" fill="url(#paint0_radial_285_2257)" fill-opacity="0.44"/>
<path d="M80.7185 57.2069L28.491 104.309L84.6943 166.628L136.922 119.527L80.7185 57.2069Z" fill="url(#paint1_linear_285_2257)"/>
<path d="M80.7185 57.2069L28.491 104.309L84.6943 166.628L136.922 119.527L80.7185 57.2069Z" fill="url(#paint2_linear_285_2257)"/>
<path d="M37.973 91.5282C37.908 91.5842 37.849 91.6432 37.794 91.7062L32.51 96.2352C28.346 99.8032 27.886 106.068 31.485 110.198L75.116 160.266C75.56 160.776 76.186 161.037 76.814 161.037C77.334 161.037 77.856 160.859 78.281 160.495C79.22 159.69 79.323 158.282 78.512 157.35L34.881 107.283C32.903 105.013 33.155 101.57 35.445 99.6082L42.162 93.8512C42.293 93.7392 42.408 93.6142 42.506 93.4812L78.344 62.8392C79.454 61.8882 80.87 61.4222 82.333 61.5282C83.797 61.6342 85.13 62.2982 86.089 63.3982L89.049 66.7962C89.86 67.7262 91.276 67.8292 92.214 67.0252C93.153 66.2202 93.257 64.8122 92.445 63.8802L89.484 60.4822C87.742 58.4822 85.317 57.2752 82.659 57.0832C80.002 56.8922 77.427 57.7372 75.41 59.4662L37.973 91.5282Z" fill="#042F6C"/>
<path d="M75.116 160.266L31.485 110.198C27.886 106.068 28.346 99.8032 32.51 96.2352L37.794 91.7062C37.849 91.6432 37.908 91.5842 37.973 91.5282L75.41 59.4662C77.427 57.7372 80.002 56.8922 82.659 57.0832C85.317 57.2752 87.742 58.4822 89.484 60.4822L92.445 63.8802M75.116 160.266L75.304 160.102M75.116 160.266C75.56 160.776 76.186 161.037 76.814 161.037C77.334 161.037 77.856 160.859 78.281 160.495C79.22 159.69 79.323 158.282 78.512 157.35M78.512 157.35L78.323 157.514M78.512 157.35L34.881 107.283C32.903 105.013 33.155 101.57 35.445 99.6082M35.445 99.6082L35.282 99.4182M35.445 99.6082L42.162 93.8512C42.293 93.7392 42.408 93.6142 42.506 93.4812L78.344 62.8392C79.454 61.8882 80.87 61.4222 82.333 61.5282C83.797 61.6342 85.13 62.2982 86.089 63.3982L89.049 66.7962C89.86 67.7262 91.276 67.8292 92.214 67.0252C93.153 66.2202 93.257 64.8122 92.445 63.8802M92.445 63.8802L92.257 64.0442" stroke="#042F6C" stroke-width="0.5"/>
<path d="M128.706 62.7453L62.228 85.7012L91.2604 169.776L157.738 146.82L128.706 62.7453Z" fill="url(#paint3_linear_285_2257)"/>
<path d="M128.706 62.7453L62.228 85.7012L91.2604 169.776L157.738 146.82L128.706 62.7453Z" fill="url(#paint4_linear_285_2257)"/>
<path d="M133.889 69.48L134.598 71.576C134.993 72.745 134.358 74.008 133.183 74.399C132.009 74.789 130.737 74.163 130.342 72.995L129.632 70.898C128.67 68.054 125.553 66.513 122.682 67.469L68.9241 85.35C66.0531 86.306 64.5041 89.397 65.4651 92.239L90.4771 166.194C90.8721 167.363 90.2371 168.625 89.0621 169.016V169.017C88.8261 169.095 88.5851 169.132 88.3481 169.132C87.4121 169.132 86.5361 168.546 86.2201 167.613L61.2091 93.658C59.4581 88.482 62.2811 82.86 67.4981 81.125L121.255 63.243C126.471 61.508 132.139 64.304 133.889 69.48Z" fill="#042F6C"/>
<path d="M65.4651 92.239C64.5041 89.397 66.0531 86.306 68.9241 85.35L122.682 67.469C125.553 66.513 128.67 68.054 129.632 70.898L130.342 72.995C130.737 74.163 132.009 74.789 133.183 74.399C134.358 74.008 134.993 72.745 134.598 71.576L133.889 69.48C132.139 64.304 126.471 61.508 121.255 63.243M65.4651 92.239L65.2291 92.32M65.4651 92.239L90.4771 166.194C90.8721 167.363 90.2371 168.625 89.0621 169.016V169.017C88.8261 169.095 88.5851 169.132 88.3481 169.132C87.4121 169.132 86.5361 168.546 86.2201 167.613L61.2091 93.658C59.4581 88.482 62.2811 82.86 67.4981 81.125L121.255 63.243M121.255 63.243L121.334 63.48" stroke="#042F6C" stroke-width="0.5"/>
<path d="M167.082 84.0967H96.752V175.112H167.082V84.0967Z" fill="url(#paint5_linear_285_2257)"/>
<path d="M104.092 80.2891H160.792C166.293 80.2891 170.772 84.7271 170.772 90.1881V168.192C170.772 173.652 166.293 178.091 160.792 178.091H104.092C98.5901 178.091 94.1121 173.652 94.1121 168.192V90.1881C94.1121 84.7271 98.5901 80.2891 104.092 80.2891ZM98.6021 168.192C98.6021 171.19 101.063 173.634 104.092 173.634H160.792C163.821 173.634 166.282 171.19 166.282 168.192V90.1881C166.282 87.1891 163.821 84.7461 160.792 84.7461H104.092C101.063 84.7461 98.6021 87.1891 98.6021 90.1881V168.192Z" fill="#042F6C"/>
<path d="M104.092 80.2891H160.792C166.293 80.2891 170.772 84.7271 170.772 90.1881V168.192C170.772 173.652 166.293 178.091 160.792 178.091H104.092C98.5901 178.091 94.1121 173.652 94.1121 168.192V90.1881C94.1121 84.7271 98.5901 80.2891 104.092 80.2891ZM98.6021 168.192C98.6021 171.19 101.063 173.634 104.092 173.634H160.792C163.821 173.634 166.282 171.19 166.282 168.192V90.1881C166.282 87.1891 163.821 84.7461 160.792 84.7461H104.092C101.063 84.7461 98.6021 87.1891 98.6021 90.1881V168.192Z" stroke="#042F6C" stroke-width="0.5"/>
<path d="M104.092 80.2891H160.792C166.293 80.2891 170.772 84.7271 170.772 90.1881V168.192C170.772 173.652 166.293 178.091 160.792 178.091H104.092C98.5901 178.091 94.1121 173.652 94.1121 168.192V90.1881C94.1121 84.7271 98.5901 80.2891 104.092 80.2891ZM98.6021 168.192C98.6021 171.19 101.063 173.634 104.092 173.634H160.792C163.821 173.634 166.282 171.19 166.282 168.192V90.1881C166.282 87.1891 163.821 84.7461 160.792 84.7461H104.092C101.063 84.7461 98.6021 87.1891 98.6021 90.1881V168.192Z" stroke="#042F6C" stroke-width="0.5"/>
<path d="M109.983 137.976H155.49" stroke="#042F6C" stroke-linecap="round"/>
<path d="M112.051 154.524H153.422" stroke="#042F6C" stroke-linecap="round"/>
<path d="M112.051 160.731H153.422" stroke="#042F6C" stroke-linecap="round"/>
<path d="M112.051 146.253H138.942" stroke="#042F6C" stroke-linecap="round"/>
<path d="M145.148 146.253H153.422" stroke="#042F6C" stroke-linecap="round"/>
<path d="M113.401 98.3792C113.51 97.0422 114.566 96.0292 115.893 95.8312C117.946 95.5232 121.003 94.9972 123.284 94.3062C125.941 93.5022 129.649 91.8382 131.6 90.9292C132.437 90.5392 133.402 90.5392 134.239 90.9292C136.19 91.8382 139.898 93.5022 142.555 94.3062C144.836 94.9972 147.893 95.5232 149.947 95.8312C151.273 96.0292 152.33 97.0422 152.438 98.3792C153.015 105.469 153.139 127.313 133.757 133.488C133.221 133.659 132.618 133.659 132.082 133.488C112.701 127.313 112.824 105.469 113.401 98.3792Z" fill="#C8D1EA"/>
<path fill-rule="evenodd" clip-rule="evenodd" d="M130.334 127.352C129.475 126.964 128.678 126.526 127.939 126.047L135.095 96.7803C135.834 97.1223 136.69 97.5063 137.545 97.8603L130.334 127.352ZM132.543 96.1123L125.655 124.281C123.897 122.671 122.568 120.786 121.568 118.792L126.518 98.5453C128.19 97.9613 130.237 97.0273 131.56 96.3973C131.873 96.2483 132.206 96.1533 132.543 96.1123Z" fill="white"/>
<path d="M118.746 102.362C118.83 101.022 119.886 99.9984 121.21 99.7794C122.649 99.5424 124.508 99.1854 125.943 98.7354C127.696 98.1854 130.081 97.1004 131.56 96.3964C132.42 95.9864 133.42 95.9864 134.281 96.3964C135.759 97.1004 138.144 98.1854 139.898 98.7354C141.333 99.1854 143.192 99.5424 144.63 99.7794C145.955 99.9984 147.01 101.022 147.095 102.362C147.46 108.158 147.095 123.453 133.78 128.036C133.229 128.226 132.611 128.226 132.061 128.036C118.746 123.453 118.381 108.158 118.746 102.362Z" stroke="#2571BC" stroke-width="2"/>
<path d="M186.399 34.6034C187.626 35.8284 188.6 37.2844 189.264 38.8874C189.929 40.4904 190.271 42.2094 190.271 43.9444C190.271 45.6804 189.929 47.3984 189.264 49.0014C188.6 50.6044 187.626 52.0604 186.399 53.2864C183.921 55.7644 180.561 57.1564 177.058 57.1564C173.555 57.1564 170.195 55.7644 167.717 53.2864C162.556 48.1284 162.556 39.7614 167.717 34.6034C170.195 32.1244 173.555 30.7324 177.058 30.7324C180.561 30.7324 183.921 32.1244 186.399 34.6034Z" stroke="#9FCFFF" stroke-width="2" stroke-linecap="round" stroke-linejoin="round"/>
<path d="M166.912 33.4347C129.795 8.21767 78.8521 12.0077 45.9381 44.8897C37.0701 53.7277 30.0361 64.2327 25.2411 75.7987C20.4471 87.3647 17.9861 99.7647 18.0001 112.285C18.0001 117.917 18.3391 123.539 19.3341 129.097" stroke="#9FCFFF" stroke-width="3" stroke-linecap="round" stroke-linejoin="round"/>
<path d="M207.226 95.4727C208.168 101.026 208.614 106.652 208.56 112.285C208.56 136.676 199.244 161.068 180.622 179.68C147.719 212.562 96.7649 216.352 59.6479 191.134" stroke="#9FCFFF" stroke-width="3" stroke-linecap="round" stroke-linejoin="round" stroke-dasharray="6 6"/>
<defs>
<radialGradient id="paint0_radial_285_2257" cx="0" cy="0" r="1" gradientUnits="userSpaceOnUse" gradientTransform="translate(113 113) rotate(90) scale(113)">
<stop offset="0.458333" stop-color="#A0D0FF"/>
<stop offset="1" stop-color="white"/>
</radialGradient>
<linearGradient id="paint1_linear_285_2257" x1="29.2214" y1="105.646" x2="109.618" y2="116.14" gradientUnits="userSpaceOnUse">
<stop offset="0.119792" stop-color="#9ECFFF"/>
<stop offset="1" stop-color="white" stop-opacity="0"/>
</linearGradient>
<linearGradient id="paint2_linear_285_2257" x1="29.2214" y1="105.646" x2="109.618" y2="116.14" gradientUnits="userSpaceOnUse">
<stop offset="0.119792" stop-color="#9ECFFF"/>
<stop offset="1" stop-color="white" stop-opacity="0"/>
</linearGradient>
<linearGradient id="paint3_linear_285_2257" x1="62.4071" y1="87.3013" x2="135.84" y2="127.638" gradientUnits="userSpaceOnUse">
<stop offset="0.119792" stop-color="#9ECFFF"/>
<stop offset="1" stop-color="white" stop-opacity="0"/>
</linearGradient>
<linearGradient id="paint4_linear_285_2257" x1="62.4071" y1="87.3013" x2="135.84" y2="127.638" gradientUnits="userSpaceOnUse">
<stop offset="0.119792" stop-color="#9ECFFF"/>
<stop offset="1" stop-color="white" stop-opacity="0"/>
</linearGradient>
<linearGradient id="paint5_linear_285_2257" x1="131.917" y1="84.0967" x2="131.917" y2="175.112" gradientUnits="userSpaceOnUse">
<stop offset="0.119792" stop-color="#9ECFFF"/>
<stop offset="1" stop-color="white" stop-opacity="0"/>
</linearGradient>
</defs>
</svg>
