<svg width="38" height="38" viewBox="0 0 38 38" fill="none" xmlns="http://www.w3.org/2000/svg">
<path fill-rule="evenodd" clip-rule="evenodd" d="M29.1342 1.89272H6.38771C3.91823 1.89272 1.91631 3.86998 1.91631 6.30906V25.0824C1.91631 27.5215 3.91823 29.4987 6.38771 29.4987H29.1342C31.6037 29.4987 33.6056 27.5215 33.6056 25.0824V6.30907C33.6056 3.86999 31.6037 1.89272 29.1342 1.89272ZM6.38771 0C2.85988 0 0 2.82466 0 6.30906V25.0824C0 28.5668 2.85988 31.3914 6.38771 31.3914H29.1342C32.662 31.3914 35.5219 28.5668 35.5219 25.0824V6.30907C35.5219 2.82466 32.662 0 29.1342 0H6.38771Z" fill="#042F6C"/>
<path d="M2.47852 32.2183L8.95422 33.7862C9.51507 33.922 9.91333 34.4559 9.91333 35.0718C9.91333 36.6895 8.68923 38.0009 7.17923 38.0009H4.78587C3.51156 38.0009 2.47852 36.8942 2.47852 35.529V32.2183Z" fill="#042F6C"/>
<path fill-rule="evenodd" clip-rule="evenodd" d="M2.47852 32.2183V35.529C2.47852 36.8942 3.51156 38.0009 4.78587 38.0009H7.17923C8.68923 38.0009 9.91333 36.6895 9.91333 35.0718C9.91333 34.4559 9.51507 33.922 8.95422 33.7862L2.47852 32.2183ZM3.4311 33.4952V35.529C3.4311 36.3306 4.03765 36.9804 4.78587 36.9804H7.17923C8.16313 36.9804 8.96075 36.1259 8.96075 35.0718C8.96075 34.9328 8.87084 34.8123 8.74422 34.7816L3.4311 33.4952Z" fill="#042F6C"/>
<path d="M33.043 32.2183L26.5673 33.7862C26.0064 33.922 25.6082 34.4559 25.6082 35.0718L-nan -nanL25.6082 35.0718C25.6082 36.6895 26.8323 38.0009 28.3423 38.0009H30.7356C32.0099 38.0009 33.043 36.8942 33.043 35.529V32.2183Z" fill="#042F6C"/>
<path fill-rule="evenodd" clip-rule="evenodd" d="M33.0422 32.2183V35.529C33.0422 36.8942 32.0092 38.0009 30.7349 38.0009H28.3415C26.8315 38.0009 25.6074 36.6895 25.6074 35.0718C25.6074 34.4559 26.0057 33.922 26.5665 33.7862L33.0422 32.2183ZM32.0897 33.4952V35.529C32.0897 36.3306 31.4831 36.9804 30.7349 36.9804H28.3415C27.3576 36.9804 26.56 36.1259 26.56 35.0718C26.56 34.9328 26.6499 34.8123 26.7765 34.7816L32.0897 33.4952Z" fill="#042F6C"/>
<path d="M4.46715 13.8632C5.20824 11.0456 7.70639 9.0874 10.5597 9.0874H25.7888C28.6421 9.0874 31.1402 11.0456 31.8813 13.8632L33.7725 21.0533C33.8372 21.2991 33.87 21.5527 33.87 21.8073V32.6192C33.87 34.2225 32.5989 35.5223 31.0309 35.5223H5.31759C3.74961 35.5223 2.47852 34.2225 2.47852 32.6192V21.8073C2.47852 21.5527 2.51127 21.2991 2.57595 21.0533L4.46715 13.8632Z" fill="#BEDFFF"/>
<path fill-rule="evenodd" clip-rule="evenodd" d="M25.7888 11.0228H10.5597C8.56238 11.0228 6.81367 12.3936 6.29491 14.3658L4.40371 21.5559C4.38215 21.6379 4.37124 21.7224 4.37124 21.8073V32.6192C4.37124 33.1536 4.79493 33.5869 5.31759 33.5869H31.0309C31.5535 33.5869 31.9772 33.1536 31.9772 32.6192V21.8073C31.9772 21.7224 31.9663 21.6379 31.9448 21.5559L30.0536 14.3658C29.5348 12.3936 27.7861 11.0228 25.7888 11.0228ZM10.5597 9.0874C7.70639 9.0874 5.20824 11.0456 4.46715 13.8632L2.57595 21.0533C2.51127 21.2991 2.47852 21.5527 2.47852 21.8073V32.6192C2.47852 34.2225 3.74961 35.5223 5.31759 35.5223H31.0309C32.5989 35.5223 33.87 34.2225 33.87 32.6192V21.8073C33.87 21.5527 33.8372 21.2991 33.7725 21.0533L31.8813 13.8632C31.1402 11.0456 28.6421 9.0874 25.7888 9.0874H10.5597Z" fill="#042F6C"/>
<path fill-rule="evenodd" clip-rule="evenodd" d="M11.5936 13.655L9.16414 21.0844C8.9195 21.8325 9.29457 20.7695 9.65873 21.4619V21.4619C9.73384 21.6047 9.97936 21.4196 10.092 21.5303C10.1632 21.6003 10.2395 21.682 10.3186 21.7667V21.7667C10.5781 22.0448 10.975 21.9137 11.0827 21.5411L12.9324 15.1422C13.2206 14.1455 11.8693 12.6544 11.5936 13.655V13.655ZM14.5556 13.2268C14.3235 13.1759 14.1063 13.335 14.0353 13.5726L11.5537 21.8783C11.4846 22.1097 11.5989 22.3353 11.8275 22.3008V22.3008C12.0715 22.2639 12.3305 22.0878 12.4054 21.8411L14.8454 13.8098C14.9223 13.5566 14.8034 13.2811 14.5556 13.2268V13.2268Z" fill="white"/>
<path d="M7.51555 15.3741C7.81573 14.1107 8.95847 13.2173 10.2744 13.2173H25.0706C26.3375 13.2173 27.4504 14.0466 27.7964 15.2485L28.8034 18.747C29.317 20.531 27.9581 22.3043 26.0776 22.3043H9.44319C7.61709 22.3043 6.2678 20.6259 6.68436 18.8726L7.51555 15.3741Z" fill="#FFFEFE" fill-opacity="0.5"/>
<path fill-rule="evenodd" clip-rule="evenodd" d="M25.0706 14.1487H10.2744C9.3971 14.1487 8.63528 14.7443 8.43516 15.5866L7.60397 19.0851C7.32627 20.254 8.22579 21.3729 9.44319 21.3729H26.0776C27.3313 21.3729 28.2372 20.1907 27.8948 19.0013L26.8878 15.5028C26.6571 14.7016 25.9152 14.1487 25.0706 14.1487ZM10.2744 13.2173C8.95847 13.2173 7.81573 14.1107 7.51555 15.3741L6.68436 18.8726C6.2678 20.6259 7.61709 22.3043 9.44319 22.3043H26.0776C27.9581 22.3043 29.317 20.531 28.8034 18.747L27.7964 15.2485C27.4504 14.0466 26.3375 13.2173 25.0706 13.2173H10.2744Z" fill="#042F6C"/>
<path fill-rule="evenodd" clip-rule="evenodd" d="M27.2585 30.4037C28.1596 30.4037 28.8901 29.5515 28.8901 28.5002C28.8901 27.449 28.1596 26.5968 27.2585 26.5968C26.3575 26.5968 25.627 27.449 25.627 28.5002C25.627 29.5515 26.3575 30.4037 27.2585 30.4037ZM27.2585 31.3915C28.6273 31.3915 29.7368 30.097 29.7368 28.5002C29.7368 26.9034 28.6273 25.6089 27.2585 25.6089C25.8898 25.6089 24.7803 26.9034 24.7803 28.5002C24.7803 30.097 25.8898 31.3915 27.2585 31.3915Z" fill="#042F6C"/>
<path d="M11.5639 28.5002C11.5639 30.097 10.2694 31.3915 8.67257 31.3915C7.07574 31.3915 5.78125 30.097 5.78125 28.5002C5.78125 26.9034 7.07574 25.6089 8.67257 25.6089C10.2694 25.6089 11.5639 26.9034 11.5639 28.5002Z" fill="white"/>
<path fill-rule="evenodd" clip-rule="evenodd" d="M8.67257 30.4037C9.72381 30.4037 10.576 29.5515 10.576 28.5002C10.576 27.449 9.72381 26.5968 8.67257 26.5968C7.62132 26.5968 6.76912 27.449 6.76912 28.5002C6.76912 29.5515 7.62132 30.4037 8.67257 30.4037ZM8.67257 31.3915C10.2694 31.3915 11.5639 30.097 11.5639 28.5002C11.5639 26.9034 10.2694 25.6089 8.67257 25.6089C7.07574 25.6089 5.78125 26.9034 5.78125 28.5002C5.78125 30.097 7.07574 31.3915 8.67257 31.3915Z" fill="#042F6C"/>
<path d="M13.2158 27.5846C13.2158 26.4935 14.0498 25.6089 15.0787 25.6089H20.44C21.4688 25.6089 22.3028 26.4935 22.3028 27.5846V29.4158C22.3028 30.507 21.4688 31.3915 20.44 31.3915H15.0787C14.0498 31.3915 13.2158 30.507 13.2158 29.4158V27.5846Z" fill="white"/>
<path fill-rule="evenodd" clip-rule="evenodd" d="M20.44 26.5968H15.0787C14.5642 26.5968 14.1472 27.039 14.1472 27.5846V29.4158C14.1472 29.9614 14.5642 30.4037 15.0787 30.4037H20.44C20.9544 30.4037 21.3714 29.9614 21.3714 29.4158V27.5846C21.3714 27.039 20.9544 26.5968 20.44 26.5968ZM15.0787 25.6089C14.0498 25.6089 13.2158 26.4935 13.2158 27.5846V29.4158C13.2158 30.507 14.0498 31.3915 15.0787 31.3915H20.44C21.4688 31.3915 22.3028 30.507 22.3028 29.4158V27.5846C22.3028 26.4935 21.4688 25.6089 20.44 25.6089H15.0787Z" fill="#042F6C"/>
<rect x="18" y="12.8647" width="19.0247" height="24.3517" rx="3" fill="white"/>
<path d="M34.6629 12.8647H20.4405C19.0948 12.8647 18 13.9595 18 15.3052V35.0343C18 36.3799 19.0948 37.4748 20.4405 37.4748H34.663C36.0088 37.4748 37.1035 36.3799 37.1035 35.0343V15.3052C37.1034 13.9595 36.0088 12.8647 34.6629 12.8647ZM36.1027 35.0343C36.1027 35.8281 35.4567 36.4739 34.6629 36.4739H20.4405C19.6466 36.4739 19.0008 35.8281 19.0008 35.0343V15.3052C19.0008 14.5113 19.6467 13.8655 20.4405 13.8655H34.663C35.4569 13.8655 36.1027 14.5114 36.1027 15.3052V35.0343Z" fill="#042F6C"/>
<path d="M33.9255 23.186H21.0843C20.8436 23.186 20.6484 23.3907 20.6484 23.6431C20.6484 23.8955 20.8436 24.1002 21.0843 24.1002H33.9255C34.1663 24.1002 34.3614 23.8955 34.3614 23.6431C34.3613 23.3907 34.1662 23.186 33.9255 23.186Z" fill="#042F6C"/>
<path d="M27.7584 17.7012H21.7659C21.6536 17.7012 21.5625 17.9058 21.5625 18.1583C21.5625 18.4107 21.6536 18.6154 21.7659 18.6154H27.7585C27.8708 18.6154 27.9619 18.4107 27.9619 18.1583C27.9619 17.9058 27.8708 17.7012 27.7584 17.7012Z" fill="#042F6C"/>
<path d="M33.3306 17.7012H29.9063C29.8421 17.7012 29.79 17.9058 29.79 18.1583C29.79 18.4107 29.8421 18.6154 29.9063 18.6154H33.3306C33.3948 18.6154 33.4468 18.4107 33.4468 18.1583C33.4468 17.9058 33.3948 17.7012 33.3306 17.7012Z" fill="#042F6C"/>
<path d="M33.0693 20.4434H21.9402C21.7316 20.4434 21.5625 20.648 21.5625 20.9005C21.5625 21.1528 21.7316 21.3576 21.9402 21.3576H33.0693C33.278 21.3576 33.4471 21.1528 33.4471 20.9005C33.447 20.648 33.2779 20.4434 33.0693 20.4434Z" fill="#042F6C"/>
<path d="M33.0693 25.9287H21.9402C21.7316 25.9287 21.5625 26.1333 21.5625 26.3858C21.5625 26.6382 21.7316 26.8429 21.9402 26.8429H33.0693C33.278 26.8429 33.4471 26.6382 33.4471 26.3858C33.447 26.1333 33.2779 25.9287 33.0693 25.9287Z" fill="#042F6C"/>
<path d="M33.0693 28.6714H21.9402C21.7316 28.6714 21.5625 28.876 21.5625 29.1285C21.5625 29.3809 21.7316 29.5856 21.9402 29.5856H33.0693C33.278 29.5856 33.4471 29.3809 33.4471 29.1285C33.447 28.876 33.2779 28.6714 33.0693 28.6714Z" fill="#042F6C"/>
<path d="M33.0693 31.4141H21.9402C21.7316 31.4141 21.5625 31.6187 21.5625 31.8712C21.5625 32.1236 21.7316 32.3283 21.9402 32.3283H33.0693C33.278 32.3283 33.4471 32.1236 33.4471 31.8712C33.447 31.6187 33.2779 31.4141 33.0693 31.4141Z" fill="#042F6C"/>
</svg>
