<svg width="337" height="55" viewBox="0 0 337 55" fill="none" xmlns="http://www.w3.org/2000/svg">
<path d="M214.608 33.1715C214.608 34.2454 214.466 35.2147 214.181 36.0794C213.91 36.9302 213.547 37.6833 213.092 38.3388C212.636 38.9943 212.102 39.5522 211.49 40.0125C210.877 40.4727 210.244 40.8493 209.589 41.1422C208.934 41.4351 208.264 41.6512 207.581 41.7907C206.912 41.9302 206.278 41.9999 205.68 41.9999H184.256V36.5606H205.68C206.748 36.5606 207.574 36.2538 208.158 35.6401C208.756 35.0264 209.055 34.2036 209.055 33.1715C209.055 32.6694 208.976 32.2091 208.82 31.7907C208.663 31.3723 208.435 31.0097 208.136 30.7029C207.851 30.396 207.495 30.1589 207.068 29.9916C206.655 29.8242 206.192 29.7405 205.68 29.7405H192.907C192.01 29.7405 191.042 29.5871 190.002 29.2803C188.963 28.9595 187.994 28.4504 187.097 27.7531C186.214 27.0557 185.474 26.1422 184.876 25.0125C184.292 23.8828 184 22.5021 184 20.8703C184 19.2385 184.292 17.8647 184.876 16.7489C185.474 15.6192 186.214 14.7057 187.097 14.0084C187.994 13.2971 188.963 12.788 190.002 12.4812C191.042 12.1604 192.01 12 192.907 12H211.81V17.4393H192.907C191.853 17.4393 191.027 17.7531 190.429 18.3807C189.845 19.0083 189.553 19.8382 189.553 20.8703C189.553 21.9163 189.845 22.7461 190.429 23.3598C191.027 23.9595 191.853 24.2594 192.907 24.2594H205.723C206.321 24.2733 206.954 24.357 207.624 24.5104C208.293 24.6499 208.955 24.873 209.61 25.1799C210.279 25.4867 210.913 25.8772 211.511 26.3514C212.109 26.8117 212.636 27.3696 213.092 28.0251C213.561 28.6806 213.932 29.4337 214.202 30.2845C214.473 31.1352 214.608 32.0976 214.608 33.1715Z" fill="#51A6E3"/>
<path fill-rule="evenodd" clip-rule="evenodd" d="M205.723 24.2594C206.321 24.2733 206.954 24.357 207.624 24.5104C208.293 24.6499 208.955 24.873 209.61 25.1799C210.279 25.4867 210.913 25.8772 211.511 26.3514C212.109 26.8117 212.636 27.3696 213.092 28.0251C213.561 28.6806 213.932 29.4337 214.202 30.2845C214.473 31.1352 214.608 32.0976 214.608 33.1715C214.608 34.2454 214.466 35.2147 214.181 36.0794C213.91 36.9302 213.547 37.6833 213.092 38.3388C212.636 38.9943 212.102 39.5522 211.49 40.0125C210.877 40.4727 210.244 40.8493 209.589 41.1422C208.934 41.4351 208.264 41.6512 207.581 41.7907C206.912 41.9302 206.278 41.9999 205.68 41.9999H184.256V36.5606H205.68C206.748 36.5606 207.574 36.2538 208.158 35.6401C208.756 35.0264 209.055 34.2036 209.055 33.1715C209.055 32.6694 208.976 32.2091 208.82 31.7907C208.663 31.3723 208.435 31.0097 208.136 30.7029C207.851 30.396 207.495 30.1589 207.068 29.9916C206.655 29.8242 206.192 29.7405 205.68 29.7405H192.907C192.01 29.7405 191.042 29.5871 190.002 29.2803C188.963 28.9595 187.994 28.4504 187.097 27.7531C186.214 27.0557 185.474 26.1422 184.876 25.0125C184.292 23.8828 184 22.5021 184 20.8703C184 19.2385 184.292 17.8647 184.876 16.7489C185.474 15.6192 186.214 14.7057 187.097 14.0084C187.994 13.2971 188.963 12.788 190.002 12.4812C191.042 12.1604 192.01 12 192.907 12H211.81V17.4393H192.907C191.853 17.4393 191.027 17.7531 190.429 18.3807C189.845 19.0083 189.553 19.8382 189.553 20.8703C189.553 21.9163 189.845 22.7461 190.429 23.3598C191.027 23.9595 191.853 24.2594 192.907 24.2594H205.723ZM190.787 23.0109C191.27 23.4921 191.954 23.7594 192.907 23.7594H205.734C206.369 23.7742 207.035 23.8628 207.73 24.022C208.438 24.1697 209.134 24.4051 209.82 24.7262C210.526 25.0498 211.192 25.4606 211.819 25.9574C212.458 26.4496 213.018 27.0438 213.5 27.7367C214.003 28.4384 214.394 29.2387 214.679 30.1329C214.968 31.0415 215.108 32.0562 215.108 33.1715C215.108 34.2883 214.96 35.3108 214.657 36.2335C214.373 37.1253 213.989 37.9238 213.502 38.6242C213.017 39.3216 212.447 39.9186 211.79 40.4122C211.15 40.8934 210.484 41.2895 209.793 41.5986C209.106 41.9058 208.402 42.1334 207.682 42.2804C206.984 42.4257 206.316 42.4999 205.68 42.4999H183.756V36.0606H205.68C206.649 36.0606 207.329 35.7854 207.795 35.2955L207.799 35.2911C208.288 34.7893 208.555 34.1016 208.555 33.1715C208.555 32.7219 208.485 32.3219 208.351 31.966C208.218 31.6097 208.027 31.3069 207.778 31.0518L207.77 31.0431C207.541 30.7965 207.25 30.5997 206.886 30.4571L206.88 30.455C206.535 30.3152 206.138 30.2405 205.68 30.2405H192.907C191.953 30.2405 190.937 30.0775 189.86 29.7598L189.855 29.7581C188.755 29.4187 187.733 28.8806 186.79 28.1479L186.787 28.1455C185.843 27.3996 185.06 26.4292 184.434 25.2465L184.432 25.2421C183.802 24.0242 183.5 22.56 183.5 20.8703C183.5 19.1809 183.802 17.7224 184.433 16.5171L184.434 16.515C185.06 15.3324 185.843 14.3622 186.787 13.6163C187.73 12.8683 188.754 12.3285 189.857 12.0025C190.934 11.6706 191.951 11.5 192.907 11.5H212.31V17.9393H192.907C191.96 17.9393 191.277 18.2171 190.793 18.7235C190.314 19.2402 190.053 19.9386 190.053 20.8703C190.053 21.817 190.314 22.5112 190.787 23.0109Z" fill="#042F6C"/>
<path d="M66.2374 29.7868H75.3244C79.3158 29.7868 82.2991 28.8288 84.2886 27.1644C86.2837 25.4953 87.25 23.1402 87.25 20.4154C87.25 17.6711 86.2815 15.4866 84.2773 13.9976C82.2859 12.5181 79.3048 11.75 75.3244 11.75H60H59.75V12V42V42.25H60H65.9874H66.2374V42V29.7868ZM75.2914 24.4338H66.2374V17.1029H75.2914C77.0941 17.1029 78.4052 17.2249 79.2664 17.6944C79.6867 17.9236 79.9985 18.2355 80.2086 18.6646C80.421 19.0983 80.5366 19.6664 80.5366 20.4154C80.5366 21.8881 80.0817 22.8697 79.2373 23.4951C78.3768 24.1324 77.0684 24.4338 75.2914 24.4338Z" fill="#373435" stroke="#373435" stroke-width="0.5"/>
<path d="M103.28 34.3248L103.706 34.5768L114.516 21.39L114.631 21.2497L114.534 21.0968L113.128 18.899L112.931 18.5906L112.715 18.8866C112.176 19.6278 111.659 20.3275 111.163 21.0001C107.986 25.3055 105.63 28.4971 103.28 34.3248Z" fill="#373435" stroke="#373435" stroke-width="0.5"/>
<path d="M103.63 27.2752L103.631 27.2735C103.631 27.2734 103.631 27.2733 103.631 27.2732C104.461 25.5526 105.569 23.2728 106.469 21.423C106.919 20.4981 107.318 19.6807 107.604 19.0946L107.853 18.5836C107.91 18.6876 107.978 18.8096 108.054 18.9482C108.329 19.4461 108.718 20.1575 109.175 21.0114C110.09 22.7195 111.277 24.9962 112.369 27.273L112.37 27.2752L116.254 35.1708L118.58 39.8995L119.331 41.426L119.54 41.8507L119.595 41.9622L119.609 41.9908L119.612 41.998L119.613 41.9998L119.613 42.0003C119.613 42.0004 119.614 42.0005 119.838 41.8901L119.614 42.0005L119.682 42.1401H119.838H126H126.406L126.223 41.7776L111.166 11.8875L111.097 11.75H110.943H105.001H104.847L104.777 11.8882L89.7764 41.8882L89.5955 42.25H90H96.3784H96.5369L96.6045 42.1067L96.3784 42C96.6045 42.1067 96.6045 42.1066 96.6046 42.1065L96.6048 42.1061L96.6056 42.1042L96.6091 42.0969L96.6227 42.0681L96.6757 41.9557L96.8777 41.5275L97.6041 39.9886C98.2083 38.7089 99.0211 36.9878 99.8557 35.2223C101.526 31.6896 103.281 27.9836 103.63 27.2752Z" fill="#373435" stroke="#373435" stroke-width="0.5"/>
<path d="M165.667 11.75H165.511L165.442 11.8911L154.5 34.5078L143.596 11.8914L143.528 11.75H143.371H135H134.75V12V42V42.25H135H140.525H140.775V42V20.6143V19.8298L151.554 42.1089L151.623 42.25H151.78H157.259H157.417L157.485 42.1069L168.008 19.8526V20.913V42V42.25H168.258H174H174.25V42V12V11.75H174H165.667Z" fill="#373435" stroke="#373435" stroke-width="0.5"/>
<g clip-path="url(#clip0_24_400)">
<g filter="url(#filter0_i_24_400)">
<path d="M24.2222 0V9.90909L12.3418 15.0321C12.1957 15.0948 12.1938 15.1609 12.336 15.2303L39.4995 28.3598L48.4444 32.8734V42.9311L24.2222 54.2523C24.2222 50.7841 24.1261 47.6594 24.2222 44.5909C24.2049 44.467 24.2222 44.0955 24.2222 44.0955L36.9447 38.4572C36.9653 38.4477 36.9827 38.4336 36.995 38.4165C37.0073 38.3993 37.0141 38.3797 37.0147 38.3595C37.0153 38.3394 37.0097 38.3195 36.9984 38.3018C36.9871 38.2842 36.9705 38.2694 36.9504 38.259L8.92762 24.6984L0 19.9965V10.786L24.2222 0Z" fill="#DFECF8"/>
</g>
<g filter="url(#filter1_i_24_400)">
<path d="M24.2222 0C31.5619 3.37239 39.6071 6.74148 46.9391 10.1073C47.6658 10.4409 48.1675 10.9743 48.4444 11.7076V32.8734L39.4994 28.3598L39.5052 18.089C39.5052 17.6399 39.3637 17.1992 39.0956 16.8136C38.8275 16.4281 38.4429 16.1121 37.9827 15.8991C33.788 13.947 28.6552 11.8942 24.2222 9.90909V0Z" fill="#51A6E3"/>
</g>
<g filter="url(#filter2_i_24_400)">
<path d="M0 19.9965L8.92762 24.6984C8.943 28.2524 8.94492 31.8115 8.93339 35.3754C8.92762 36.7875 9.25058 37.3919 10.6347 38.0558C16.7979 41.0054 22.096 43.111 24.2222 44.0953C24.2222 44.0953 24.2222 50.7839 24.2222 54.2521C23.3571 54.0043 22.8727 53.7139 22.4805 53.5289C15.7291 50.3547 8.96991 47.1953 2.20307 44.0508C1.03041 43.5058 0.296049 42.8403 0 42.0542V19.9965Z" fill="#51A6E3"/>
</g>
<path d="M12.158 15.1111L23.6092 10.1686C23.8588 10.0609 24.1415 10.0594 24.3922 10.1645L37.6601 15.7285C38.7746 16.1959 39.4999 17.2864 39.4999 18.495L39.5 28.6569L12.158 15.1111Z" stroke="url(#paint0_linear_24_400)" stroke-width="0.5"/>
<path d="M37.43 38.6323L25.1001 43.9525C24.85 44.0604 24.5666 44.0616 24.3155 43.9558L10.8347 38.2734C9.72287 37.8047 8.99999 36.7155 8.99998 35.5089L8.99988 25L37.43 38.6323Z" stroke="url(#paint1_linear_24_400)" stroke-width="0.5"/>
</g>
<path d="M294.343 41.4104L294.343 41.4105L294.349 41.4055C294.632 41.1312 294.852 40.8108 295.01 40.4461C295.168 40.0779 295.246 39.6814 295.246 39.2593V12V11.75H294.996H289.376H289.126V12V36.3106H279.498C279.336 36.3106 278.98 36.2906 278.418 36.2488C277.888 36.1946 277.262 36.0724 276.537 35.8798C275.835 35.6897 275.088 35.3966 274.293 34.9982C273.514 34.6077 272.795 34.0679 272.135 33.3757C271.483 32.69 270.936 31.8316 270.499 30.7954C270.083 29.7739 269.87 28.5114 269.87 27V12V11.75H269.62H264H263.75V12V27C263.75 28.7776 263.969 30.3993 264.409 31.8628L264.409 31.8634C264.848 33.3072 265.449 34.5993 266.213 35.7376L266.213 35.7376L266.215 35.7407C266.992 36.8616 267.895 37.8348 268.923 38.6594C269.947 39.4805 271.038 40.1607 272.195 40.6994L272.198 40.7009C273.367 41.2243 274.574 41.6135 275.817 41.8683C277.057 42.1225 278.284 42.2499 279.498 42.2499H292.164C292.584 42.2499 292.983 42.1745 293.36 42.0226C293.732 41.8726 294.061 41.6688 294.343 41.4104Z" fill="#373435" stroke="#373435" stroke-width="0.5"/>
<path d="M332.455 41.575L332.455 41.575L332.458 41.5735C333.348 41.1141 334.075 40.5431 334.633 39.8577C335.199 39.1789 335.605 38.4391 335.846 37.6388C336.097 36.8527 336.224 36.1092 336.224 35.41V34.364C336.224 33.2849 336.1 32.2926 335.848 31.3889C335.598 30.4912 335.258 29.6822 334.827 28.9635C334.398 28.248 333.895 27.6165 333.316 27.0702C332.822 26.593 332.294 26.1758 331.731 25.8193C332.4 24.8727 332.894 23.8746 333.209 22.8251L333.21 22.8243C333.546 21.6901 333.717 20.6268 333.717 19.636V18.6109C333.717 17.3671 333.481 16.2985 332.995 15.4163C332.533 14.5519 331.942 13.8472 331.22 13.3076C330.519 12.7601 329.757 12.3623 328.935 12.1161C328.123 11.8734 327.357 11.75 326.637 11.75H307.832C307.399 11.75 306.992 11.8249 306.614 11.9773C306.239 12.1285 305.909 12.3411 305.626 12.6153L305.626 12.6153L305.621 12.6204C305.354 12.8942 305.142 13.213 304.987 13.5748C304.829 13.9418 304.75 14.3312 304.75 14.7406V39.2593C304.75 39.6814 304.828 40.0779 304.987 40.4461C305.142 40.8078 305.354 41.1266 305.621 41.4005L305.626 41.4056L305.631 41.4104C305.914 41.6688 306.242 41.8726 306.614 42.0226C306.992 42.175 307.399 42.2499 307.832 42.2499H329.166C330.447 42.2499 331.547 42.0291 332.455 41.575ZM329.777 32.5537L329.778 32.5557C329.994 33.0784 330.104 33.6797 330.104 34.364V35.3681C330.104 35.6411 330.063 35.8262 330.003 35.9438C329.929 36.0857 329.856 36.1621 329.793 36.2002C329.712 36.2492 329.619 36.2802 329.509 36.2908C329.37 36.3043 329.256 36.3106 329.166 36.3106H310.87V29.9905H311H325.534C326.244 29.9905 326.876 30.0982 327.435 30.3091L327.435 30.3092L327.439 30.3109C327.999 30.5091 328.472 30.7978 328.862 31.1754C329.253 31.5541 329.559 32.0123 329.777 32.5537ZM310.87 24.0094V17.6893H326.637C326.987 17.6893 327.204 17.777 327.335 17.9087C327.466 18.0405 327.554 18.2587 327.554 18.6109V19.636C327.554 20.3201 327.443 20.9292 327.226 21.4671L327.225 21.4703C327.022 21.9955 326.724 22.4459 326.333 22.8245C325.942 23.2027 325.469 23.4987 324.908 23.7108C324.349 23.9084 323.716 24.0094 323.005 24.0094H311H310.87Z" fill="#373435" stroke="#373435" stroke-width="0.5"/>
<path d="M248.354 11.75H248.104V12V24.0094H228.87V12V11.75H228.62H223H222.75V12V41.9999V42.2499H223H228.62H228.87V41.9999V29.9905H248.104V41.9999V42.2499H248.354H253.974H254.224V41.9999V12V11.75H253.974H248.354Z" fill="#373435" stroke="#373435" stroke-width="0.5"/>
<defs>
<filter id="filter0_i_24_400" x="0" y="0" width="48.4443" height="54.2523" filterUnits="userSpaceOnUse" color-interpolation-filters="sRGB">
<feFlood flood-opacity="0" result="BackgroundImageFix"/>
<feBlend mode="normal" in="SourceGraphic" in2="BackgroundImageFix" result="shape"/>
<feColorMatrix in="SourceAlpha" type="matrix" values="0 0 0 0 0 0 0 0 0 0 0 0 0 0 0 0 0 0 127 0" result="hardAlpha"/>
<feOffset/>
<feGaussianBlur stdDeviation="2"/>
<feComposite in2="hardAlpha" operator="arithmetic" k2="-1" k3="1"/>
<feColorMatrix type="matrix" values="0 0 0 0 0 0 0 0 0 0 0 0 0 0 0 0 0 0 0.25 0"/>
<feBlend mode="normal" in2="shape" result="effect1_innerShadow_24_400"/>
</filter>
<filter id="filter1_i_24_400" x="24.2222" y="0" width="26.2222" height="32.8734" filterUnits="userSpaceOnUse" color-interpolation-filters="sRGB">
<feFlood flood-opacity="0" result="BackgroundImageFix"/>
<feBlend mode="normal" in="SourceGraphic" in2="BackgroundImageFix" result="shape"/>
<feColorMatrix in="SourceAlpha" type="matrix" values="0 0 0 0 0 0 0 0 0 0 0 0 0 0 0 0 0 0 127 0" result="hardAlpha"/>
<feOffset dx="2"/>
<feGaussianBlur stdDeviation="2"/>
<feComposite in2="hardAlpha" operator="arithmetic" k2="-1" k3="1"/>
<feColorMatrix type="matrix" values="0 0 0 0 0 0 0 0 0 0 0 0 0 0 0 0 0 0 0.25 0"/>
<feBlend mode="normal" in2="shape" result="effect1_innerShadow_24_400"/>
</filter>
<filter id="filter2_i_24_400" x="0" y="19.9965" width="24.2222" height="36.2556" filterUnits="userSpaceOnUse" color-interpolation-filters="sRGB">
<feFlood flood-opacity="0" result="BackgroundImageFix"/>
<feBlend mode="normal" in="SourceGraphic" in2="BackgroundImageFix" result="shape"/>
<feColorMatrix in="SourceAlpha" type="matrix" values="0 0 0 0 0 0 0 0 0 0 0 0 0 0 0 0 0 0 127 0" result="hardAlpha"/>
<feOffset dy="2"/>
<feGaussianBlur stdDeviation="2"/>
<feComposite in2="hardAlpha" operator="arithmetic" k2="-1" k3="1"/>
<feColorMatrix type="matrix" values="0 0 0 0 0 0 0 0 0 0 0 0 0 0 0 0 0 0 0.25 0"/>
<feBlend mode="normal" in2="shape" result="effect1_innerShadow_24_400"/>
</filter>
<linearGradient id="paint0_linear_24_400" x1="30.6147" y1="23.975" x2="39.6147" y2="28.975" gradientUnits="userSpaceOnUse">
<stop offset="0.204838" stop-color="#042F6C"/>
<stop offset="1" stop-color="#042F6C" stop-opacity="0"/>
</linearGradient>
<linearGradient id="paint1_linear_24_400" x1="17.6569" y1="29.2394" x2="8.06195" y2="23.8565" gradientUnits="userSpaceOnUse">
<stop offset="0.204838" stop-color="#042F6C"/>
<stop offset="1" stop-color="#042F6C" stop-opacity="0"/>
</linearGradient>
<clipPath id="clip0_24_400">
<rect width="48.4444" height="54.5" fill="white"/>
</clipPath>
</defs>
</svg>
