<svg width="442" height="442" viewBox="0 0 442 442" fill="none" xmlns="http://www.w3.org/2000/svg">
<circle cx="221" cy="221" r="221" fill="url(#paint0_radial_366_2571)" fill-opacity="0.44"/>
<circle cx="222" cy="220" r="76" fill="url(#paint1_radial_366_2571)" fill-opacity="0.44"/>
<path d="M157 171C157 168.239 159.239 166 162 166H280.574C283.335 166 285.574 168.239 285.574 171V268.145C285.574 270.906 283.335 273.145 280.574 273.145H162C159.239 273.145 157 270.906 157 268.145V171Z" fill="url(#paint2_linear_366_2571)"/>
<path fill-rule="evenodd" clip-rule="evenodd" d="M163 172V267.145H279.574V172H163ZM162 166C159.239 166 157 168.239 157 171V268.145C157 270.906 159.239 273.145 162 273.145H280.574C283.335 273.145 285.574 270.906 285.574 268.145V171C285.574 168.239 283.335 166 280.574 166H162Z" fill="#042F6C"/>
<path d="M174.411 187.427C176.63 187.427 178.429 185.629 178.429 183.41C178.429 181.19 176.63 179.392 174.411 179.392C172.192 179.392 170.393 181.19 170.393 183.41C170.393 185.629 172.192 187.427 174.411 187.427Z" fill="#4FA7FF"/>
<path d="M187.804 187.427C190.023 187.427 191.822 185.629 191.822 183.41C191.822 181.19 190.023 179.392 187.804 179.392C185.585 179.392 183.786 181.19 183.786 183.41C183.786 185.629 185.585 187.427 187.804 187.427Z" fill="white"/>
<path d="M201.197 187.427C203.416 187.427 205.215 185.629 205.215 183.41C205.215 181.19 203.416 179.392 201.197 179.392C198.978 179.392 197.179 181.19 197.179 183.41C197.179 185.629 198.978 187.427 201.197 187.427Z" fill="#4FA7FF"/>
<path fill-rule="evenodd" clip-rule="evenodd" d="M225.675 195.811L212.379 243.338C213.317 244.618 214.365 245.843 215.523 247C216.916 248.393 218.408 249.628 219.975 250.705L235.989 193.466C232.471 193.659 228.98 194.44 225.675 195.811ZM240.789 193.569L224.131 253.111C225.546 253.79 227.001 254.357 228.484 254.812L245.394 194.368C243.877 193.987 242.338 193.72 240.789 193.569Z" fill="white"/>
<path fill-rule="evenodd" clip-rule="evenodd" d="M263.804 247.587C275.55 233.906 274.943 213.269 261.981 200.308C248.382 186.709 226.334 186.709 212.736 200.308C199.137 213.906 199.137 235.954 212.736 249.553C225.697 262.515 246.334 263.122 260.015 251.376L264.199 255.559C262.772 258.546 263.296 262.232 265.77 264.706L284.71 283.646C287.848 286.785 292.936 286.785 296.075 283.646C299.213 280.508 299.213 275.42 296.075 272.282L277.134 253.341C274.66 250.867 270.974 250.344 267.987 251.771L263.804 247.587ZM256.299 243.871C266.76 233.41 266.76 216.45 256.299 205.99C245.838 195.529 228.878 195.529 218.418 205.99C207.957 216.45 207.957 233.41 218.418 243.871C228.878 254.332 245.838 254.332 256.299 243.871Z" fill="#C8D1EA"/>
<path fill-rule="evenodd" clip-rule="evenodd" d="M263.122 247.613L263.424 247.262C275.002 233.778 274.403 213.436 261.628 200.661C248.224 187.258 226.493 187.258 213.089 200.661C199.685 214.065 199.685 235.796 213.089 249.2C225.864 261.975 246.206 262.574 259.69 250.996L260.041 250.694L264.802 255.455L264.65 255.774C263.312 258.576 263.804 262.033 266.123 264.352L285.064 283.293C288.007 286.236 292.778 286.236 295.721 283.293C298.664 280.35 298.664 275.579 295.721 272.636L276.78 253.695C274.461 251.375 271.004 250.883 268.202 252.222L267.883 252.374L263.122 247.613ZM256.653 205.636C267.309 216.292 267.309 233.569 256.653 244.225C245.997 254.881 228.72 254.881 218.064 244.225C207.408 233.569 207.408 216.292 218.064 205.636C228.72 194.98 245.997 194.98 256.653 205.636ZM267.987 251.771C270.974 250.344 274.66 250.867 277.134 253.341L296.075 272.282C299.213 275.42 299.213 280.508 296.075 283.646C292.936 286.785 287.848 286.785 284.71 283.646L265.77 264.706C263.296 262.232 262.772 258.546 264.199 255.559L260.015 251.376C246.334 263.122 225.697 262.515 212.736 249.553C199.137 235.954 199.137 213.906 212.736 200.308C226.334 186.709 248.382 186.709 261.981 200.308C274.943 213.269 275.55 233.906 263.804 247.587L267.987 251.771ZM256.299 205.99C266.76 216.45 266.76 233.41 256.299 243.871C245.838 254.332 228.878 254.332 218.418 243.871C207.957 233.41 207.957 216.45 218.418 205.99C228.878 195.529 245.838 195.529 256.299 205.99Z" fill="#042F6C"/>
<defs>
<radialGradient id="paint0_radial_366_2571" cx="0" cy="0" r="1" gradientUnits="userSpaceOnUse" gradientTransform="translate(221 221) rotate(90) scale(221)">
<stop offset="0.458333" stop-color="#A0D0FF"/>
<stop offset="1" stop-color="white"/>
</radialGradient>
<radialGradient id="paint1_radial_366_2571" cx="0" cy="0" r="1" gradientUnits="userSpaceOnUse" gradientTransform="translate(222 220) rotate(90) scale(76)">
<stop offset="0.458333" stop-color="#A0D0FF"/>
<stop offset="1" stop-color="white"/>
</radialGradient>
<linearGradient id="paint2_linear_366_2571" x1="221.287" y1="166" x2="221.287" y2="273.145" gradientUnits="userSpaceOnUse">
<stop stop-color="#A3D1FF"/>
<stop offset="1" stop-color="#2571BC" stop-opacity="0"/>
</linearGradient>
</defs>
</svg>
