<svg width="442" height="442" viewBox="0 0 442 442" fill="none" xmlns="http://www.w3.org/2000/svg">
<circle cx="221" cy="221" r="221" fill="url(#paint0_radial_366_2697)" fill-opacity="0.44"/>
<circle cx="222" cy="220" r="76" fill="url(#paint1_radial_366_2697)" fill-opacity="0.44"/>
<path d="M308.541 215.537C308.541 216.984 307.966 218.371 306.943 219.394C305.92 220.417 304.533 220.992 303.086 220.992H139.454C138.008 220.992 136.62 220.417 135.598 219.394C134.575 218.371 134 216.984 134 215.537C134 214.091 134.575 212.703 135.598 211.68C136.62 210.658 138.008 210.083 139.454 210.083H158.49L190.876 165.486C191.857 164.139 193.134 163.034 194.609 162.257C196.084 161.48 197.717 161.052 199.383 161.004C201.05 160.957 202.705 161.292 204.221 161.984C205.738 162.676 207.076 163.706 208.132 164.996L216.893 175.154L217.03 175.311C217.537 175.949 218.182 176.464 218.916 176.818C219.651 177.172 220.455 177.356 221.27 177.356C222.086 177.356 222.89 177.172 223.624 176.818C224.359 176.464 225.004 175.949 225.511 175.311L225.648 175.154L234.409 164.996C235.465 163.706 236.803 162.676 238.32 161.984C239.836 161.292 241.491 160.957 243.157 161.004C244.824 161.052 246.457 161.48 247.932 162.257C249.407 163.034 250.684 164.139 251.665 165.486L284.051 210.083H303.086C304.533 210.083 305.92 210.658 306.943 211.68C307.966 212.703 308.541 214.091 308.541 215.537Z" fill="url(#paint2_linear_366_2697)"/>
<path fill-rule="evenodd" clip-rule="evenodd" d="M162.341 214.992H280.2L246.815 169.019C246.815 169.019 246.815 169.019 246.815 169.019C246.373 168.413 245.799 167.915 245.135 167.566C244.471 167.216 243.737 167.023 242.987 167.002C242.237 166.981 241.492 167.131 240.81 167.443C240.127 167.754 239.525 168.218 239.05 168.798L239.002 168.857L230.183 179.082L230.109 179.168C229.054 180.456 227.731 181.499 226.23 182.223C224.683 182.968 222.988 183.356 221.27 183.356C219.553 183.356 217.858 182.968 216.311 182.223C214.81 181.499 213.487 180.456 212.432 179.168L212.358 179.082L203.539 168.857L203.491 168.798C203.015 168.218 202.413 167.754 201.731 167.443C201.049 167.131 200.304 166.981 199.554 167.002C198.804 167.023 198.069 167.216 197.406 167.566C196.743 167.915 196.169 168.411 195.728 169.016C195.727 169.017 195.726 169.018 195.726 169.019L162.341 214.992ZM190.876 165.486L158.49 210.083H139.454C138.008 210.083 136.62 210.658 135.598 211.68C134.575 212.703 134 214.091 134 215.537C134 216.984 134.575 218.371 135.598 219.394C136.62 220.417 138.008 220.992 139.454 220.992H303.086C304.533 220.992 305.92 220.417 306.943 219.394C307.966 218.371 308.541 216.984 308.541 215.537C308.541 214.091 307.966 212.703 306.943 211.68C305.92 210.658 304.533 210.083 303.086 210.083H284.051L251.665 165.486C250.684 164.139 249.407 163.034 247.932 162.257C246.457 161.48 244.824 161.052 243.157 161.004C241.491 160.957 239.836 161.292 238.32 161.984C236.803 162.676 235.465 163.706 234.409 164.996L225.648 175.154L225.511 175.311C225.004 175.949 224.359 176.464 223.624 176.818C222.89 177.172 222.086 177.356 221.27 177.356C220.455 177.356 219.651 177.172 218.916 176.818C218.182 176.464 217.537 175.949 217.03 175.311L216.893 175.154L208.132 164.996C207.076 163.706 205.738 162.676 204.221 161.984C202.705 161.292 201.05 160.957 199.383 161.004C197.717 161.052 196.084 161.48 194.609 162.257C193.134 163.034 191.857 164.139 190.876 165.486Z" fill="#042F6C"/>
<path d="M240.364 238.153C244.863 234.128 250.687 231.903 256.724 231.901C261.224 231.901 265.637 233.138 269.481 235.477C273.326 237.816 276.453 241.166 278.522 245.162C280.591 249.159 281.521 253.647 281.211 258.136C280.901 262.625 279.364 266.943 276.766 270.617C274.168 274.291 270.61 277.18 266.48 278.969C262.351 280.757 257.81 281.376 253.353 280.758C248.896 280.14 244.694 278.308 241.207 275.464C237.721 272.619 235.084 268.87 233.584 264.628H208.957C206.949 270.315 202.917 275.064 197.63 277.967C192.344 280.871 186.174 281.727 180.297 280.372C174.42 279.016 169.247 275.545 165.767 270.619C162.287 265.693 160.742 259.658 161.427 253.666C162.112 247.674 164.98 242.143 169.483 238.131C173.986 234.118 179.808 231.904 185.84 231.91C191.871 231.917 197.689 234.144 202.183 238.166C206.677 242.189 209.532 247.725 210.205 253.719H232.336C233.007 247.72 235.865 242.178 240.364 238.153Z" fill="url(#paint3_linear_366_2697)"/>
<path fill-rule="evenodd" clip-rule="evenodd" d="M237.824 258.628H237.826L239.24 262.628C240.374 265.833 242.366 268.665 245.001 270.815C247.635 272.964 250.809 274.348 254.177 274.815C257.545 275.282 260.976 274.815 264.096 273.463C267.215 272.112 269.904 269.929 271.867 267.153C273.829 264.377 274.991 261.115 275.225 257.723C275.459 254.331 274.757 250.94 273.194 247.921C271.631 244.901 269.268 242.37 266.363 240.603C263.459 238.836 260.125 237.901 256.725 237.901M237.824 258.628L238.299 254.386C238.806 249.853 240.965 245.666 244.364 242.625C247.763 239.584 252.163 237.903 256.724 237.901M204.718 258.628L204.242 254.388C203.734 249.859 201.577 245.676 198.181 242.637C194.786 239.598 190.39 237.915 185.833 237.91C181.276 237.905 176.877 239.578 173.475 242.61C170.073 245.642 167.906 249.82 167.388 254.348C166.87 258.875 168.038 263.435 170.667 267.156C173.297 270.878 177.205 273.501 181.645 274.525C186.086 275.549 190.748 274.903 194.742 272.709C198.736 270.515 201.782 266.927 203.299 262.63L204.713 258.628H204.718ZM256.724 231.901C250.687 231.903 244.863 234.128 240.364 238.153C235.865 242.178 233.007 247.72 232.336 253.719H210.205C209.532 247.725 206.677 242.189 202.183 238.166C197.689 234.144 191.871 231.917 185.84 231.91C179.808 231.904 173.986 234.118 169.483 238.131C164.98 242.143 162.112 247.674 161.427 253.666C160.742 259.658 162.287 265.693 165.767 270.619C169.247 275.545 174.42 279.016 180.297 280.372C186.174 281.727 192.344 280.871 197.63 277.967C202.917 275.064 206.949 270.315 208.957 264.628H233.584C235.084 268.87 237.721 272.619 241.207 275.464C244.694 278.308 248.896 280.14 253.353 280.758C257.81 281.376 262.351 280.757 266.48 278.969C270.61 277.18 274.168 274.291 276.766 270.617C279.364 266.943 280.901 262.625 281.211 258.136C281.521 253.647 280.591 249.159 278.522 245.162C276.453 241.166 273.326 237.816 269.481 235.477C265.637 233.138 261.224 231.901 256.724 231.901Z" fill="#042F6C"/>
<path fill-rule="evenodd" clip-rule="evenodd" d="M178.338 240.394L170.089 266.172C170.363 266.481 170.586 266.838 170.811 267.198C171.132 267.71 171.456 268.229 171.936 268.626C172.24 268.877 172.565 269.17 172.902 269.473C173.659 270.156 174.477 270.892 175.244 271.327L186.586 238.332C179.357 238.759 178.35 240.357 178.338 240.394ZM189.265 238.639L177.306 272.358C178.307 272.755 179.351 273.123 180.4 273.389L192.773 239.362C191.74 238.935 190.36 238.728 189.265 238.639Z" fill="white"/>
<defs>
<radialGradient id="paint0_radial_366_2697" cx="0" cy="0" r="1" gradientUnits="userSpaceOnUse" gradientTransform="translate(221 221) rotate(90) scale(221)">
<stop offset="0.458333" stop-color="#A0D0FF"/>
<stop offset="1" stop-color="white"/>
</radialGradient>
<radialGradient id="paint1_radial_366_2697" cx="0" cy="0" r="1" gradientUnits="userSpaceOnUse" gradientTransform="translate(222 220) rotate(90) scale(76)">
<stop offset="0.458333" stop-color="#A0D0FF"/>
<stop offset="1" stop-color="white"/>
</radialGradient>
<linearGradient id="paint2_linear_366_2697" x1="220.613" y1="166.156" x2="220.613" y2="220.804" gradientUnits="userSpaceOnUse">
<stop stop-color="#A1CCF7"/>
<stop offset="1" stop-color="#BDD7F1" stop-opacity="0"/>
</linearGradient>
<linearGradient id="paint3_linear_366_2697" x1="220.613" y1="238.334" x2="220.613" y2="296.076" gradientUnits="userSpaceOnUse">
<stop offset="0.0903385" stop-color="#A1CCF7"/>
<stop offset="1" stop-color="#BDD7F1" stop-opacity="0"/>
</linearGradient>
</defs>
</svg>
