<svg width="442" height="442" viewBox="0 0 442 442" fill="none" xmlns="http://www.w3.org/2000/svg">
<circle cx="221" cy="221" r="221" fill="url(#paint0_radial_366_2621)" fill-opacity="0.44"/>
<circle cx="222" cy="220" r="76" fill="url(#paint1_radial_366_2621)" fill-opacity="0.44"/>
<path d="M222.5 158C210.336 158 198.446 161.607 188.332 168.365C178.219 175.122 170.336 184.727 165.681 195.965C161.027 207.203 159.809 219.568 162.182 231.498C164.555 243.428 170.412 254.386 179.013 262.987C187.614 271.588 198.572 277.445 210.502 279.818C222.432 282.191 234.797 280.973 246.035 276.319C257.273 271.664 266.878 263.781 273.635 253.668C280.393 243.554 284 231.664 284 219.5C283.983 203.194 277.498 187.562 265.968 176.032C254.438 164.502 238.806 158.017 222.5 158ZM274.538 219.5C274.544 226.176 273.259 232.79 270.754 238.979L244.321 222.723C243.197 222.029 241.94 221.58 240.631 221.404L227.136 219.583C225.277 219.34 223.387 219.652 221.704 220.479C220.021 221.306 218.619 222.611 217.675 224.231H212.518L210.271 219.583C209.65 218.289 208.741 217.154 207.613 216.265C206.486 215.376 205.17 214.757 203.766 214.456L199.035 213.433L203.66 205.308H213.541C215.14 205.305 216.712 204.898 218.112 204.125L225.356 200.127C225.993 199.773 226.588 199.348 227.13 198.862L243.043 184.469C244.639 183.039 245.699 181.108 246.05 178.994C246.4 176.881 246.02 174.711 244.971 172.843L244.758 172.458C253.663 176.681 261.187 183.341 266.458 191.668C271.73 199.995 274.531 209.645 274.538 219.5ZM170.462 219.5C170.454 211.765 172.179 204.127 175.512 197.147L182.218 215.047C182.776 216.529 183.698 217.847 184.899 218.88C186.099 219.914 187.54 220.629 189.089 220.961L201.762 223.687L204.015 228.37C204.796 229.963 206.008 231.306 207.513 232.246C209.018 233.187 210.755 233.687 212.53 233.692H213.405L209.13 243.29C208.376 244.98 208.135 246.854 208.436 248.679C208.736 250.505 209.566 252.202 210.821 253.562L210.904 253.644L222.5 265.59L221.353 271.503C207.763 271.187 194.834 265.572 185.326 255.856C175.818 246.141 170.484 233.094 170.462 219.5Z" fill="url(#paint2_linear_366_2621)"/>
<path fill-rule="evenodd" clip-rule="evenodd" d="M270.996 239.715L244.059 223.149C242.995 222.492 241.803 222.066 240.564 221.9L227.072 220.079C227.071 220.079 227.072 220.079 227.072 220.079C225.31 219.849 223.519 220.144 221.924 220.928C220.33 221.711 219.002 222.948 218.107 224.483L217.962 224.731H212.204L209.821 219.8L209.82 219.799C209.232 218.574 208.371 217.499 207.304 216.658C206.236 215.816 204.99 215.23 203.661 214.945L198.264 213.777L203.369 204.808H213.54C215.055 204.805 216.544 204.419 217.871 203.687L225.113 199.691C225.113 199.691 225.113 199.69 225.114 199.69C225.717 199.354 226.282 198.951 226.796 198.49C226.796 198.49 226.796 198.49 226.796 198.49L242.71 184.096C244.22 182.742 245.225 180.914 245.556 178.913C245.888 176.911 245.528 174.857 244.535 173.088L244.534 173.085L243.568 171.34L244.972 172.007C253.962 176.269 261.559 182.994 266.881 191.401C272.203 199.807 275.031 209.55 275.038 219.5C275.044 226.24 273.746 232.918 271.217 239.167L270.996 239.715ZM227.13 198.862C226.588 199.348 225.993 199.773 225.356 200.127L218.112 204.125C216.712 204.898 215.14 205.305 213.541 205.308H203.66L199.035 213.433L203.766 214.456C205.17 214.757 206.486 215.376 207.613 216.265C208.741 217.154 209.65 218.289 210.271 219.583L212.518 224.231H217.675C218.619 222.611 220.021 221.306 221.704 220.479C223.387 219.652 225.277 219.34 227.136 219.583L240.631 221.404C241.94 221.58 243.197 222.029 244.321 222.723L270.754 238.979C270.817 238.822 270.88 238.665 270.942 238.508C273.323 232.455 274.544 226.007 274.538 219.5C274.531 209.645 271.73 199.995 266.458 191.668C261.341 183.585 254.101 177.072 245.536 172.835C245.439 172.787 245.341 172.739 245.244 172.692C245.243 172.691 245.243 172.691 245.242 172.691C245.081 172.613 244.92 172.535 244.758 172.458L244.971 172.843C245.039 172.964 245.105 173.087 245.167 173.211C246.066 174.993 246.377 177.018 246.05 178.994C245.699 181.108 244.639 183.039 243.043 184.469L227.13 198.862ZM169.962 219.5C169.954 211.691 171.696 203.979 175.06 196.932L175.567 195.87L182.685 214.871C183.215 216.274 184.088 217.523 185.225 218.501C186.362 219.48 187.727 220.157 189.194 220.472L202.106 223.249L204.463 228.15C204.464 228.15 204.464 228.151 204.464 228.152C205.205 229.66 206.353 230.931 207.778 231.822C209.204 232.713 210.85 233.188 212.531 233.192H214.175L209.586 243.493C208.873 245.094 208.644 246.869 208.929 248.598C209.213 250.324 209.996 251.929 211.182 253.215L211.263 253.296L223.041 265.428L221.763 272.013L221.341 272.003C207.621 271.684 194.568 266.015 184.969 256.206C175.37 246.397 169.984 233.225 169.962 219.5ZM210.821 253.562C209.566 252.202 208.736 250.505 208.436 248.679C208.135 246.854 208.376 244.98 209.13 243.29L213.405 233.692H212.53C210.755 233.687 209.018 233.187 207.513 232.246C206.008 231.306 204.796 229.963 204.015 228.37L201.762 223.687L189.089 220.961C187.54 220.629 186.099 219.914 184.899 218.88C183.698 217.847 182.776 216.529 182.218 215.047L175.512 197.147C175.411 197.357 175.312 197.568 175.215 197.78C172.077 204.588 170.454 211.998 170.462 219.5C170.484 233.094 175.818 246.141 185.326 255.856C194.834 265.572 207.763 271.187 221.353 271.503L222.5 265.59L210.904 253.644L210.821 253.562ZM222.5 158.5C210.435 158.5 198.642 162.078 188.61 168.78C178.579 175.483 170.76 185.01 166.143 196.156C161.526 207.303 160.318 219.568 162.672 231.4C165.026 243.233 170.836 254.102 179.367 262.633C187.898 271.164 198.767 276.974 210.6 279.328C222.432 281.682 234.697 280.474 245.844 275.857C256.99 271.24 266.517 263.421 273.22 253.39C279.922 243.359 283.5 231.565 283.5 219.501C283.483 203.327 277.051 187.822 265.615 176.385C254.178 164.949 238.673 158.517 222.5 158.5ZM222.5 158C210.336 158 198.446 161.607 188.332 168.365C178.219 175.122 170.336 184.727 165.681 195.965C161.027 207.203 159.809 219.568 162.182 231.498C164.555 243.428 170.412 254.386 179.013 262.987C187.614 271.588 198.572 277.445 210.502 279.818C222.432 282.191 234.797 280.973 246.035 276.319C257.273 271.664 266.878 263.781 273.635 253.668C280.393 243.554 284 231.664 284 219.5C283.983 203.194 277.498 187.562 265.968 176.032C254.438 164.502 238.806 158.017 222.5 158Z" fill="#042F6C"/>
<path fill-rule="evenodd" clip-rule="evenodd" d="M222.772 276.999C254.679 276.999 280.544 251.134 280.544 219.227C280.544 187.321 254.679 161.455 222.772 161.455C190.865 161.455 165 187.321 165 219.227C165 251.134 190.865 276.999 222.772 276.999ZM222.772 282.999C257.993 282.999 286.544 254.448 286.544 219.227C286.544 184.007 257.993 155.455 222.772 155.455C187.552 155.455 159 184.007 159 219.227C159 254.448 187.552 282.999 222.772 282.999Z" fill="#042F6C"/>
<path d="M243.692 225.355C243.826 224.021 244.882 223.007 246.21 222.821C249.352 222.379 255.143 221.461 259.31 220.2C263.931 218.8 270.551 215.767 273.338 214.453C274.173 214.059 275.135 214.059 275.97 214.453C278.757 215.767 285.377 218.8 289.999 220.2C294.165 221.461 299.957 222.379 303.099 222.821C304.427 223.007 305.482 224.021 305.617 225.355C306.586 234.969 308.205 272.717 275.496 282.751C274.958 282.916 274.35 282.916 273.812 282.751C241.104 272.717 242.723 234.969 243.692 225.355Z" fill="#C8D1EA"/>
<path fill-rule="evenodd" clip-rule="evenodd" d="M270.532 272.821C269.164 272.202 267.895 271.504 266.717 270.741L278.113 224.134C279.29 224.679 280.654 225.29 282.016 225.855L270.532 272.821ZM274.097 222.877L263.081 267.929C260.282 265.364 258.165 262.361 256.572 259.184L264.454 226.949C267.489 225.89 271.302 224.104 273.296 223.138C273.553 223.014 273.822 222.927 274.097 222.877Z" fill="white"/>
<path fill-rule="evenodd" clip-rule="evenodd" d="M272.86 222.241C273.993 221.692 275.315 221.692 276.448 222.241C278.654 223.309 283.005 225.34 286.065 226.3C288.746 227.141 292.425 227.781 294.781 228.139C296.517 228.402 297.964 229.752 298.123 231.598C298.472 235.641 298.793 244.523 296.107 253.37C293.413 262.246 287.658 271.173 275.83 275.035C275.075 275.282 274.233 275.282 273.478 275.035C261.65 271.173 255.895 262.246 253.201 253.37C250.515 244.523 250.835 235.641 251.185 231.598C251.344 229.752 252.791 228.402 254.526 228.139C256.883 227.781 260.562 227.141 263.243 226.3C266.303 225.34 270.654 223.309 272.86 222.241ZM275.576 224.041C274.994 223.759 274.314 223.759 273.732 224.041C271.537 225.103 267.061 227.198 263.842 228.208C261.002 229.099 257.19 229.757 254.827 230.116C253.907 230.256 253.249 230.94 253.177 231.77C252.837 235.709 252.537 244.297 255.115 252.79C257.684 261.254 263.077 269.535 274.098 273.134C274.45 273.249 274.858 273.249 275.209 273.134C286.231 269.535 291.624 261.254 294.193 252.79C296.771 244.297 296.471 235.709 296.131 231.77C296.059 230.94 295.401 230.256 294.481 230.116C292.118 229.757 288.306 229.099 285.466 228.208C282.246 227.198 277.771 225.103 275.576 224.041Z" fill="#2571BC"/>
<defs>
<radialGradient id="paint0_radial_366_2621" cx="0" cy="0" r="1" gradientUnits="userSpaceOnUse" gradientTransform="translate(221 221) rotate(90) scale(221)">
<stop offset="0.458333" stop-color="#A0D0FF"/>
<stop offset="1" stop-color="white"/>
</radialGradient>
<radialGradient id="paint1_radial_366_2621" cx="0" cy="0" r="1" gradientUnits="userSpaceOnUse" gradientTransform="translate(222 220) rotate(90) scale(76)">
<stop offset="0.458333" stop-color="#A0D0FF"/>
<stop offset="1" stop-color="white"/>
</radialGradient>
<linearGradient id="paint2_linear_366_2621" x1="188.738" y1="157.966" x2="258.985" y2="304.994" gradientUnits="userSpaceOnUse">
<stop stop-color="#9FC7F0"/>
<stop offset="1" stop-color="#BDD7F1" stop-opacity="0"/>
</linearGradient>
</defs>
</svg>
