<svg width="442" height="442" viewBox="0 0 442 442" fill="none" xmlns="http://www.w3.org/2000/svg">
<circle cx="221" cy="221" r="221" fill="url(#paint0_radial_46_2142)" fill-opacity="0.44"/>
<circle cx="222" cy="220" r="76" fill="url(#paint1_radial_46_2142)" fill-opacity="0.44"/>
<rect x="136.491" y="212.309" width="70.3298" height="83.92" transform="rotate(-42.0459 136.491 212.309)" fill="url(#paint2_linear_46_2142)"/>
<rect x="136.491" y="212.309" width="70.3298" height="83.92" transform="rotate(-42.0459 136.491 212.309)" fill="url(#paint3_linear_46_2142)"/>
<path d="M145.973 199.528C145.908 199.584 145.849 199.643 145.794 199.706L140.51 204.235C136.346 207.803 135.886 214.068 139.485 218.198L183.116 268.266L183.304 268.102L183.116 268.266C183.56 268.776 184.186 269.037 184.814 269.037C185.334 269.037 185.856 268.859 186.281 268.495C187.22 267.69 187.323 266.282 186.512 265.35L186.323 265.514L186.512 265.35L142.881 215.283C140.903 213.013 141.155 209.57 143.445 207.608L143.282 207.418L143.445 207.608L150.162 201.851C150.293 201.739 150.408 201.614 150.506 201.481L186.344 170.839L186.344 170.839C187.454 169.888 188.87 169.422 190.333 169.528L190.333 169.528C191.797 169.634 193.13 170.298 194.089 171.398L197.049 174.796C197.86 175.726 199.276 175.829 200.214 175.025C201.153 174.22 201.257 172.812 200.445 171.88L200.257 172.044L200.445 171.88L197.484 168.482C195.742 166.482 193.317 165.275 190.659 165.083L190.659 165.083C188.002 164.892 185.427 165.737 183.41 167.466C183.41 167.466 183.41 167.466 183.41 167.466L145.973 199.528L145.973 199.528Z" fill="#042F6C" stroke="#042F6C" stroke-width="0.5"/>
<rect x="170.228" y="193.701" width="70.3298" height="88.9464" transform="rotate(-19.0506 170.228 193.701)" fill="url(#paint4_linear_46_2142)"/>
<rect x="170.228" y="193.701" width="70.3298" height="88.9464" transform="rotate(-19.0506 170.228 193.701)" fill="url(#paint5_linear_46_2142)"/>
<path d="M241.889 177.48L241.889 177.48L242.598 179.576C242.993 180.745 242.358 182.008 241.183 182.399C240.009 182.789 238.737 182.163 238.342 180.995L238.342 180.995L237.632 178.898L237.632 178.898C236.67 176.054 233.553 174.513 230.682 175.469L230.682 175.469L176.924 193.35C174.053 194.306 172.504 197.397 173.465 200.239L173.229 200.32L173.465 200.239L198.477 274.194C198.872 275.363 198.237 276.625 197.062 277.016L197.062 277.017C196.826 277.095 196.585 277.132 196.348 277.132C195.412 277.132 194.536 276.546 194.22 275.613L169.209 201.658C167.458 196.482 170.281 190.86 175.498 189.125L229.255 171.243L229.334 171.48L229.255 171.243C234.471 169.508 240.139 172.304 241.889 177.48Z" fill="#042F6C" stroke="#042F6C" stroke-width="0.5"/>
<rect x="204.752" y="192.097" width="70.3298" height="91.015" fill="url(#paint6_linear_46_2142)"/>
<path d="M212.092 188.289H268.792C274.293 188.289 278.772 192.727 278.772 198.188V276.192C278.772 281.652 274.293 286.091 268.792 286.091H212.092C206.59 286.091 202.112 281.652 202.112 276.192V198.188C202.112 192.727 206.59 188.289 212.092 188.289ZM206.602 276.192C206.602 279.19 209.063 281.634 212.092 281.634H268.792C271.821 281.634 274.282 279.19 274.282 276.192V198.188C274.282 195.189 271.821 192.746 268.792 192.746H212.092C209.063 192.746 206.602 195.189 206.602 198.188V276.192Z" fill="#042F6C"/>
<path d="M212.092 188.289H268.792C274.293 188.289 278.772 192.727 278.772 198.188V276.192C278.772 281.652 274.293 286.091 268.792 286.091H212.092C206.59 286.091 202.112 281.652 202.112 276.192V198.188C202.112 192.727 206.59 188.289 212.092 188.289ZM206.602 276.192C206.602 279.19 209.063 281.634 212.092 281.634H268.792C271.821 281.634 274.282 279.19 274.282 276.192V198.188C274.282 195.189 271.821 192.746 268.792 192.746H212.092C209.063 192.746 206.602 195.189 206.602 198.188V276.192Z" stroke="#042F6C" stroke-width="0.5"/>
<path d="M212.092 188.289H268.792C274.293 188.289 278.772 192.727 278.772 198.188V276.192C278.772 281.652 274.293 286.091 268.792 286.091H212.092C206.59 286.091 202.112 281.652 202.112 276.192V198.188C202.112 192.727 206.59 188.289 212.092 188.289ZM206.602 276.192C206.602 279.19 209.063 281.634 212.092 281.634H268.792C271.821 281.634 274.282 279.19 274.282 276.192V198.188C274.282 195.189 271.821 192.746 268.792 192.746H212.092C209.063 192.746 206.602 195.189 206.602 198.188V276.192Z" stroke="#042F6C" stroke-width="0.5"/>
<path d="M217.983 245.976H263.49" stroke="#042F6C" stroke-linecap="round"/>
<path d="M220.051 262.524H261.422" stroke="#042F6C" stroke-linecap="round"/>
<path d="M220.051 268.731H261.422" stroke="#042F6C" stroke-linecap="round"/>
<path d="M220.051 254.253H246.942" stroke="#042F6C" stroke-linecap="round"/>
<path d="M253.148 254.253H261.422" stroke="#042F6C" stroke-linecap="round"/>
<path d="M221.401 206.379C221.51 205.042 222.566 204.029 223.893 203.831C225.946 203.523 229.003 202.997 231.284 202.306C233.941 201.502 237.649 199.838 239.6 198.929C240.437 198.539 241.402 198.539 242.239 198.929C244.19 199.838 247.898 201.502 250.555 202.306C252.836 202.997 255.893 203.523 257.947 203.831C259.273 204.029 260.33 205.042 260.438 206.379C261.015 213.469 261.139 235.313 241.757 241.488C241.221 241.659 240.618 241.659 240.082 241.488C220.701 235.313 220.824 213.469 221.401 206.379Z" fill="#C8D1EA"/>
<path fill-rule="evenodd" clip-rule="evenodd" d="M238.334 235.352C237.475 234.964 236.678 234.526 235.939 234.047L243.095 204.78C243.834 205.122 244.69 205.506 245.545 205.86L238.334 235.352ZM240.543 204.112L233.655 232.281C231.897 230.671 230.568 228.786 229.568 226.792L234.518 206.545C236.19 205.961 238.237 205.027 239.56 204.397C239.873 204.248 240.206 204.153 240.543 204.112Z" fill="white"/>
<path d="M226.746 210.362C226.83 209.022 227.886 207.998 229.21 207.779C230.649 207.542 232.508 207.185 233.943 206.735C235.696 206.185 238.081 205.1 239.56 204.396C240.42 203.986 241.42 203.986 242.281 204.396C243.759 205.1 246.144 206.185 247.898 206.735C249.333 207.185 251.192 207.542 252.63 207.779C253.955 207.998 255.01 209.022 255.095 210.362C255.46 216.158 255.095 231.453 241.78 236.036C241.229 236.226 240.611 236.226 240.061 236.036C226.746 231.453 226.381 216.158 226.746 210.362Z" stroke="#2571BC" stroke-width="2"/>
<path d="M294.399 142.603C295.626 143.828 296.6 145.284 297.264 146.887C297.929 148.49 298.271 150.209 298.271 151.944C298.271 153.68 297.929 155.398 297.264 157.001C296.6 158.604 295.626 160.06 294.399 161.286C291.921 163.764 288.561 165.156 285.058 165.156C281.555 165.156 278.195 163.764 275.717 161.286C270.556 156.128 270.556 147.761 275.717 142.603C278.195 140.124 281.555 138.732 285.058 138.732C288.561 138.732 291.921 140.124 294.399 142.603" stroke="#9FCFFF" stroke-width="2" stroke-linecap="round" stroke-linejoin="round"/>
<path d="M274.912 141.435C237.795 116.218 186.852 120.008 153.938 152.89C145.07 161.728 138.036 172.233 133.241 183.799C128.447 195.365 125.986 207.765 126 220.285C126 225.917 126.339 231.539 127.334 237.097" stroke="#9FCFFF" stroke-width="3" stroke-linecap="round" stroke-linejoin="round"/>
<path d="M315.226 203.473C316.168 209.026 316.614 214.652 316.56 220.285C316.56 244.676 307.244 269.068 288.622 287.68C255.719 320.562 204.765 324.352 167.648 299.134" stroke="#9FCFFF" stroke-width="3" stroke-linecap="round" stroke-linejoin="round" stroke-dasharray="6 6"/>
<defs>
<radialGradient id="paint0_radial_46_2142" cx="0" cy="0" r="1" gradientUnits="userSpaceOnUse" gradientTransform="translate(221 221) rotate(90) scale(221)">
<stop offset="0.458333" stop-color="#A0D0FF"/>
<stop offset="1" stop-color="white"/>
</radialGradient>
<radialGradient id="paint1_radial_46_2142" cx="0" cy="0" r="1" gradientUnits="userSpaceOnUse" gradientTransform="translate(222 220) rotate(90) scale(76)">
<stop offset="0.458333" stop-color="#A0D0FF"/>
<stop offset="1" stop-color="white"/>
</radialGradient>
<linearGradient id="paint2_linear_46_2142" x1="136.138" y1="213.791" x2="188.813" y2="275.428" gradientUnits="userSpaceOnUse">
<stop offset="0.119792" stop-color="#9ECFFF"/>
<stop offset="1" stop-color="white" stop-opacity="0"/>
</linearGradient>
<linearGradient id="paint3_linear_46_2142" x1="136.138" y1="213.791" x2="188.813" y2="275.428" gradientUnits="userSpaceOnUse">
<stop offset="0.119792" stop-color="#9ECFFF"/>
<stop offset="1" stop-color="white" stop-opacity="0"/>
</linearGradient>
<linearGradient id="paint4_linear_46_2142" x1="169.875" y1="195.272" x2="226.12" y2="257.368" gradientUnits="userSpaceOnUse">
<stop offset="0.119792" stop-color="#9ECFFF"/>
<stop offset="1" stop-color="white" stop-opacity="0"/>
</linearGradient>
<linearGradient id="paint5_linear_46_2142" x1="169.875" y1="195.272" x2="226.12" y2="257.368" gradientUnits="userSpaceOnUse">
<stop offset="0.119792" stop-color="#9ECFFF"/>
<stop offset="1" stop-color="white" stop-opacity="0"/>
</linearGradient>
<linearGradient id="paint6_linear_46_2142" x1="239.917" y1="192.097" x2="239.917" y2="283.112" gradientUnits="userSpaceOnUse">
<stop offset="0.119792" stop-color="#9ECFFF"/>
<stop offset="1" stop-color="white" stop-opacity="0"/>
</linearGradient>
</defs>
</svg>
