<svg width="442" height="442" viewBox="0 0 442 442" fill="none" xmlns="http://www.w3.org/2000/svg">
<circle cx="221" cy="221" r="221" fill="url(#paint0_radial_366_2715)" fill-opacity="0.44"/>
<circle cx="222" cy="220" r="76" fill="url(#paint1_radial_366_2715)" fill-opacity="0.44"/>
<path fill-rule="evenodd" clip-rule="evenodd" d="M257.22 165H186C178.268 165 172 171.268 172 179V238.512C172 246.244 178.268 252.512 186 252.512H257.22C264.951 252.512 271.22 246.244 271.22 238.512V179C271.22 171.268 264.951 165 257.22 165ZM186 159C174.954 159 166 167.954 166 179V238.512C166 249.558 174.954 258.512 186 258.512H257.22C268.265 258.512 277.22 249.558 277.22 238.512V179C277.22 167.954 268.265 159 257.22 159H186Z" fill="#042F6C"/>
<path d="M171.854 262.001L192.248 266.61C194.014 267.009 195.268 268.579 195.268 270.39C195.268 275.145 191.413 279 186.658 279H179.12C175.107 279 171.854 275.747 171.854 271.734V262.001Z" fill="#042F6C"/>
<path d="M270.415 261.999L250.021 266.608C248.254 267.008 247 268.577 247 270.388L-nan -nanL247 270.388C247 275.143 250.855 278.998 255.611 278.998H263.148C267.161 278.998 270.415 275.745 270.415 271.732V261.999Z" fill="#042F6C"/>
<path d="M178.158 203.072C180.507 194.337 188.426 188.267 197.471 188.267H245.748C254.793 188.267 262.713 194.337 265.062 203.072L271.057 225.362C271.262 226.124 271.366 226.91 271.366 227.7V261.218C271.366 266.188 267.336 270.218 262.366 270.218H180.854C175.883 270.218 171.854 266.188 171.854 261.218V227.7C171.854 226.91 171.957 226.124 172.163 225.362L178.158 203.072Z" fill="#BEDFFF"/>
<path fill-rule="evenodd" clip-rule="evenodd" d="M245.748 194.267H197.471C191.14 194.267 185.596 198.516 183.952 204.63L177.957 226.921C177.888 227.175 177.854 227.437 177.854 227.7V261.218C177.854 262.875 179.197 264.218 180.854 264.218H262.366C264.023 264.218 265.366 262.875 265.366 261.218V227.7C265.366 227.437 265.331 227.175 265.263 226.921L259.268 204.63C257.623 198.516 252.08 194.267 245.748 194.267ZM197.471 188.267C188.426 188.267 180.507 194.337 178.158 203.072L172.163 225.362C171.957 226.124 171.854 226.91 171.854 227.7V261.218C171.854 266.188 175.883 270.218 180.854 270.218H262.366C267.336 270.218 271.366 266.188 271.366 261.218V227.7C271.366 226.91 271.262 226.124 271.057 225.362L265.062 203.072C262.713 194.337 254.793 188.267 245.748 188.267H197.471Z" fill="#042F6C"/>
<path fill-rule="evenodd" clip-rule="evenodd" d="M201.654 201.783L193.637 225.13C192.829 227.481 194.067 224.141 195.269 226.316V226.316C195.517 226.765 196.327 226.183 196.699 226.531C196.934 226.751 197.186 227.008 197.447 227.274V227.274C198.303 228.148 199.613 227.736 199.968 226.565L206.073 206.456C207.024 203.324 202.564 198.638 201.654 201.783V201.783ZM211.429 200.437C210.663 200.277 209.947 200.777 209.712 201.524L201.523 227.625C201.294 228.352 201.672 229.061 202.426 228.953V228.953C203.232 228.837 204.086 228.283 204.333 227.508L212.386 202.269C212.64 201.474 212.247 200.608 211.429 200.437V200.437Z" fill="white"/>
<path d="M188.791 206.922C189.744 202.852 193.374 199.975 197.553 199.975H244.55C248.574 199.975 252.109 202.646 253.208 206.517L256.406 217.785C258.037 223.531 253.721 229.243 247.748 229.243H194.913C189.113 229.243 184.827 223.837 186.151 218.19L188.791 206.922Z" fill="#FFFEFE" fill-opacity="0.5"/>
<path fill-rule="evenodd" clip-rule="evenodd" d="M244.55 202.975H197.553C194.767 202.975 192.347 204.893 191.712 207.606L189.071 218.874C188.189 222.639 191.047 226.243 194.913 226.243H247.748C251.73 226.243 254.608 222.435 253.52 218.604L250.322 207.336C249.589 204.755 247.232 202.975 244.55 202.975ZM197.553 199.975C193.374 199.975 189.744 202.852 188.791 206.922L186.151 218.19C184.827 223.837 189.113 229.243 194.913 229.243H247.748C253.721 229.243 258.037 223.531 256.406 217.785L253.208 206.517C252.109 202.646 248.574 199.975 244.55 199.975H197.553Z" fill="#042F6C"/>
<path fill-rule="evenodd" clip-rule="evenodd" d="M250.878 255.512C254.071 255.512 256.659 252.924 256.659 249.732C256.659 246.539 254.071 243.951 250.878 243.951C247.686 243.951 245.098 246.539 245.098 249.732C245.098 252.924 247.686 255.512 250.878 255.512ZM250.878 258.512C255.727 258.512 259.659 254.581 259.659 249.732C259.659 244.882 255.727 240.951 250.878 240.951C246.029 240.951 242.098 244.882 242.098 249.732C242.098 254.581 246.029 258.512 250.878 258.512Z" fill="#042F6C"/>
<path d="M201.122 249.732C201.122 254.581 197.191 258.512 192.342 258.512C187.492 258.512 183.561 254.581 183.561 249.732C183.561 244.882 187.492 240.951 192.342 240.951C197.191 240.951 201.122 244.882 201.122 249.732Z" fill="white"/>
<path fill-rule="evenodd" clip-rule="evenodd" d="M192.342 255.512C195.534 255.512 198.122 252.924 198.122 249.732C198.122 246.539 195.534 243.951 192.342 243.951C189.149 243.951 186.561 246.539 186.561 249.732C186.561 252.924 189.149 255.512 192.342 255.512ZM192.342 258.512C197.191 258.512 201.122 254.581 201.122 249.732C201.122 244.882 197.191 240.951 192.342 240.951C187.492 240.951 183.561 244.882 183.561 249.732C183.561 254.581 187.492 258.512 192.342 258.512Z" fill="#042F6C"/>
<path d="M206.976 246.951C206.976 243.637 209.662 240.951 212.976 240.951H230.244C233.558 240.951 236.244 243.637 236.244 246.951V252.512C236.244 255.826 233.558 258.512 230.244 258.512H212.976C209.662 258.512 206.976 255.826 206.976 252.512V246.951Z" fill="white"/>
<path fill-rule="evenodd" clip-rule="evenodd" d="M230.244 243.951H212.976C211.319 243.951 209.976 245.294 209.976 246.951V252.512C209.976 254.169 211.319 255.512 212.976 255.512H230.244C231.901 255.512 233.244 254.169 233.244 252.512V246.951C233.244 245.294 231.901 243.951 230.244 243.951ZM212.976 240.951C209.662 240.951 206.976 243.637 206.976 246.951V252.512C206.976 255.826 209.662 258.512 212.976 258.512H230.244C233.558 258.512 236.244 255.826 236.244 252.512V246.951C236.244 243.637 233.558 240.951 230.244 240.951H212.976Z" fill="#042F6C"/>
<path d="M225.772 225.379C225.903 224.044 226.959 223.039 228.287 222.851C231.249 222.431 236.533 221.584 240.353 220.428C244.615 219.137 250.699 216.357 253.348 215.11C254.183 214.716 255.145 214.716 255.981 215.11C258.629 216.357 264.713 219.137 268.975 220.428C272.795 221.584 278.079 222.431 281.041 222.851C282.369 223.039 283.425 224.044 283.556 225.379C284.46 234.565 285.794 269.415 255.506 278.75C254.968 278.916 254.36 278.916 253.823 278.75C223.534 269.415 224.868 234.565 225.772 225.379Z" fill="#C8D1EA"/>
<path fill-rule="evenodd" clip-rule="evenodd" d="M250.82 269.505C249.544 268.927 248.36 268.277 247.262 267.564L257.89 224.095C258.988 224.604 260.26 225.174 261.53 225.7L250.82 269.505ZM254.139 222.944L243.87 264.942C241.259 262.55 239.285 259.749 237.8 256.786L245.151 226.72C247.936 225.749 251.422 224.121 253.306 223.211C253.573 223.082 253.853 222.993 254.139 222.944Z" fill="white"/>
<path fill-rule="evenodd" clip-rule="evenodd" d="M252.871 222.314C254.003 221.766 255.324 221.766 256.457 222.314C258.543 223.322 262.52 225.172 265.326 226.052C267.764 226.817 271.093 227.404 273.295 227.742C275.033 228.008 276.481 229.374 276.634 231.218C276.956 235.089 277.213 243.343 274.689 251.54C272.157 259.766 266.79 268.017 255.841 271.615C255.085 271.864 254.242 271.864 253.487 271.615C242.538 268.017 237.171 259.766 234.638 251.54C232.115 243.343 232.372 235.089 232.694 231.218C232.847 229.374 234.295 228.008 236.032 227.742C238.235 227.404 241.563 226.817 244.001 226.052C246.807 225.172 250.784 223.322 252.871 222.314ZM255.587 224.115C255.004 223.833 254.324 223.833 253.741 224.115C251.665 225.118 247.565 227.031 244.6 227.96C242.005 228.774 238.547 229.38 236.335 229.719C235.419 229.859 234.756 230.553 234.687 231.384C234.374 235.149 234.135 243.109 236.55 250.952C238.956 258.766 243.961 266.379 254.111 269.715C254.461 269.83 254.867 269.83 255.217 269.715C265.367 266.379 270.372 258.766 272.778 250.952C275.192 243.109 274.954 235.149 274.641 231.384C274.572 230.553 273.909 229.859 272.992 229.719C270.781 229.38 267.322 228.774 264.728 227.96C261.763 227.031 257.663 225.118 255.587 224.115Z" fill="#2571BC"/>
<defs>
<radialGradient id="paint0_radial_366_2715" cx="0" cy="0" r="1" gradientUnits="userSpaceOnUse" gradientTransform="translate(221 221) rotate(90) scale(221)">
<stop offset="0.458333" stop-color="#A0D0FF"/>
<stop offset="1" stop-color="white"/>
</radialGradient>
<radialGradient id="paint1_radial_366_2715" cx="0" cy="0" r="1" gradientUnits="userSpaceOnUse" gradientTransform="translate(222 220) rotate(90) scale(76)">
<stop offset="0.458333" stop-color="#A0D0FF"/>
<stop offset="1" stop-color="white"/>
</radialGradient>
</defs>
</svg>
