<svg width="442" height="442" viewBox="0 0 442 442" fill="none" xmlns="http://www.w3.org/2000/svg">
<circle cx="221" cy="221" r="221" fill="url(#paint0_radial_366_2596)" fill-opacity="0.44"/>
<circle cx="222" cy="220" r="76" fill="url(#paint1_radial_366_2596)" fill-opacity="0.44"/>
<path d="M157 170C157 167.239 159.239 165 162 165H284.632C287.393 165 289.632 167.239 289.632 170V270.526C289.632 273.288 287.393 275.526 284.632 275.526H162C159.239 275.526 157 273.288 157 270.526V170Z" fill="url(#paint2_linear_366_2596)"/>
<path fill-rule="evenodd" clip-rule="evenodd" d="M163 171V269.526H283.632V171H163ZM162 165C159.239 165 157 167.239 157 170V270.526C157 273.288 159.239 275.526 162 275.526H284.632C287.393 275.526 289.632 273.288 289.632 270.526V170C289.632 167.239 287.393 165 284.632 165H162Z" fill="#042F6C"/>
<path d="M258.552 205.228C257.624 206.159 256.521 206.897 255.307 207.4C254.093 207.903 252.791 208.161 251.477 208.159C250.672 208.159 249.871 208.062 249.089 207.872L240.767 223.328C240.861 223.416 240.955 223.503 241.046 223.594C242.368 224.916 243.293 226.583 243.715 228.405C244.138 230.227 244.041 232.131 243.436 233.9C242.83 235.67 241.741 237.234 240.291 238.416C238.842 239.597 237.09 240.348 235.234 240.584C233.379 240.82 231.495 240.531 229.796 239.749C228.097 238.968 226.651 237.726 225.622 236.164C224.593 234.602 224.023 232.783 223.977 230.914C223.93 229.044 224.409 227.199 225.358 225.587L219.052 219.281C217.513 220.185 215.761 220.661 213.977 220.659C213.171 220.66 212.369 220.564 211.586 220.375L203.264 235.825C203.358 235.912 203.455 236 203.546 236.091C204.944 237.489 205.896 239.271 206.282 241.211C206.667 243.151 206.469 245.161 205.712 246.988C204.955 248.815 203.674 250.377 202.029 251.476C200.385 252.574 198.451 253.161 196.474 253.161C194.496 253.161 192.563 252.574 190.918 251.476C189.274 250.377 187.992 248.815 187.235 246.988C186.478 245.161 186.28 243.151 186.666 241.211C187.051 239.271 188.003 237.489 189.402 236.091C190.618 234.874 192.128 233.993 193.785 233.531C195.442 233.069 197.191 233.042 198.861 233.453L207.183 217.997C207.089 217.909 206.996 217.822 206.905 217.731C205.976 216.803 205.239 215.7 204.737 214.487C204.234 213.273 203.975 211.973 203.975 210.659C203.975 209.346 204.234 208.045 204.737 206.832C205.239 205.619 205.976 204.516 206.905 203.587C208.625 201.862 210.916 200.824 213.348 200.669C215.779 200.513 218.184 201.251 220.11 202.743C222.036 204.235 223.351 206.379 223.808 208.773C224.265 211.166 223.833 213.644 222.592 215.741L228.899 222.047C231.152 220.727 233.83 220.334 236.367 220.953L244.689 205.497C244.596 205.409 244.499 205.322 244.408 205.231C243.479 204.303 242.742 203.2 242.24 201.987C241.737 200.773 241.478 199.473 241.478 198.159C241.478 196.846 241.737 195.545 242.24 194.332C242.742 193.119 243.479 192.016 244.408 191.087C246.284 189.212 248.827 188.158 251.48 188.158C254.132 188.158 256.676 189.212 258.552 191.087C260.427 192.963 261.481 195.507 261.481 198.159C261.481 200.812 260.427 203.356 258.552 205.231V205.228Z" fill="white"/>
<path fill-rule="evenodd" clip-rule="evenodd" d="M258.553 205.23C258.554 205.229 258.554 205.229 258.555 205.228C258.728 205.055 258.893 204.877 259.052 204.693C260.614 202.883 261.481 200.566 261.481 198.159C261.481 195.507 260.427 192.963 258.552 191.087C256.676 189.212 254.132 188.158 251.48 188.158C248.827 188.158 246.284 189.212 244.408 191.087C243.479 192.016 242.742 193.119 242.24 194.332C241.737 195.545 241.478 196.846 241.478 198.159C241.478 199.473 241.737 200.773 242.24 201.987C242.742 203.2 243.479 204.303 244.408 205.231C244.476 205.3 244.548 205.366 244.62 205.432C244.643 205.454 244.666 205.475 244.689 205.497L236.367 220.953C233.83 220.334 231.152 220.727 228.899 222.047L222.592 215.741C223.833 213.644 224.265 211.166 223.808 208.773C223.351 206.379 222.036 204.235 220.11 202.743C218.184 201.251 215.779 200.513 213.348 200.669C210.916 200.824 208.625 201.862 206.905 203.587C205.976 204.516 205.239 205.619 204.737 206.832C204.234 208.045 203.975 209.346 203.975 210.659C203.975 211.973 204.234 213.273 204.737 214.487C205.239 215.7 205.976 216.803 206.905 217.731C206.996 217.822 207.089 217.909 207.183 217.997L198.861 233.453C197.191 233.042 195.442 233.069 193.785 233.531C192.128 233.993 190.618 234.874 189.402 236.091C188.003 237.489 187.051 239.271 186.666 241.211C186.28 243.151 186.478 245.161 187.235 246.988C187.992 248.815 189.274 250.377 190.918 251.476C192.563 252.574 194.496 253.161 196.474 253.161C198.451 253.161 200.385 252.574 202.029 251.476C203.674 250.377 204.955 248.815 205.712 246.988C206.469 245.161 206.667 243.151 206.282 241.211C205.896 239.271 204.944 237.489 203.546 236.091C203.477 236.022 203.405 235.955 203.334 235.889C203.31 235.868 203.287 235.846 203.264 235.825L211.586 220.375C212.369 220.564 213.171 220.66 213.977 220.659C215.761 220.661 217.513 220.185 219.052 219.281L225.358 225.587C224.409 227.199 223.93 229.044 223.977 230.914C224.023 232.783 224.593 234.602 225.622 236.164C226.651 237.726 228.097 238.968 229.796 239.749C231.495 240.531 233.379 240.82 235.234 240.584C237.09 240.348 238.842 239.597 240.291 238.416C241.741 237.234 242.83 235.67 243.436 233.9C244.041 232.131 244.138 230.227 243.715 228.405C243.293 226.583 242.368 224.916 241.046 223.594C240.955 223.503 240.861 223.416 240.767 223.328L249.089 207.872C249.871 208.062 250.672 208.159 251.477 208.159C252.791 208.161 254.093 207.903 255.307 207.4C256.31 206.985 257.237 206.409 258.052 205.696C258.222 205.547 258.388 205.392 258.549 205.231C258.549 205.231 258.55 205.23 258.55 205.23C258.551 205.229 258.551 205.229 258.552 205.228V205.231C258.552 205.231 258.553 205.23 258.553 205.23ZM258.353 204.72L258.198 204.875C257.316 205.759 256.269 206.46 255.116 206.938C253.962 207.416 252.726 207.661 251.477 207.659C250.713 207.659 249.951 207.567 249.208 207.386L248.832 207.295L240.144 223.431L240.426 223.694C240.521 223.782 240.608 223.864 240.692 223.947C241.948 225.204 242.827 226.787 243.228 228.518C243.629 230.249 243.537 232.057 242.962 233.738C242.387 235.419 241.353 236.906 239.975 238.028C238.598 239.15 236.934 239.864 235.171 240.088C233.409 240.312 231.619 240.037 230.005 239.295C228.391 238.553 227.017 237.373 226.04 235.889C225.062 234.405 224.521 232.677 224.477 230.901C224.432 229.125 224.887 227.372 225.789 225.841L225.985 225.508L219.132 218.654L218.798 218.85C217.337 219.709 215.672 220.161 213.977 220.159C213.212 220.16 212.448 220.069 211.704 219.889L211.329 219.798L202.641 235.927L202.923 236.19C202.95 236.215 202.975 236.239 202.999 236.261C203.069 236.326 203.131 236.383 203.192 236.444C204.52 237.773 205.425 239.466 205.791 241.308C206.158 243.151 205.969 245.061 205.25 246.797C204.531 248.533 203.314 250.016 201.751 251.06C200.189 252.104 198.352 252.661 196.474 252.661C194.595 252.661 192.758 252.104 191.196 251.06C189.634 250.016 188.416 248.533 187.697 246.797C186.978 245.061 186.79 243.151 187.156 241.308C187.522 239.466 188.427 237.773 189.755 236.444C190.911 235.289 192.346 234.451 193.92 234.012C195.494 233.573 197.155 233.548 198.742 233.939L199.118 234.031L207.806 217.894L207.524 217.631C207.429 217.543 207.342 217.461 207.258 217.378C206.376 216.495 205.676 215.448 205.198 214.295C204.721 213.143 204.475 211.907 204.475 210.659C204.475 209.412 204.721 208.176 205.198 207.023C205.676 205.871 206.376 204.823 207.258 203.941C208.893 202.302 211.07 201.316 213.38 201.168C215.69 201.02 217.974 201.721 219.804 203.139C221.634 204.556 222.883 206.593 223.317 208.866C223.751 211.14 223.341 213.494 222.162 215.486L221.965 215.82L228.818 222.673L229.151 222.478C231.293 221.224 233.838 220.851 236.249 221.439L236.624 221.53L245.312 205.394L245.03 205.131C245.004 205.107 244.978 205.083 244.954 205.06C244.885 204.996 244.823 204.939 244.762 204.878C243.879 203.995 243.179 202.948 242.702 201.795C242.224 200.643 241.978 199.407 241.978 198.159C241.978 196.912 242.224 195.676 242.702 194.523C243.179 193.371 243.879 192.323 244.762 191.441C246.543 189.659 248.96 188.658 251.48 188.658C254 188.658 256.416 189.659 258.198 191.441C259.98 193.223 260.981 195.639 260.981 198.159C260.981 200.605 260.038 202.954 258.353 204.72Z" fill="#042F6C"/>
<path d="M254.21 228.917C254.343 227.582 255.4 226.572 256.728 226.385C259.801 225.951 265.394 225.062 269.425 223.841C273.907 222.484 280.319 219.549 283.053 218.26C283.888 217.866 284.849 217.866 285.685 218.26C288.418 219.549 294.83 222.484 299.312 223.841C303.344 225.062 308.937 225.951 312.01 226.385C313.338 226.572 314.394 227.582 314.528 228.917C315.471 238.365 316.979 274.988 285.211 284.75C284.673 284.915 284.065 284.915 283.527 284.75C251.758 274.988 253.266 238.365 254.21 228.917Z" fill="#C8D1EA"/>
<path fill-rule="evenodd" clip-rule="evenodd" d="M280.354 275.084C279.023 274.481 277.786 273.802 276.639 273.058L287.737 227.67C288.884 228.201 290.212 228.796 291.538 229.345L280.354 275.084ZM283.824 226.454L273.098 270.32C270.372 267.822 268.311 264.898 266.76 261.804L274.436 230.41C277.372 229.386 281.057 227.662 283.009 226.718C283.27 226.591 283.544 226.504 283.824 226.454Z" fill="white"/>
<path fill-rule="evenodd" clip-rule="evenodd" d="M282.573 225.822C283.706 225.274 285.031 225.274 286.164 225.822C288.324 226.868 292.528 228.828 295.489 229.756C298.075 230.567 301.618 231.187 303.915 231.537C305.651 231.802 307.099 233.157 307.256 235.002C307.595 238.979 307.89 247.618 305.267 256.212C302.636 264.835 297.032 273.5 285.545 277.26C284.79 277.507 283.947 277.507 283.192 277.26C271.705 273.5 266.101 264.835 263.47 256.212C260.847 247.618 261.142 238.979 261.481 235.002C261.638 233.157 263.086 231.802 264.822 231.537C267.119 231.187 270.662 230.567 273.248 229.756C276.209 228.828 280.413 226.868 282.573 225.822ZM285.292 227.623C284.71 227.341 284.027 227.341 283.445 227.623C281.295 228.663 276.967 230.686 273.847 231.664C271.102 232.525 267.428 233.163 265.123 233.514C264.204 233.654 263.545 234.342 263.474 235.172C263.144 239.044 262.868 247.389 265.382 255.629C267.888 263.841 273.131 271.863 283.814 275.359C284.165 275.474 284.572 275.474 284.923 275.359C295.606 271.863 300.849 263.841 303.355 255.629C305.869 247.389 305.593 239.044 305.263 235.172C305.192 234.342 304.533 233.654 303.614 233.514C301.309 233.163 297.635 232.525 294.89 231.664C291.77 230.686 287.442 228.663 285.292 227.623Z" fill="#2571BC"/>
<defs>
<radialGradient id="paint0_radial_366_2596" cx="0" cy="0" r="1" gradientUnits="userSpaceOnUse" gradientTransform="translate(221 221) rotate(90) scale(221)">
<stop offset="0.458333" stop-color="#A0D0FF"/>
<stop offset="1" stop-color="white"/>
</radialGradient>
<radialGradient id="paint1_radial_366_2596" cx="0" cy="0" r="1" gradientUnits="userSpaceOnUse" gradientTransform="translate(222 220) rotate(90) scale(76)">
<stop offset="0.458333" stop-color="#A0D0FF"/>
<stop offset="1" stop-color="white"/>
</radialGradient>
<linearGradient id="paint2_linear_366_2596" x1="223.316" y1="165" x2="223.316" y2="275.526" gradientUnits="userSpaceOnUse">
<stop stop-color="#9FC8F2"/>
<stop offset="1" stop-color="#2571BC" stop-opacity="0"/>
</linearGradient>
</defs>
</svg>
