<svg width="442" height="442" viewBox="0 0 442 442" fill="none" xmlns="http://www.w3.org/2000/svg">
<g clip-path="url(#clip0_366_2760)">
<path d="M221 442C343.055 442 442 343.055 442 221C442 98.9451 343.055 0 221 0C98.9451 0 0 98.9451 0 221C0 343.055 98.9451 442 221 442Z" fill="url(#paint0_radial_366_2760)" fill-opacity="0.44"/>
<path d="M222 296C263.974 296 298 261.974 298 220C298 178.026 263.974 144 222 144C180.026 144 146 178.026 146 220C146 261.974 180.026 296 222 296Z" fill="url(#paint1_radial_366_2760)" fill-opacity="0.44"/>
<path d="M287.488 164.5H157C155.067 164.5 153.5 166.067 153.5 168V275.073C153.5 277.006 155.067 278.573 157 278.573H287.488C289.421 278.573 290.988 277.006 290.988 275.073V168C290.988 166.067 289.421 164.5 287.488 164.5Z" stroke="#042F6C" stroke-width="6"/>
<path d="M261.598 191.755H261.596H246.573H246.173V191.355V187.879C246.173 187.063 245.849 186.281 245.272 185.704C244.695 185.127 243.913 184.803 243.097 184.803H177.061C175.323 184.803 173.657 185.494 172.428 186.722C171.2 187.951 170.509 189.617 170.509 191.355V240.013C170.509 241.751 171.2 243.417 172.428 244.645C173.657 245.874 175.323 246.564 177.061 246.564H184.446H184.757L184.834 246.865C185.577 249.77 187.267 252.344 189.635 254.182C192.003 256.021 194.916 257.018 197.914 257.018C200.912 257.018 203.825 256.021 206.194 254.182C208.562 252.344 210.251 249.77 210.995 246.865L211.072 246.564H211.382H233.105H233.415L233.492 246.865C234.236 249.77 235.925 252.344 238.293 254.182C240.662 256.021 243.575 257.018 246.573 257.018C249.571 257.018 252.484 256.021 254.852 254.182C257.22 252.344 258.91 249.77 259.653 246.865L259.73 246.564H260.041H267.426C269.164 246.564 270.83 245.874 272.059 244.645C273.287 243.417 273.978 241.751 273.978 240.013V212.208C273.978 211.812 273.904 211.42 273.758 211.052L267.676 195.848C267.165 194.587 266.657 193.887 265.267 192.867C263.734 191.965 262.942 191.774 261.598 191.755ZM261.598 191.755C262.904 191.749 264.183 192.137 265.267 192.867C266.35 193.596 267.19 194.635 267.676 195.848C267.165 194.587 266.657 193.887 265.267 192.867C263.734 191.965 262.942 191.774 261.598 191.755ZM176.661 219.159V219.559H177.061H239.622H240.022V219.159V191.355V190.955H239.622H177.061H176.661V191.355V219.159ZM246.173 208.733V209.133H246.573H265.767H266.358L266.138 208.584L261.967 198.157L261.867 197.906H261.596H246.573H246.173V198.306V208.733Z" fill="white"/>
<path d="M261.598 191.755H261.596H246.573H246.173V191.355V187.879C246.173 187.063 245.849 186.281 245.272 185.704C244.695 185.127 243.913 184.803 243.097 184.803H177.061C175.323 184.803 173.657 185.494 172.428 186.722C171.2 187.951 170.509 189.617 170.509 191.355V240.013C170.509 241.751 171.2 243.417 172.428 244.645C173.657 245.874 175.323 246.564 177.061 246.564H184.446H184.757L184.834 246.865C185.577 249.77 187.267 252.344 189.635 254.182C192.003 256.021 194.916 257.018 197.914 257.018C200.912 257.018 203.825 256.021 206.194 254.182C208.562 252.344 210.251 249.77 210.995 246.865L211.072 246.564H211.382H233.105H233.415L233.492 246.865C234.236 249.77 235.925 252.344 238.293 254.182C240.662 256.021 243.575 257.018 246.573 257.018C249.571 257.018 252.484 256.021 254.852 254.182C257.22 252.344 258.91 249.77 259.653 246.865L259.73 246.564H260.041H267.426C269.164 246.564 270.83 245.874 272.059 244.645C273.287 243.417 273.978 241.751 273.978 240.013V212.208C273.978 211.812 273.904 211.42 273.758 211.052L267.676 195.848M261.598 191.755C262.904 191.749 264.183 192.137 265.267 192.867M261.598 191.755C262.942 191.774 263.734 191.965 265.267 192.867M267.676 195.848C267.19 194.635 266.35 193.596 265.267 192.867M267.676 195.848C267.165 194.587 266.657 193.887 265.267 192.867M176.661 219.159V219.559H177.061H239.622H240.022V219.159V191.355V190.955H239.622H177.061H176.661V191.355V219.159ZM246.173 208.733V209.133H246.573H265.767H266.358L266.138 208.584L261.967 198.157L261.867 197.906H261.596H246.573H246.173V198.306V208.733Z" stroke="#042F6C" stroke-width="0.8"/>
<path d="M240.5 190.5H176.5V219.5H240.5V190.5Z" fill="#81AEDB" stroke="#042F6C"/>
<path d="M193.836 191H203.655L193.836 219H185L193.836 191Z" fill="white"/>
<path d="M206.109 191H212L202.673 219H195.8L206.109 191Z" fill="white"/>
<path d="M246 250.5C250.142 250.5 253.5 247.142 253.5 243C253.5 238.858 250.142 235.5 246 235.5C241.858 235.5 238.5 238.858 238.5 243C238.5 247.142 241.858 250.5 246 250.5Z" fill="#81AEDB" stroke="#042F6C"/>
<path d="M198 251.5C202.142 251.5 205.5 248.142 205.5 244C205.5 239.858 202.142 236.5 198 236.5C193.858 236.5 190.5 239.858 190.5 244C190.5 248.142 193.858 251.5 198 251.5Z" fill="#81AEDB" stroke="#042F6C"/>
<path d="M249.21 226.917C249.343 225.582 250.4 224.572 251.728 224.385C254.801 223.951 260.394 223.062 264.425 221.841C268.907 220.484 275.319 217.549 278.053 216.26C278.888 215.866 279.849 215.866 280.685 216.26C283.418 217.549 289.83 220.484 294.312 221.841C298.343 223.062 303.936 223.951 307.009 224.385C308.338 224.572 309.394 225.582 309.527 226.917C310.471 236.365 311.979 272.988 280.211 282.75C279.673 282.915 279.065 282.915 278.527 282.75C246.758 272.988 248.266 236.365 249.21 226.917Z" fill="#C8D1EA"/>
<path fill-rule="evenodd" clip-rule="evenodd" d="M275.354 273.084C274.022 272.481 272.786 271.802 271.639 271.058L282.737 225.67C283.883 226.201 285.211 226.796 286.538 227.345L275.354 273.084ZM278.824 224.454L268.098 268.32C265.372 265.822 263.31 262.898 261.759 259.804L269.435 228.41C272.372 227.386 276.057 225.662 278.009 224.718C278.27 224.591 278.544 224.504 278.824 224.454Z" fill="white"/>
<path d="M257.478 233.086C257.592 231.748 258.645 230.727 259.973 230.525C262.274 230.174 265.882 229.545 268.547 228.709C271.588 227.756 275.854 225.764 278.009 224.722C278.867 224.307 279.87 224.307 280.728 224.722C282.883 225.764 287.149 227.756 290.189 228.709C292.855 229.545 296.463 230.174 298.764 230.525C300.092 230.727 301.145 231.748 301.259 233.086C301.928 240.935 302.403 267.052 280.234 274.309C279.681 274.49 279.056 274.49 278.503 274.309C256.333 267.052 256.809 240.935 257.478 233.086Z" stroke="#2571BC" stroke-width="2"/>
</g>
<defs>
<radialGradient id="paint0_radial_366_2760" cx="0" cy="0" r="1" gradientUnits="userSpaceOnUse" gradientTransform="translate(221 221) rotate(90) scale(221)">
<stop offset="0.458333" stop-color="#A0D0FF"/>
<stop offset="1" stop-color="white"/>
</radialGradient>
<radialGradient id="paint1_radial_366_2760" cx="0" cy="0" r="1" gradientUnits="userSpaceOnUse" gradientTransform="translate(222 220) rotate(90) scale(76)">
<stop offset="0.458333" stop-color="#A0D0FF"/>
<stop offset="1" stop-color="white"/>
</radialGradient>
<clipPath id="clip0_366_2760">
<rect width="442" height="442" fill="white"/>
</clipPath>
</defs>
</svg>
